<?xml version="1.0" encoding="UTF-8"?>
<svg width="10px" height="9px" viewBox="0 0 10 9" version="1.1" xmlns="http://www.w3.org/2000/svg" xmlns:xlink="http://www.w3.org/1999/xlink">
    <!-- Generator: Sketch 51.1 (57501) - http://www.bohemiancoding.com/sketch -->
    <title>email - material</title>
    <desc>Created with Sketch.</desc>
    <defs></defs>
    <g id="Page-1" stroke="none" stroke-width="1" fill="none" fill-rule="evenodd">
        <g id="AMP-Footer" transform="translate(-17.000000, -156.000000)" fill="#FFFFFF">
            <path d="M26.008,158.808 L26.008,157.8 L22,160.308 L17.992,157.8 L17.992,158.808 L22,161.292 L26.008,158.808 Z M26.008,156.792 C26.2800014,156.792 26.511999,156.891999 26.704,157.092 C26.896001,157.292001 26.992,157.527999 26.992,157.8 L26.992,163.8 C26.992,164.072001 26.896001,164.307999 26.704,164.508 C26.511999,164.708001 26.2800014,164.808 26.008,164.808 L17.992,164.808 C17.7199986,164.808 17.488001,164.708001 17.296,164.508 C17.103999,164.307999 17.008,164.072001 17.008,163.8 L17.008,157.8 C17.008,157.527999 17.103999,157.292001 17.296,157.092 C17.488001,156.891999 17.7199986,156.792 17.992,156.792 L26.008,156.792 Z" id="email---material"></path>
        </g>
    </g>
</svg>