<?xml version="1.0" encoding="utf-8"?>
<!-- Generator: Adobe Illustrator 16.0.0, SVG Export Plug-In . SVG Version: 6.00 Build 0)  -->
<!DOCTYPE svg PUBLIC "-//W3C//DTD SVG 1.1//EN" "http://www.w3.org/Graphics/SVG/1.1/DTD/svg11.dtd">
<svg version="1.1" id="Layer_1" xmlns="http://www.w3.org/2000/svg" xmlns:xlink="http://www.w3.org/1999/xlink" x="0px" y="0px"
	 width="81px" height="76.063px" viewBox="0 0 81 76.063" enable-background="new 0 0 81 76.063" xml:space="preserve">
<g>
	<path fill="#BBBBBB" d="M2,12h14.735c1.162,4,4.312,5.694,8.015,5.694S31.603,16,32.765,12H79c1.105,0,2-0.896,2-2
		c0-1.104-0.895-2-2-2H33.156c-0.584-4-4.126-7.306-8.406-7.306S16.929,4,16.344,8H2c-1.104,0-2,0.896-2,2C0,11.104,0.896,12,2,12z
		 M20.25,9.203c0-2.481,2.019-4.5,4.5-4.5s4.5,2.019,4.5,4.5c0,2.479-2.019,4.5-4.5,4.5S20.25,11.685,20.25,9.203z"/>
	<path fill="#BBBBBB" d="M79,37h-8.844c-0.584-4-4.127-7.306-8.406-7.306S53.93,33,53.344,37H2c-1.104,0-2,0.896-2,2
		c0,1.104,0.896,2,2,2h51.734c1.164,4,4.313,5.694,8.016,5.694S68.604,45,69.766,41H79c1.105,0,2-0.896,2-2
		C81,37.896,80.105,37,79,37z M66.25,38.203c0,2.479-2.018,4.5-4.5,4.5c-2.48,0-4.5-2.021-4.5-4.5c0-2.481,2.02-4.5,4.5-4.5
		C64.232,33.703,66.25,35.722,66.25,38.203z"/>
	<path fill="#BBBBBB" d="M79,66H42.156c-0.584-4-4.126-7.306-8.406-7.306S25.929,62,25.344,66H2c-1.104,0-2,0.896-2,2
		c0,1.104,0.896,2,2,2h23.735c1.163,4,4.312,5.694,8.015,5.694S40.603,74,41.766,70H79c1.105,0,2-0.896,2-2
		C81,66.896,80.105,66,79,66z M38.25,67.203c0,2.479-2.019,4.5-4.5,4.5s-4.5-2.021-4.5-4.5c0-2.481,2.019-4.5,4.5-4.5
		S38.25,64.722,38.25,67.203z"/>
</g>
</svg>
