<?xml version="1.0" encoding="UTF-8"?>
<svg width="71px" height="122px" viewBox="0 0 71 122" version="1.1" xmlns="http://www.w3.org/2000/svg" xmlns:xlink="http://www.w3.org/1999/xlink">
    <!-- Generator: Sketch 53 (72520) - https://sketchapp.com -->
    <title>icon_sort</title>
    <desc>Created with Sketch.</desc>
    <defs>
        <polygon id="path-1" points="0 0.472 70.6368 0.472 70.6368 46.6817 0 46.6817"></polygon>
        <polygon id="path-3" points="0 0.7901 70.6368 0.7901 70.6368 47 0 47"></polygon>
    </defs>
    <g id="icon_sort" stroke="none" stroke-width="1" fill="none" fill-rule="evenodd">
        <g>
            <g id="Group-3" transform="translate(0.000000, 0.528000)">
                <mask id="mask-2" fill="white">
                    <use xlink:href="#path-1"></use>
                </mask>
                <g id="Clip-2"></g>
                <path d="M2.0263,46.6817 C-0.6757,43.9797 -0.6757,39.5997 2.0263,36.8987 L30.4263,2.4977 C33.1283,-0.2033 37.5083,-0.2033 40.2103,2.4977 L68.6103,36.8987 C71.3123,39.5997 71.3123,43.9797 68.6103,46.6817 L2.0263,46.6817 Z" id="Fill-1" fill="#FCC323" mask="url(#mask-2)"></path>
            </g>
            <g id="Group-6" transform="translate(0.000000, 74.000000)">
                <mask id="mask-4" fill="white">
                    <use xlink:href="#path-3"></use>
                </mask>
                <g id="Clip-5"></g>
                <path d="M2.0263,0.7901 C-0.6757,3.4921 -0.6757,7.8721 2.0263,10.5731 L30.4263,44.9741 C33.1283,47.6761 37.5083,47.6761 40.2103,44.9741 L68.6103,10.5731 C71.3123,7.8721 71.3123,3.4921 68.6103,0.7901 L2.0263,0.7901 Z" id="Fill-4" fill="#FCC323" mask="url(#mask-4)"></path>
            </g>
        </g>
    </g>
</svg>