<?xml version="1.0" encoding="UTF-8"?>
<svg width="11px" height="17px" viewBox="0 0 11 17" version="1.1" xmlns="http://www.w3.org/2000/svg" xmlns:xlink="http://www.w3.org/1999/xlink">
    <!-- Generator: Sketch 51.1 (57501) - http://www.bohemiancoding.com/sketch -->
    <title>ion-ios-location - Ionicons</title>
    <desc>Created with Sketch.</desc>
    <defs></defs>
    <g id="Page-1" stroke="none" stroke-width="1" fill="none" fill-rule="evenodd">
        <g id="AMP-Footer" transform="translate(-17.000000, -110.000000)" fill="#FFFFFF">
            <path d="M22.5,110.375 C23.906257,110.375 25.1015576,110.867183 26.0859375,111.851562 C27.0703174,112.835942 27.5625,114.031243 27.5625,115.4375 C27.5625,116.609381 27.1406292,118.085929 26.296875,119.867188 C25.4531208,121.648446 24.6093792,123.136713 23.765625,124.332031 L22.5,126.125 C22.1249981,125.609372 21.6562528,124.94727 21.09375,124.138672 C20.5312472,123.330074 19.7812547,121.970713 18.84375,120.060547 C17.9062453,118.150381 17.4375,116.609381 17.4375,115.4375 C17.4375,114.031243 17.9296826,112.835942 18.9140625,111.851562 C19.8984424,110.867183 21.093743,110.375 22.5,110.375 Z M22.5,117.089844 C22.9687523,117.089844 23.3613265,116.931642 23.6777344,116.615234 C23.9941422,116.298827 24.1523438,115.906252 24.1523438,115.4375 C24.1523438,114.968748 23.9941422,114.576173 23.6777344,114.259766 C23.3613265,113.943358 22.9687523,113.785156 22.5,113.785156 C22.0312477,113.785156 21.6386735,113.943358 21.3222656,114.259766 C21.0058578,114.576173 20.8476562,114.968748 20.8476562,115.4375 C20.8476562,115.906252 21.0058578,116.298827 21.3222656,116.615234 C21.6386735,116.931642 22.0312477,117.089844 22.5,117.089844 Z" id="ion-ios-location---Ionicons"></path>
        </g>
    </g>
</svg>