 <svg version="1.1" id="Layer_1" xmlns="http://www.w3.org/2000/svg" xmlns:xlink="http://www.w3.org/1999/xlink" x="0px" y="0px"
	 viewBox="0 0 29.1 22.6" width="29.075px" height="22.639px"  enable-background="new 0 0 29.1 22.6" xml:space="preserve">
<g>
	<g>
		<g>
			<path fill="#FCC324" d="M28.9,3.4c-0.1-0.2-0.4-0.3-0.6-0.3h-19C9,3.1,8.6,3.4,8.6,3.9c0,0.4,0.3,0.8,0.8,0.8h17.9l-3.1,8H9.2
				L3.9,0.4C3.8,0.2,3.5,0,3.2,0H0.7C0.3,0,0,0.3,0,0.8c0,0.4,0.3,0.8,0.8,0.8h2l4.2,9.6c0,0,0,0,0,0l2.3,5.4C9.4,16.8,9.7,17,10,17
				h13.4c0.4,0,0.8-0.3,0.8-0.8c0-0.4-0.3-0.8-0.8-0.8H10.5l-0.6-1.4h14.8c0.3,0,0.6-0.2,0.7-0.5L29,4.1C29.1,3.9,29.1,3.6,28.9,3.4
				z"/>
		</g>
		<g>
			<path fill="#FCC324" d="M11.5,17.9c-1.3,0-2.4,1.1-2.4,2.4c0,1.3,1.1,2.4,2.4,2.4s2.4-1.1,2.4-2.4C13.9,18.9,12.8,17.9,11.5,17.9
				z M11.5,21.1c-0.5,0-0.9-0.4-0.9-0.9c0-0.5,0.4-0.9,0.9-0.9s0.9,0.4,0.9,0.9C12.4,20.7,12,21.1,11.5,21.1z"/>
		</g>
		<g>
			<path fill="#FCC324" d="M21.8,17.9c-1.3,0-2.4,1.1-2.4,2.4c0,1.3,1.1,2.4,2.4,2.4c1.3,0,2.4-1.1,2.4-2.4
				C24.2,18.9,23.2,17.9,21.8,17.9z M21.8,21.1c-0.5,0-0.9-0.4-0.9-0.9c0-0.5,0.4-0.9,0.9-0.9c0.5,0,0.9,0.4,0.9,0.9
				S22.3,21.1,21.8,21.1z"/>
		</g>
	</g>
</g>
</svg>