<?xml version="1.0" encoding="UTF-8" standalone="no"?>
<svg width="92px" height="16px" viewBox="0 0 92 16" version="1.1" xmlns="http://www.w3.org/2000/svg" xmlns:xlink="http://www.w3.org/1999/xlink">
    <!-- Generator: Sketch 50.2 (55047) - http://www.bohemiancoding.com/sketch -->
    <title>Stars</title>
    <desc>Created with Sketch.</desc>
    <defs></defs>
    <g id="Symbols" stroke="none" stroke-width="1" fill="none" fill-rule="evenodd">
        <g id="Testimonials" transform="translate(-124.000000, -139.000000)" fill="#ED6D4F">
            <g id="Stars" transform="translate(124.000000, 139.000000)">
                <path d="M15.7857143,6.56640625 C15.7857143,6.70554385 15.7034978,6.85732805 15.5390625,7.02176339 L12.0954241,10.3800223 L12.9112723,15.1233259 C12.9175968,15.1675969 12.9207589,15.2308404 12.9207589,15.313058 C12.9207589,15.4458712 12.8875561,15.5581283 12.8211496,15.6498326 C12.754743,15.7415369 12.6582968,15.7873884 12.531808,15.7873884 C12.4116437,15.7873884 12.2851569,15.7494423 12.1523437,15.6735491 L7.89285714,13.4347098 L3.63337054,15.6735491 C3.49423294,15.7494423 3.3677461,15.7873884 3.25390625,15.7873884 C3.12109309,15.7873884 3.02148471,15.7415369 2.95507812,15.6498326 C2.88867154,15.5581283 2.85546875,15.4458712 2.85546875,15.313058 C2.85546875,15.2751114 2.86179309,15.211868 2.87444196,15.1233259 L3.69029018,10.3800223 L0.237165179,7.02176339 C0.079054269,6.85100361 0,6.69921941 0,6.56640625 C0,6.3324021 0.177081563,6.18694225 0.53125,6.13002232 L5.29352679,5.4375 L7.42801339,1.12109375 C7.54817768,0.861791858 7.70312405,0.732142857 7.89285714,0.732142857 C8.08259023,0.732142857 8.2375366,0.861791858 8.35770089,1.12109375 L10.4921875,5.4375 L15.2544643,6.13002232 C15.6086327,6.18694225 15.7857143,6.3324021 15.7857143,6.56640625 Z" id="star---FontAwesome"></path>
                <path d="M34.7857143,6.56640625 C34.7857143,6.70554385 34.7034978,6.85732805 34.5390625,7.02176339 L31.0954241,10.3800223 L31.9112723,15.1233259 C31.9175968,15.1675969 31.9207589,15.2308404 31.9207589,15.313058 C31.9207589,15.4458712 31.8875561,15.5581283 31.8211496,15.6498326 C31.754743,15.7415369 31.6582968,15.7873884 31.531808,15.7873884 C31.4116437,15.7873884 31.2851569,15.7494423 31.1523438,15.6735491 L26.8928571,13.4347098 L22.6333705,15.6735491 C22.4942329,15.7494423 22.3677461,15.7873884 22.2539062,15.7873884 C22.1210931,15.7873884 22.0214847,15.7415369 21.9550781,15.6498326 C21.8886715,15.5581283 21.8554688,15.4458712 21.8554688,15.313058 C21.8554688,15.2751114 21.8617931,15.211868 21.874442,15.1233259 L22.6902902,10.3800223 L19.2371652,7.02176339 C19.0790543,6.85100361 19,6.69921941 19,6.56640625 C19,6.3324021 19.1770816,6.18694225 19.53125,6.13002232 L24.2935268,5.4375 L26.4280134,1.12109375 C26.5481777,0.861791858 26.7031241,0.732142857 26.8928571,0.732142857 C27.0825902,0.732142857 27.2375366,0.861791858 27.3577009,1.12109375 L29.4921875,5.4375 L34.2544643,6.13002232 C34.6086327,6.18694225 34.7857143,6.3324021 34.7857143,6.56640625 Z" id="star---FontAwesome-Copy"></path>
                <path d="M53.7857143,6.56640625 C53.7857143,6.70554385 53.7034978,6.85732805 53.5390625,7.02176339 L50.0954241,10.3800223 L50.9112723,15.1233259 C50.9175968,15.1675969 50.9207589,15.2308404 50.9207589,15.313058 C50.9207589,15.4458712 50.8875561,15.5581283 50.8211496,15.6498326 C50.754743,15.7415369 50.6582968,15.7873884 50.531808,15.7873884 C50.4116437,15.7873884 50.2851569,15.7494423 50.1523438,15.6735491 L45.8928571,13.4347098 L41.6333705,15.6735491 C41.4942329,15.7494423 41.3677461,15.7873884 41.2539062,15.7873884 C41.1210931,15.7873884 41.0214847,15.7415369 40.9550781,15.6498326 C40.8886715,15.5581283 40.8554688,15.4458712 40.8554688,15.313058 C40.8554688,15.2751114 40.8617931,15.211868 40.874442,15.1233259 L41.6902902,10.3800223 L38.2371652,7.02176339 C38.0790543,6.85100361 38,6.69921941 38,6.56640625 C38,6.3324021 38.1770816,6.18694225 38.53125,6.13002232 L43.2935268,5.4375 L45.4280134,1.12109375 C45.5481777,0.861791858 45.7031241,0.732142857 45.8928571,0.732142857 C46.0825902,0.732142857 46.2375366,0.861791858 46.3577009,1.12109375 L48.4921875,5.4375 L53.2544643,6.13002232 C53.6086327,6.18694225 53.7857143,6.3324021 53.7857143,6.56640625 Z" id="star---FontAwesome-Copy-2"></path>
                <path d="M72.7857143,6.56640625 C72.7857143,6.70554385 72.7034978,6.85732805 72.5390625,7.02176339 L69.0954241,10.3800223 L69.9112723,15.1233259 C69.9175968,15.1675969 69.9207589,15.2308404 69.9207589,15.313058 C69.9207589,15.4458712 69.8875561,15.5581283 69.8211496,15.6498326 C69.754743,15.7415369 69.6582968,15.7873884 69.531808,15.7873884 C69.4116437,15.7873884 69.2851569,15.7494423 69.1523438,15.6735491 L64.8928571,13.4347098 L60.6333705,15.6735491 C60.4942329,15.7494423 60.3677461,15.7873884 60.2539062,15.7873884 C60.1210931,15.7873884 60.0214847,15.7415369 59.9550781,15.6498326 C59.8886715,15.5581283 59.8554688,15.4458712 59.8554688,15.313058 C59.8554688,15.2751114 59.8617931,15.211868 59.874442,15.1233259 L60.6902902,10.3800223 L57.2371652,7.02176339 C57.0790543,6.85100361 57,6.69921941 57,6.56640625 C57,6.3324021 57.1770816,6.18694225 57.53125,6.13002232 L62.2935268,5.4375 L64.4280134,1.12109375 C64.5481777,0.861791858 64.7031241,0.732142857 64.8928571,0.732142857 C65.0825902,0.732142857 65.2375366,0.861791858 65.3577009,1.12109375 L67.4921875,5.4375 L72.2544643,6.13002232 C72.6086327,6.18694225 72.7857143,6.3324021 72.7857143,6.56640625 Z" id="star---FontAwesome-Copy-3"></path>
                <path d="M91.7857143,6.56640625 C91.7857143,6.70554385 91.7034978,6.85732805 91.5390625,7.02176339 L88.0954241,10.3800223 L88.9112723,15.1233259 C88.9175968,15.1675969 88.9207589,15.2308404 88.9207589,15.313058 C88.9207589,15.4458712 88.8875561,15.5581283 88.8211496,15.6498326 C88.754743,15.7415369 88.6582968,15.7873884 88.531808,15.7873884 C88.4116437,15.7873884 88.2851569,15.7494423 88.1523438,15.6735491 L83.8928571,13.4347098 L79.6333705,15.6735491 C79.4942329,15.7494423 79.3677461,15.7873884 79.2539062,15.7873884 C79.1210931,15.7873884 79.0214847,15.7415369 78.9550781,15.6498326 C78.8886715,15.5581283 78.8554688,15.4458712 78.8554688,15.313058 C78.8554688,15.2751114 78.8617931,15.211868 78.874442,15.1233259 L79.6902902,10.3800223 L76.2371652,7.02176339 C76.0790543,6.85100361 76,6.69921941 76,6.56640625 C76,6.3324021 76.1770816,6.18694225 76.53125,6.13002232 L81.2935268,5.4375 L83.4280134,1.12109375 C83.5481777,0.861791858 83.7031241,0.732142857 83.8928571,0.732142857 C84.0825902,0.732142857 84.2375366,0.861791858 84.3577009,1.12109375 L86.4921875,5.4375 L91.2544643,6.13002232 C91.6086327,6.18694225 91.7857143,6.3324021 91.7857143,6.56640625 Z" id="star---FontAwesome-Copy-4"></path>
            </g>
        </g>
    </g>
</svg>