<?xml version="1.0" encoding="utf-8"?>
<!-- Generator: Adobe Illustrator 23.0.1, SVG Export Plug-In . SVG Version: 6.00 Build 0)  -->
<svg version="1.1" id="Layer_1" xmlns="http://www.w3.org/2000/svg" xmlns:xlink="http://www.w3.org/1999/xlink" x="0px" y="0px"
	 viewBox="0 0 142.9 33" style="enable-background:new 0 0 142.9 33;" xml:space="preserve">
<style type="text/css">
	.st0{display:none;}
	.st1{display:inline;}
</style>
<g>
	<g>
		<g>
			<path d="M48.7,13.9L46.1,26h-2.7l2.7-12.4c-2.1,0-3.8,0.6-3.8,3.8c0,1,0.2,1.1,0.3,1.3c-1.3,0-2-0.5-2-1.8c0-2.5,1.8-4.9,6.4-4.9
				c0.8,0,3,0.3,4.8,0.3c0.9,0,1.7-0.1,2.2-0.3c-0.3,0.8-0.3,2.4-1.8,2.4C51.2,14.4,50,14.2,48.7,13.9z"/>
			<path d="M54.9,16.3v0.3c0,3.1,1.3,4,1.3,6.2c0,0.1,0,0.3,0,0.4c0.5-0.5,1-1,1.2-1.2l0.5,0.6c-0.5,0.4-1.3,1.1-2,1.7
				c-0.5,1-1.6,1.7-3.3,1.7c-2.2,0-3.2-0.6-3.2-2.5c0-1.5,0.7-2.4,1.4-2.4c0.7-1.2,1.1-2.9,1.4-4.3L54.9,16.3z M51,23.5
				c-0.2,0-0.5-0.1-0.7-0.2c0,1.1,0.6,1.6,1.6,1.6c0.6,0,1.6-0.8,1.6-2.2c0-1.2-0.8-2.2-0.9-4.5c-0.3,0.9-0.6,2.1-1,3.1
				c0.5,0.2,0.6,0.5,0.6,1.1S51.6,23.5,51,23.5z"/>
			<path d="M64.8,23.1c-0.1,0.2-0.1,0.4-0.1,0.6c0,0.4,0.2,0.7,0.9,0.7c0.8,0,1.7-1.1,2.5-1.7h0.6c-0.9,0.9-3,3.4-4.5,3.4
				c-1.5,0-2.3-0.6-2.3-2.1c0-0.3,0-0.6,0.1-1l0.7-3.4c0-0.2,0.1-0.3,0.1-0.5c0-0.7-0.4-1.1-0.9-1.1s-0.8,0.1-1.2,0.4L59.1,26h-2.7
				l2.7-12.8l2.8-0.4l-1,4.8c0.8-0.5,1.6-1,2.4-1c1,0,2.2,1.1,2.2,2.4c0,0.2,0,0.3,0,0.5L64.8,23.1z"/>
			<path d="M70.9,16.7l-1.4,6.4c0,0.2-0.1,0.4-0.1,0.6c0,0.4,0.2,0.7,0.9,0.7c0.8,0,1.7-1.1,2.5-1.7h0.6c-0.9,0.9-3,3.4-4.5,3.4
				c-1.4,0-2.4-0.6-2.4-2.1c0-0.3,0-0.6,0.1-1l1.4-6.4h2.9V16.7z M70,12.7c0.8,0,1.5,0.7,1.5,1.5s-0.7,1.5-1.5,1.5
				c-0.8,0-1.5-0.7-1.5-1.5C68.6,13.3,69.2,12.7,70,12.7z"/>
			<path d="M76.2,16.7l-0.3,0.9c0.7-0.5,1.4-0.9,2.2-0.9c0.8,0,1.4,0.5,1.4,1.2s-0.5,1.5-1.4,1.5c-1.1,0-0.5-1.2-1.1-1.2
				s-0.9,0.2-1.3,0.6l-1.6,7.4h-2.7l2-9.4h2.8V16.7z"/>
			<path d="M82.2,23.1c-0.1,0.2-0.1,0.5-0.1,0.7c0,0.4,0.2,0.7,0.7,0.7c0.1,0,0.3,0,0.5-0.1c-0.5,1.6-1.4,1.7-2,1.7
				c-1.3,0-1.9-0.9-1.9-2c0-0.3,0-0.6,0.1-1l1.2-5.6h-0.6l0.2-0.8h0.6l0.6-2.6l2.8-0.4c0,0-0.3,1.3-0.6,3h1.1l-0.2,0.8h-1.1
				L82.2,23.1z"/>
			<path d="M98.4,26.1l1.9-8.9l-3.6,8.9h-2.6v-8l-2.5,8h-1.5l4.2-12.9c-1.9,0.6-3,2.1-3,4.3c0,1,0.2,1.1,0.3,1.3c-1.3,0-2-0.5-2-1.8
				c0-2.3,3.2-4.8,6.1-4.8c0.4,0,0.9,0.1,1.3,0.2v10.8l4.1-10.8h3l-3,13.8h-2.7V26.1z"/>
			<path d="M112.4,16.7l-1.4,6.4c0,0.2-0.1,0.4-0.1,0.6c0,0.4,0.2,0.7,0.9,0.7c0.8,0,1.7-1.1,2.5-1.7h0.6c-0.9,0.9-3,3.4-4.5,3.4
				c-1.2,0-2.1-0.5-2.3-1.4c-0.6,0.8-1.4,1.5-2.6,1.5c-1.8,0-2.3-1.3-2.3-2.4c0-3.2,1.2-7.1,4.9-7.1c0.5,0,0.9,0.2,1.3,0.5l0.1-0.5
				H112.4z M105.9,23.3c0,1.1,0.6,1.3,1.1,1.3c0.4,0,0.8-0.4,1.2-0.9c0-0.2,0.1-0.4,0.1-0.6l1.1-5c-0.3-0.3-0.7-0.3-0.9-0.3
				C107,17.7,105.9,20.7,105.9,23.3z"/>
			<path d="M122.2,16.7l-3.8,2.6c0.2,0,0.3-0.1,0.5-0.1c1,0,2.2,1.1,2.2,2.3c0,0.2,0,0.3-0.1,0.5l-0.3,1.1c-0.1,0.2-0.1,0.4-0.1,0.6
				c0,0.4,0.2,0.7,0.9,0.7c0.8,0,1.4-1.1,2.2-1.7h0.6c-0.9,0.9-2.7,3.4-4.1,3.4s-2.4-0.6-2.4-2c0-0.3,0-0.6,0.1-1l0.2-0.9
				c0-0.2,0.1-0.3,0.1-0.5c0-0.7-0.4-1.1-0.9-1.1s-0.8,0.2-1.2,0.4l-1.1,5.1h-2.7l2.7-12.8l2.8-0.4l-1.4,6.6
				c1.4-1.1,3.6-2.8,3.6-2.8H122.2z"/>
			<path d="M126.1,24.7c0.9,0,2.5-1.1,3.2-2.5h0.8c-1.1,1.9-2.9,3.8-5.3,3.8c-1.8,0-2.8-1.4-2.8-3c0-2.4,1-6.6,4.4-6.6
				c1.5,0,2.4,0.6,2.4,2c0,2.3-2.5,3.6-4.3,3.8c0,0.3-0.1,0.6-0.1,0.8C124.6,24.3,125.4,24.7,126.1,24.7z M127.1,17.5
				c-1.1,0-1.9,2.1-2.3,3.9c1.7,0,3-1.5,3-2.8C127.7,18.1,127.6,17.5,127.1,17.5z"/>
			<path d="M135.8,26.1c-1.2,0-1.9-0.6-1.9-2.1c0-0.3,0-0.6,0.1-1l0.7-3.4c0-0.2,0.1-0.3,0.1-0.5c0-0.7-0.4-1.1-0.9-1.1
				s-0.8,0.1-1.2,0.4l-1.6,7.6h-2.7l2-9.4h2.7l-0.2,1c0.8-0.6,1.6-1,2.5-1c1,0,2.2,1.1,2.2,2.4c0,0.2,0,0.3,0,0.4
				c-0.1,0.6-0.9,3.9-0.9,4.3c0,0.3,0.2,0.6,0.7,0.6c0.1,0,0.3,0,0.5-0.1C137.2,26,136.4,26.1,135.8,26.1z"/>
		</g>
		<g>
			<path d="M13.9,26.1l1.8-8.9l-3.6,8.9H9.5v-8l-2.5,8H5.6l4.3-12.8c-1.8,0.5-3.1,2-3.1,4.2c0,0.9,0.2,1.1,0.2,1.3
				c-1.3,0-2-0.5-2-1.8c0-2.4,3.1-4.7,6.1-4.7c0.4,0,0.9,0,1.3,0.2v10.8l4.2-10.8h2.9l-2.9,13.7H13.9z"/>
			<path d="M21.1,26.1h-2.7l2-9.4h2.7L21.1,26.1z M27.8,16.8L26,25c1.1-0.5,2.2-1.4,2.9-2.7v1.4c-0.2,1.3-1.4,1.8-2.9,2.2l-0.4,1.8
				c-0.5,2.7-2.2,3.3-3.4,3.3c-1.1,0-2.2-0.7-2.2-2c0-1.8,1.4-2.4,3.3-2.9l2-9.2C25.3,16.8,27.8,16.8,27.8,16.8z M22.2,12.9
				c0.9,0,1.4,0.7,1.4,1.4s-0.7,1.4-1.4,1.4c-0.9,0-1.4-0.5-1.4-1.4C20.8,13.4,21.3,12.9,22.2,12.9z M21.7,29.1
				c0.4,0,0.9-0.4,1.1-1.4l0.2-1.1c-1.3,0.4-2,0.9-2,2C20.9,28.8,21.3,29.1,21.7,29.1z M26.7,12.9c0.9,0,1.4,0.7,1.4,1.4
				s-0.7,1.4-1.4,1.4c-0.7,0-1.4-0.7-1.4-1.4C25.3,13.6,26,12.9,26.7,12.9z"/>
			<path d="M35,26.1c-1.3,0-2-0.7-2-2c0-0.4,0-0.5,0.2-0.9l0.7-3.4c0-0.2,0-0.4,0-0.5c0-0.7-0.4-1.1-0.9-1.1c-0.4,0-0.7,0.2-1.3,0.4
				l-1.6,7.6h-2.7l2-9.4h2.7L32,17.8c0.7-0.5,1.6-1.1,2.5-1.1c1.1,0,2.2,1.1,2.2,2.4c0,0.2,0,0.4,0,0.4c-0.2,0.5-0.9,4-0.9,4.3
				s0.2,0.5,0.7,0.5c0.2,0,0.4,0,0.5,0C36.5,26.1,35.8,26.1,35,26.1z"/>
		</g>
	</g>
</g>
<g class="st0">
	<g class="st1">
		<g>
			<path d="M47.3,16.6l-2.6,12H42l2.7-12.4c-2.1,0-3.8,0.6-3.8,3.8c0,1,0.2,1.1,0.3,1.3c-1.3,0-2-0.5-2-1.8c0-2.5,1.8-4.9,6.4-4.9
				c0.8,0,3,0.3,4.8,0.3c0.9,0,1.6-0.1,2.2-0.3c-0.3,0.8-0.3,2.4-1.8,2.4C49.8,17,48.5,16.8,47.3,16.6z"/>
			<path d="M53.5,18.9v0.3c0,3.1,1.3,4,1.3,6.2c0,0.1,0,0.3,0,0.4c0.5-0.5,1-1,1.2-1.2l0.5,0.6c-0.5,0.4-1.3,1.1-2,1.7
				c-0.5,1-1.6,1.7-3.3,1.7c-2.3,0-3.3-0.6-3.3-2.4c0-1.5,0.7-2.4,1.4-2.4c0.7-1.2,1.1-2.9,1.4-4.3L53.5,18.9z M49.5,26.1
				c-0.2,0-0.4-0.1-0.7-0.2c0,1.1,0.6,1.6,1.6,1.6c0.6,0,1.6-0.8,1.6-2.2c0-1.2-0.8-2.2-0.9-4.5c-0.3,0.9-0.6,2.1-1,3.1
				c0.4,0.1,0.6,0.5,0.6,1C50.8,25.6,50.2,26.1,49.5,26.1z"/>
			<path d="M63.3,25.6c-0.1,0.2-0.1,0.4-0.1,0.6c0,0.4,0.2,0.7,0.9,0.7c0.7,0,1.7-1,2.5-1.6h0.6c-0.9,0.9-3,3.4-4.4,3.4
				c-1.5,0-2.3-0.6-2.3-2c0-0.3,0-0.6,0.1-1l0.7-3.4c0-0.2,0.1-0.3,0.1-0.5c0-0.7-0.4-1.1-0.9-1.1c-0.4,0-0.8,0.1-1.2,0.4l-1.6,7.6
				H55L57.7,16l2.8-0.4l-1,4.7c0.8-0.5,1.6-1,2.4-1c1,0,2.2,1.1,2.2,2.3c0,0.1,0,0.3,0,0.4L63.3,25.6z"/>
			<path d="M69.4,19.3l-1.3,6.4c0,0.2-0.1,0.4-0.1,0.6c0,0.4,0.2,0.7,0.9,0.7c0.7,0,1.7-1,2.5-1.6H72c-0.9,0.9-3,3.4-4.4,3.4
				s-2.3-0.6-2.3-2c0-0.3,0-0.6,0.1-1l1.3-6.4h2.7V19.3z M68.5,15.3c0.8,0,1.5,0.7,1.5,1.5s-0.7,1.5-1.5,1.5c-0.8,0-1.5-0.7-1.5-1.5
				S67.7,15.3,68.5,15.3z"/>
			<path d="M74.6,19.3l-0.2,0.9c0.7-0.5,1.4-0.9,2.2-0.9c0.8,0,1.3,0.5,1.3,1.2S77.4,22,76.5,22c-1,0-0.5-1.2-1.1-1.2
				s-0.9,0.2-1.3,0.6l-1.6,7.3h-2.6l2-9.4C71.9,19.3,74.6,19.3,74.6,19.3z"/>
			<path d="M80.7,25.6c-0.1,0.2-0.1,0.4-0.1,0.7c0,0.4,0.1,0.7,0.7,0.7c0.1,0,0.3,0,0.5-0.1c-0.5,1.6-1.3,1.7-2,1.7
				c-1.3,0-1.9-0.9-1.9-2c0-0.3,0-0.6,0.1-1l1.2-5.6h-0.6l0.1-0.7h0.6l0.6-2.6l2.8-0.4c0,0-0.3,1.3-0.6,3h1.1L83,20h-1.1L80.7,25.6z
				"/>
			<path d="M97.6,20.8l-1.5,7c-0.6,2.9-1.7,4.7-4.8,4.7c-1.8,0-2.6-1.3-2.6-2.6c0-1.3,0.8-2.6,2.3-2.6c0.7,0,1.8,0.1,1.8,1.3
				c0,0.2,0,0.5-0.1,0.7c-0.5-0.4-0.7-0.5-1.1-0.5c-0.9,0-1.3,0.7-1.3,1.4c0,0.7,0.4,1.3,1.2,1.3c0.8,0,1.4-0.4,1.9-2.3l0.7-3.4
				c-1.1,0.6-2.1,0.7-2.3,0.7c-3.1,0-4-2.2-4-4.8c0-3.6,2.5-7.2,6.6-7.2c1.7,0,3.5,0.7,3.5,2.5c0,1-0.4,1.7-1.3,1.7
				c-0.3,0-0.9-0.1-1.3-0.5c0.5-0.1,0.8-1.1,0.8-1.5c0-0.3-0.1-1.3-1.3-1.3c-2.1,0-4.2,3.5-4.2,6.5c0,1.7,0.6,3.1,2.2,3.1
				c0.7,0,1.2-0.2,1.6-0.7l0.8-3.5C95.2,20.8,97.6,20.8,97.6,20.8z"/>
			<path d="M101.9,27.3c0.7,0,1.3-0.5,1.9-1.4c0.1-1.3,0.7-2.1,1.4-2.2c0.7-1.2,1.1-2.9,1.4-4.3l2.7-0.6v0.3c0,3.1,1.3,4,1.3,6.2
				c0,0.1,0,0.3,0,0.4c0.5-0.5,1-1,1.2-1.2l0.5,0.6c-0.5,0.4-1.3,1.1-2,1.7c-0.5,1-1.6,1.7-3.3,1.7c-1.8,0-2.8-0.4-3.1-1.6
				c-0.8,1-1.7,1.6-3.3,1.6c-1.8,0-2.8-1.4-2.8-3c0-2.4,1-6.6,4.4-6.6c1.5,0,2.4,0.6,2.4,1.9c0,2.3-2.5,3.6-4.2,3.8
				c0,0.3-0.1,0.6-0.1,0.8C100.3,26.9,101.1,27.3,101.9,27.3z M102.9,20.1c-1,0-1.9,2.1-2.3,3.9c1.7,0,2.9-1.5,3-2.8
				C103.5,20.7,103.4,20.1,102.9,20.1z M105.4,26.1c-0.2,0-0.4-0.1-0.7-0.2c0,1.1,0.6,1.6,1.6,1.6c0.6,0,1.6-0.8,1.6-2.2
				c0-1.2-0.8-2.2-0.9-4.5c-0.3,0.9-0.6,2.1-1,3.1c0.4,0.1,0.6,0.5,0.6,1C106.6,25.6,106.1,26.1,105.4,26.1z"/>
			<path d="M116.3,16.3c0,0-0.3,1.3-0.6,3h1.1l-0.2,0.7h-1.1c-1.3,5.9-1.3,6.1-1.3,6.2c0,0.4,0.2,0.7,0.9,0.7c0.7,0,1.7-1,2.5-1.6
				h0.6c-0.9,0.9-3,3.4-4.4,3.4s-2.3-0.6-2.3-2c0-1,1-5,1.3-6.6h-0.6l0.2-0.7h0.5l0.6-2.6L116.3,16.3z"/>
			<path d="M125.6,19.3l-1.3,6.4c0,0.2-0.1,0.4-0.1,0.6c0,0.4,0.2,0.7,0.9,0.7c0.7,0,1.7-1,2.5-1.6h0.6c-0.9,0.9-3,3.4-4.4,3.4
				c-1.2,0-2-0.4-2.3-1.4c-0.6,0.8-1.4,1.5-2.5,1.5c-1.8,0-2.3-1.3-2.3-2.4c0-3.2,1.2-7.1,4.9-7.1c0.4,0,0.9,0.2,1.3,0.5l0.1-0.5
				h2.6V19.3z M119.2,25.9c0,1.1,0.6,1.3,1.1,1.3c0.4,0,0.8-0.4,1.2-0.9c0-0.2,0.1-0.4,0.1-0.6l1-5c-0.3-0.3-0.7-0.3-0.9-0.3
				C120.3,20.3,119.2,23.3,119.2,25.9z"/>
			<path d="M131.3,15.5l-2.2,10.1c-0.1,0.3-0.1,0.4-0.1,0.6c0,0.4,0.2,0.7,0.9,0.7s1.7-1,2.5-1.6h0.6c-0.9,0.9-3,3.4-4.4,3.4
				c-1.4,0-2.3-0.6-2.3-2c0-0.3,0-0.6,0.1-1l2.1-9.7L131.3,15.5z"/>
			<path d="M136.5,16.3c0,0-0.3,1.3-0.6,3h1.1l-0.1,0.7h-1.1c-1.3,5.9-1.3,6.1-1.3,6.2c0,0.4,0.2,0.7,0.9,0.7c0.7,0,1.7-1,2.5-1.6
				h0.6c-0.9,0.9-3,3.4-4.4,3.4c-1.4,0-2.3-0.6-2.3-2c0-1,1-5,1.3-6.6h-0.6l0.2-0.7h0.6l0.6-2.6L136.5,16.3z"/>
			<path d="M140.9,27.3c0.9,0,2.5-1.1,3.1-2.5h0.8c-1.1,1.9-2.9,3.8-5.3,3.8c-1.8,0-2.8-1.4-2.8-3c0-2.4,1-6.6,4.4-6.6
				c1.5,0,2.4,0.6,2.4,1.9c0,2.3-2.5,3.6-4.2,3.8c0,0.3-0.1,0.6-0.1,0.8C139.3,26.9,140.1,27.3,140.9,27.3z M141.9,20.1
				c-1,0-1.9,2.1-2.3,3.9c1.7,0,2.9-1.5,3-2.8C142.5,20.7,142.4,20.1,141.9,20.1z"/>
		</g>
		<g>
			<path d="M44.7,9.2l1-4.9l-2,4.9h-1.4V4.8L41,9.2h-0.9l2.3-7.1c-1,0.3-1.7,1.1-1.7,2.3C40.8,5,40.9,5,40.9,5.1
				c-0.7,0-1.1-0.3-1.1-1c0-1.3,1.7-2.6,3.3-2.6c0.2,0,0.5,0,0.7,0.1v5.9l2.3-5.9h1.6l-1.6,7.6H44.7z"/>
			<path d="M49.6,8.4c0.5,0,1.4-0.6,1.7-1.4h0.5c-0.6,1.1-1.6,2.1-2.9,2.1c-1,0-1.5-0.8-1.5-1.6c0-1.3,0.6-3.6,2.4-3.6
				c0.8,0,1.3,0.4,1.3,1.1c0,1.3-1.3,2-2.3,2.1c0,0.2,0,0.3,0,0.4C48.8,8.2,49.2,8.4,49.6,8.4z M50.1,4.5c-0.6,0-1.1,1.2-1.3,2.1
				c0.9,0,1.6-0.8,1.6-1.6C50.5,4.8,50.4,4.5,50.1,4.5z"/>
			<path d="M53.5,4l-0.7,3.5c0,0.1,0,0.2,0,0.3c0,0.2,0.1,0.4,0.5,0.4c0.4,0,0.9-0.6,1.4-0.9h0.2c-0.5,0.5-1.6,1.8-2.4,1.8
				S51.2,8.7,51.2,8c0-0.2,0-0.3,0.1-0.5L52,4H53.5z M53,1.9c0.5,0,0.8,0.4,0.8,0.8S53.4,3.5,53,3.5c-0.4,0-0.8-0.4-0.8-0.8
				S52.6,1.9,53,1.9z"/>
			<path d="M57.8,9.2c-0.7,0-1.1-0.4-1.1-1.1c0-0.2,0-0.3,0.1-0.5l0.4-1.9c0-0.1,0-0.2,0-0.3c0-0.4-0.2-0.6-0.5-0.6
				c-0.2,0-0.4,0.1-0.6,0.2l-0.9,4.2h-1.5L54.8,4h1.5l-0.1,0.6C56.6,4.3,57.1,4,57.5,4c0.6,0,1.2,0.6,1.2,1.3c0,0.1,0,0.2,0,0.2
				c-0.1,0.3-0.5,2.2-0.5,2.4s0.1,0.3,0.4,0.3c0.1,0,0.2,0,0.3,0C58.6,9.1,58.1,9.2,57.8,9.2z"/>
		</g>
	</g>
</g>
<g id="Layer_4" class="st0">
	<g class="st1">
		<g>
			<path d="M48.7,26c-1,2.8-3.6,3.4-5.4,3.4c-2,0-4.2-1-4.2-4.9c0-4.2,1.4-9.6,6.5-9.6c1.8,0,3.3,0.7,3.3,2.6c0,1-0.4,1.8-1.3,1.8
				c-0.3,0-0.7-0.1-1.1-0.5c0.5-0.1,0.8-1.1,0.8-1.6c0-0.3-0.1-1.4-1.3-1.4c-2.4,0-3.9,4.9-3.9,8.3c0,2.5,0.5,3.6,2.5,3.6
				c1.5,0,2.9-0.6,3.6-1.8L48.7,26z"/>
			<path d="M57.3,19.7l-1.4,6.5c0,0.2-0.1,0.4-0.1,0.6c0,0.4,0.2,0.7,1,0.7s1.8-1.1,2.5-1.7H60c-0.9,0.9-3,3.4-4.5,3.4
				c-1.3,0-2.2-0.5-2.4-1.6c-0.9,0.8-1.9,1.6-2.8,1.6c-1.5,0-2.4-0.7-2.4-2.1c0-0.3,0-0.6,0.1-1l1.4-6.5h2.8l-1.4,6.5
				c0,0.2-0.1,0.4-0.1,0.6c0,0.4,0.2,0.7,1,0.7c0.4,0,0.9-0.3,1.4-0.7c0-0.2,0.1-0.4,0.1-0.6l1.4-6.5h2.7V19.7z"/>
			<path d="M63.5,19.3v0.3c0,3.2,1.3,4.1,1.3,6.4c0,0.1,0,0.3,0,0.4c0.5-0.5,1-1,1.2-1.2l0.5,0.7c-0.5,0.4-1.3,1.1-2.1,1.7
				c-0.5,1.1-1.6,1.8-3.4,1.8c-2.2,0-3.3-0.6-3.3-2.5c0-1.5,0.7-2.4,1.5-2.5c0.7-1.2,1.1-2.9,1.5-4.4L63.5,19.3z M59.5,26.6
				c-0.2,0-0.5-0.1-0.7-0.2c0,1.1,0.6,1.6,1.6,1.6c0.7,0,1.6-0.8,1.6-2.3c0-1.2-0.9-2.2-0.9-4.6c-0.3,0.9-0.6,2.2-1,3.1
				c0.5,0.2,0.6,0.5,0.6,1.1C60.8,26.1,60.2,26.6,59.5,26.6z"/>
			<path d="M70.7,16.6c0,0-0.3,1.3-0.7,3h1.1l-0.2,0.8h-1c-1.3,6.1-1.3,6.2-1.3,6.3c0,0.4,0.2,0.7,1,0.7c0.8,0,1.8-1.1,2.5-1.7h0.7
				c-0.9,0.9-3,3.4-4.5,3.4s-2.4-0.7-2.4-2.1c0-1,1-5.1,1.3-6.7h-0.6l0.2-0.8h0.6l0.6-2.6L70.7,16.6z"/>
			<path d="M78.4,22.3c0.1,0.1,0.3,0.2,0.6,0.2c0.9,0,1.3-0.7,2-0.9l0.1,0.4c-0.6,0.7-1.6,1.4-2.7,1.7c-0.4,3.8-2.5,5.7-4.4,5.7
				c-2,0-2.9-0.9-2.9-3.1c0-4.7,2.4-6.7,5-6.7C77.9,19.5,78.3,20.9,78.4,22.3z M76.9,23.8c-0.6,0-0.8-0.4-0.8-0.9
				c0-0.6,0.3-1.1,0.8-1.3c-0.1-0.6-0.3-1-0.8-1c-1.8,0-2.6,3.9-2.6,5.4c0,1.1,0.5,1.5,1.3,1.5C76,27.5,76.6,25.7,76.9,23.8z"/>
			<path d="M90.5,29.2c-1.2,0-2-0.7-2-2.1c0-0.3,0-0.6,0.1-1l0.7-3.4c0-0.2,0.1-0.3,0.1-0.5c0-0.7-0.4-1.1-0.9-1.1
				c-0.4,0-0.7,0.1-1.1,0.3c0.1,0.2,0.1,0.5,0.1,0.7c0,0.1,0,0.3,0,0.4l-1.4,6.7h-2.8l1.4-6.5c0-0.2,0.1-0.3,0.1-0.5
				c0-0.7-0.4-1.1-0.9-1.1s-0.8,0.1-1.2,0.4l-1.6,7.7h-2.8l2-9.6h2.8l-0.2,1c0.8-0.6,1.6-1,2.5-1c0.7,0,1.5,0.5,1.9,1.2
				c0.9-0.7,1.8-1.2,2.8-1.2c1.1,0,2.2,1.1,2.2,2.4c0,0.2,0,0.3,0,0.4c-0.1,0.6-0.9,4-0.9,4.4c0,0.3,0.2,0.6,0.7,0.6
				c0.1,0,0.3,0,0.5-0.1C91.9,29.1,91.1,29.2,90.5,29.2z"/>
			<path d="M105.2,16.9l-2.6,12.3h-2.8l2.7-12.7c-2.1,0-3.8,0.6-3.8,3.8c0,1,0.2,1.1,0.3,1.3c-1.3,0-2-0.5-2-1.9c0-2.5,1.8-5,6.5-5
				c0.8,0,3,0.3,4.9,0.3c0.9,0,1.7-0.1,2.2-0.3c-0.3,0.8-0.3,2.5-1.8,2.5C107.7,17.4,106.5,17.1,105.2,16.9z"/>
			<path d="M111.5,19.3v0.3c0,3.2,1.3,4.1,1.3,6.4c0,0.1,0,0.3,0,0.4c0.5-0.5,1-1,1.2-1.2l0.5,0.7c-0.5,0.4-1.3,1.1-2.1,1.7
				c-0.5,1.1-1.6,1.8-3.4,1.8c-2.2,0-3.3-0.6-3.3-2.5c0-1.5,0.7-2.4,1.5-2.5c0.7-1.2,1.1-2.9,1.5-4.4L111.5,19.3z M107.5,26.6
				c-0.2,0-0.5-0.1-0.7-0.2c0,1.1,0.6,1.6,1.6,1.6c0.7,0,1.6-0.8,1.6-2.3c0-1.2-0.9-2.2-0.9-4.6c-0.3,0.9-0.6,2.2-1,3.1
				c0.5,0.2,0.6,0.5,0.6,1.1C108.7,26.1,108.2,26.6,107.5,26.6z"/>
			<path d="M121.5,26.2c-0.1,0.2-0.1,0.4-0.1,0.6c0,0.4,0.2,0.7,1,0.7s1.8-1.1,2.5-1.7h0.7c-0.9,0.9-3,3.4-4.5,3.4s-2.4-0.7-2.4-2.1
				c0-0.3,0-0.6,0.1-1l0.7-3.4c0-0.2,0.1-0.3,0.1-0.5c0-0.7-0.4-1.1-0.9-1.1s-0.8,0.1-1.2,0.4l-1.6,7.7h-2.8l2.8-13l2.8-0.4l-1,4.8
				c0.8-0.6,1.7-1,2.5-1c1,0,2.2,1.1,2.2,2.4c0,0.2,0,0.3,0,0.5L121.5,26.2z"/>
			<path d="M127.8,19.7l-1.4,6.5c0,0.2-0.1,0.4-0.1,0.6c0,0.4,0.2,0.7,1,0.7c0.8,0,1.8-1.1,2.5-1.7h0.7c-0.9,0.9-3,3.4-4.5,3.4
				s-2.4-0.7-2.4-2.1c0-0.3,0-0.6,0.1-1l1.4-6.5h2.7V19.7z M126.9,15.6c0.8,0,1.5,0.7,1.5,1.5s-0.7,1.5-1.5,1.5s-1.5-0.7-1.5-1.5
				C125.4,16.3,126.1,15.6,126.9,15.6z"/>
			<path d="M133.1,19.7l-0.2,1c0.7-0.5,1.5-1,2.3-1c0.9,0,1.4,0.5,1.4,1.2s-0.5,1.5-1.4,1.5c-1.1,0-0.5-1.3-1.1-1.3
				c-0.6,0-0.9,0.2-1.3,0.6l-1.6,7.5h-2.8l2-9.6L133.1,19.7L133.1,19.7z"/>
			<path d="M139.3,26.2c-0.1,0.2-0.1,0.5-0.1,0.7c0,0.4,0.2,0.7,0.7,0.7c0.1,0,0.3,0,0.5-0.1c-0.5,1.6-1.4,1.8-2,1.8
				c-1.3,0-1.9-0.9-1.9-2.1c0-0.3,0-0.7,0.1-1l1.2-5.7h-0.6l0.2-0.8h0.6l0.6-2.6l2.8-0.4c0,0-0.3,1.3-0.7,3h1.1l-0.2,0.8h-1.1
				L139.3,26.2z"/>
		</g>
		<g>
			<path d="M44.5,9.4l1.1-5l-2,5h-1.5V4.9l-1.4,4.5h-0.9l2.4-7.2c-1.1,0.3-1.7,1.1-1.7,2.3c0,0.5,0.1,0.6,0.1,0.7
				c-0.7,0-1.1-0.2-1.1-1c0-1.3,1.8-2.7,3.4-2.7c0.2,0,0.5,0,0.7,0.1v6.1l2.3-6.1h1.7l-1.7,7.8H44.5z"/>
			<path d="M49.6,4.1l-0.8,3.6c0,0.1-0.1,0.2-0.1,0.3c0,0.2,0.1,0.4,0.5,0.4c0.2,0,0.5-0.2,0.8-0.4l0.9-3.9h1.5l-1.3,6.1
				c-0.2,1.5-1.2,1.8-1.8,1.8c-0.6,0-1.2-0.5-1.2-1.1c0-1,0.8-1.3,1.8-1.6l0.2-0.7c-0.5,0.4-1,0.8-1.4,0.8c-0.8,0-1.3-0.4-1.3-1.1
				c0-0.2,0-0.3,0.1-0.5l0.7-3.6L49.6,4.1L49.6,4.1z M49,11.1c0.2,0,0.5-0.2,0.6-0.8l0.1-0.6c-0.7,0.2-1.2,0.5-1.2,1.1
				C48.6,10.9,48.8,11.1,49,11.1z"/>
		</g>
	</g>
</g>
<g id="Layer_3" class="st0">
	<g class="st1">
		<g>
			<path d="M47,16l-2.5,11.7h-2.6l2.6-12c-2,0-3.6,0.6-3.6,3.6c0,0.9,0.2,1.1,0.3,1.2c-1.2,0-1.9-0.5-1.9-1.8c0-2.4,1.7-4.7,6.2-4.7
				c0.7,0,2.9,0.3,4.6,0.3c0.8,0,1.6-0.1,2.1-0.3c-0.3,0.8-0.3,2.3-1.7,2.3C49.4,16.5,48.2,16.3,47,16z"/>
			<path d="M53,18.3v0.3c0,3,1.2,3.9,1.2,6c0,0.1,0,0.3,0,0.4c0.5-0.5,1-0.9,1.2-1.2l0.5,0.6c-0.5,0.4-1.2,1-2,1.6
				c-0.5,1-1.5,1.7-3.2,1.7c-2.1,0-3.1-0.6-3.1-2.4c0-1.4,0.7-2.3,1.4-2.3c0.7-1.2,1.1-2.8,1.4-4.2L53,18.3z M49.2,25.2
				c-0.2,0-0.4-0.1-0.7-0.2c0,1.1,0.6,1.5,1.5,1.5c0.6,0,1.5-0.8,1.5-2.2c0-1.1-0.8-2.1-0.8-4.3c-0.3,0.9-0.5,2-0.9,2.9
				c0.4,0.1,0.6,0.5,0.6,1C50.4,24.8,49.8,25.2,49.2,25.2z"/>
			<path d="M62.4,24.8c-0.1,0.2-0.1,0.4-0.1,0.6c0,0.4,0.2,0.7,0.9,0.7c0.7,0,1.7-1,2.4-1.6h0.6c-0.8,0.8-2.9,3.2-4.3,3.2
				c-1.4,0-2.2-0.6-2.2-2c0-0.3,0-0.6,0.1-0.9l0.7-3.3c0-0.2,0.1-0.3,0.1-0.5c0-0.7-0.3-1.1-0.8-1.1c-0.4,0-0.8,0.1-1.1,0.4
				l-1.6,7.3h-2.6l2.6-12.3l2.7-0.4l-1,4.6c0.7-0.5,1.6-1,2.4-1c1,0,2.1,1,2.1,2.3c0,0.1,0,0.3,0,0.4L62.4,24.8z"/>
			<path d="M68.3,18.6L67,24.7c0,0.2-0.1,0.4-0.1,0.6c0,0.4,0.2,0.7,0.9,0.7c0.7,0,1.7-1,2.4-1.6h0.7c-0.8,0.8-2.9,3.2-4.3,3.2
				s-2.3-0.6-2.3-2c0-0.3,0-0.6,0.1-0.9l1.3-6.1C65.7,18.6,68.3,18.6,68.3,18.6z M67.5,14.8c0.8,0,1.4,0.7,1.4,1.4
				c0,0.8-0.7,1.4-1.4,1.4c-0.8,0-1.4-0.6-1.4-1.4C66.1,15.5,66.7,14.8,67.5,14.8z"/>
			<path d="M73.4,18.6l-0.2,0.9c0.7-0.5,1.4-0.9,2.1-0.9c0.8,0,1.3,0.5,1.3,1.2c0,0.6-0.5,1.4-1.4,1.4c-1,0-0.5-1.2-1-1.2
				s-0.8,0.2-1.2,0.6l-1.5,7.1h-2.6l1.9-9h2.6V18.6z"/>
			<path d="M79.2,24.8c-0.1,0.2-0.1,0.4-0.1,0.6c0,0.4,0.1,0.7,0.6,0.7c0.1,0,0.3,0,0.5-0.1c-0.5,1.6-1.3,1.7-1.9,1.7
				c-1.3,0-1.8-0.8-1.8-2c0-0.3,0-0.6,0.1-0.9l1.2-5.4h-0.6l0.1-0.7h0.6l0.5-2.5l2.7-0.4c0,0-0.3,1.2-0.6,2.9h1.1l-0.1,0.7h-1.1
				L79.2,24.8z"/>
			<path d="M92.5,15.8l-1.3,6c1.8-0.1,3.2-2.5,3.2-4.4c0-1.3-0.7-2.5-2.2-2.5c-2.9,0-4.7,1.6-4.7,4.4c0,0.9,0.2,1.1,0.3,1.2
				c-1.2,0-1.9-0.5-1.9-1.8c0-2.4,3.3-4.7,6.3-4.7s4.3,1.7,4.3,3.6c0,2.3-2,4.8-5.2,4.8h-0.1l-1.1,5.2h-2.6L90,16.1L92.5,15.8z"/>
			<path d="M99.6,26.4c0.9,0,2.4-1,3-2.4h0.8c-1,1.9-2.8,3.7-5.1,3.7c-1.7,0-2.7-1.3-2.7-2.9c0-2.3,1-6.3,4.3-6.3
				c1.5,0,2.3,0.6,2.3,1.9c0,2.2-2.4,3.5-4.1,3.7c0,0.3-0.1,0.6-0.1,0.8C98.1,26,98.9,26.4,99.6,26.4z M100.6,19.4
				c-1,0-1.8,2-2.2,3.7c1.7,0,2.8-1.4,2.9-2.7C101.2,20.1,101.1,19.4,100.6,19.4z"/>
			<path d="M106.4,18.6l-0.2,0.9c0.7-0.5,1.4-0.9,2.1-0.9c0.8,0,1.3,0.5,1.3,1.2c0,0.6-0.5,1.4-1.4,1.4c-1,0-0.5-1.2-1-1.2
				s-0.8,0.2-1.2,0.6l-1.5,7.1h-2.6l1.9-9h2.6V18.6z"/>
			<path d="M113.6,18.3v0.3c0,3,1.2,3.9,1.2,6c0,0.1,0,0.3,0,0.4c0.5-0.5,1-0.9,1.2-1.2l0.5,0.6c-0.5,0.4-1.2,1-2,1.6
				c-0.5,1-1.5,1.7-3.2,1.7c-2.1,0-3.1-0.6-3.1-2.4c0-1.4,0.7-2.3,1.4-2.3c0.7-1.2,1.1-2.8,1.4-4.2L113.6,18.3z M109.8,25.2
				c-0.2,0-0.4-0.1-0.7-0.2c0,1.1,0.6,1.5,1.5,1.5c0.6,0,1.5-0.8,1.5-2.2c0-1.1-0.8-2.1-0.9-4.3c-0.3,0.9-0.5,2-0.9,2.9
				c0.4,0.1,0.6,0.5,0.6,1C110.9,24.8,110.4,25.2,109.8,25.2z"/>
			<path d="M122.6,21.1c0.1,0.1,0.3,0.2,0.5,0.2c0.8,0,1.2-0.6,1.9-0.9l0.1,0.4c-0.6,0.7-1.5,1.3-2.5,1.6c-0.3,3.6-2.3,5.4-4.1,5.4
				c-1.9,0-2.8-0.8-2.8-3c0-4.4,2.3-6.4,4.8-6.4C122.2,18.5,122.6,19.8,122.6,21.1z M121.3,22.6c-0.5,0-0.8-0.4-0.8-0.8
				c0-0.5,0.3-1.1,0.8-1.3c-0.1-0.6-0.3-0.9-0.8-0.9c-1.7,0-2.4,3.7-2.4,5.1c0,1.1,0.5,1.4,1.2,1.4C120.4,26,121,24.3,121.3,22.6z"
				/>
			<path d="M130.8,24.8c-0.1,0.2-0.1,0.4-0.1,0.6c0,0.4,0.2,0.7,0.9,0.7s1-0.6,1.7-1.1h0.6c-0.8,0.8-2.2,2.8-3.6,2.8
				c-1.4,0-2.2-0.6-2.2-2c0-0.3,0-0.6,0.1-0.9l0.7-3.3c0-0.2,0.1-0.3,0.1-0.5c0-0.7-0.3-1.1-0.8-1.1c-0.4,0-0.8,0.1-1.1,0.4
				l-1.5,7.3H123l1.9-9h2.6l-0.2,1c0.7-0.5,1.6-1,2.4-1c1,0,2.1,1,2.1,2.3c0,0.1,0,0.3,0,0.4L130.8,24.8z"/>
			<path d="M141.1,18.6l-1.3,6.1c0,0.2-0.1,0.4-0.1,0.6c0,0.4,0.2,0.7,0.9,0.7c0.7,0,1.7-1,2.4-1.6h0.6c-0.8,0.8-2.9,3.2-4.3,3.2
				c-1.2,0-2-0.4-2.2-1.4c-0.5,0.7-1.4,1.5-2.5,1.5c-1.7,0-2.2-1.2-2.2-2.3c0-3.1,1.1-6.8,4.7-6.8c0.4,0,0.9,0.2,1.2,0.5l0.1-0.5
				C138.4,18.6,141.1,18.6,141.1,18.6z M134.9,25c0,1.1,0.6,1.3,1,1.3c0.4,0,0.8-0.4,1.2-0.9c0-0.2,0.1-0.4,0.1-0.6l1-4.8
				c-0.3-0.3-0.6-0.3-0.9-0.3C136,19.7,134.9,22.6,134.9,25z"/>
			<path d="M146.5,15l-2.1,9.8c-0.1,0.3-0.1,0.4-0.1,0.6c0,0.4,0.2,0.7,0.9,0.7c0.7,0,1.7-1,2.4-1.6h0.6c-0.8,0.8-2.9,3.2-4.3,3.2
				c-1.4,0-2.2-0.6-2.2-2c0-0.3,0-0.6,0.1-0.9l2-9.4L146.5,15z"/>
		</g>
		<g>
			<path d="M44.5,8.9l1-4.7l-1.9,4.7h-1.4V4.7l-1.3,4.2h-0.8l2.2-6.8c-1,0.3-1.6,1.1-1.6,2.2c0,0.5,0.2,0.6,0.2,0.7
				c-0.7,0-1.1-0.2-1.1-1c0-1.2,1.7-2.5,3.2-2.5c0.2,0,0.5,0,0.7,0.1v5.7l2.2-5.7h1.6l-1.6,7.3H44.5z"/>
			<path d="M51,5.3c0.1,0.1,0.1,0.1,0.3,0.1c0.5,0,0.7-0.3,1-0.5v0.2C52,5.5,51.5,5.8,50.9,6c-0.2,2-1.3,3-2.3,3
				c-1.1,0-1.5-0.4-1.5-1.6c0-2.4,1.2-3.5,2.6-3.5C50.7,3.8,51,4.6,51,5.3z M50.2,6.1c-0.3,0-0.4-0.2-0.4-0.4c0-0.3,0.2-0.6,0.4-0.7
				c0-0.3-0.1-0.5-0.4-0.5c-0.9,0-1.3,2-1.3,2.8c0,0.6,0.3,0.8,0.7,0.8C49.8,8,50.1,7.1,50.2,6.1z"/>
			<path d="M55,8.9c-0.6,0-1-0.3-1-1.1c0-0.2,0-0.3,0.1-0.5l0.4-1.8c0-0.1,0-0.2,0-0.3c0-0.4-0.2-0.6-0.5-0.6
				c-0.2,0-0.4,0.1-0.6,0.2l-0.8,4h-1.4l1.1-5h1.4l-0.1,0.5C54,4,54.5,3.8,54.9,3.8c0.5,0,1.1,0.6,1.1,1.3c0,0.1,0,0.1,0,0.2
				c0,0.3-0.5,2.1-0.5,2.3c0,0.2,0.1,0.3,0.4,0.3c0.1,0,0.2,0,0.3,0C55.7,8.9,55.3,8.9,55,8.9z"/>
		</g>
	</g>
</g>
</svg>
