<?xml version="1.0" encoding="utf-8"?>
<!-- Generator: Adobe Illustrator 23.0.2, SVG Export Plug-In . SVG Version: 6.00 Build 0)  -->
<svg version="1.1" xmlns="http://www.w3.org/2000/svg" xmlns:xlink="http://www.w3.org/1999/xlink" x="0px" y="0px"
	 viewBox="0 0 108 33" style="enable-background:new 0 0 108 33;" xml:space="preserve">
<style type="text/css">
	.st0{display:none;}
	.st1{display:inline;}
</style>
<g id="Layer_1">
	<g>
		<g>
			<path d="M12.8,17.9l-2.6,12.1H7.5l2.7-12.4c-2.1,0-3.8,0.6-3.8,3.8c0,1,0.2,1.1,0.3,1.3c-1.3,0-2-0.5-2-1.8
				c0-2.5,1.8-4.9,6.4-4.9c0.8,0,3,0.3,4.8,0.3c0.9,0,1.7-0.1,2.2-0.3c-0.3,0.8-0.3,2.4-1.8,2.4C15.3,18.4,14.1,18.2,12.8,17.9z"/>
			<path d="M19,20.3v0.3c0,3.1,1.3,4,1.3,6.2c0,0.1,0,0.3,0,0.4c0.5-0.5,1-1,1.2-1.2l0.5,0.6c-0.5,0.4-1.3,1.1-2,1.7
				c-0.5,1-1.6,1.7-3.3,1.7c-2.2,0-3.2-0.6-3.2-2.5c0-1.5,0.7-2.4,1.4-2.4c0.7-1.2,1.1-2.9,1.4-4.3L19,20.3z M15.1,27.5
				c-0.2,0-0.5-0.1-0.7-0.2c0,1.1,0.6,1.6,1.6,1.6c0.6,0,1.6-0.8,1.6-2.2c0-1.2-0.8-2.2-0.9-4.5c-0.3,0.9-0.6,2.1-1,3.1
				c0.5,0.2,0.6,0.5,0.6,1.1C16.3,27,15.7,27.5,15.1,27.5z"/>
			<path d="M28.9,27.1c-0.1,0.2-0.1,0.4-0.1,0.6c0,0.4,0.2,0.7,0.9,0.7c0.8,0,1.7-1.1,2.5-1.7h0.6c-0.9,0.9-3,3.4-4.5,3.4
				c-1.5,0-2.3-0.6-2.3-2.1c0-0.3,0-0.6,0.1-1l0.7-3.4c0-0.2,0.1-0.3,0.1-0.5c0-0.7-0.4-1.1-0.9-1.1c-0.5,0-0.8,0.1-1.2,0.4
				l-1.6,7.6h-2.7l2.7-12.8l2.8-0.4l-1,4.8c0.8-0.5,1.6-1,2.4-1c1,0,2.2,1.1,2.2,2.4c0,0.2,0,0.3,0,0.5L28.9,27.1z"/>
			<path d="M35,20.7l-1.4,6.4c0,0.2-0.1,0.4-0.1,0.6c0,0.4,0.2,0.7,0.9,0.7c0.8,0,1.7-1.1,2.5-1.7h0.6c-0.9,0.9-3,3.4-4.5,3.4
				c-1.4,0-2.4-0.6-2.4-2.1c0-0.3,0-0.6,0.1-1l1.4-6.4H35z M34.1,16.7c0.8,0,1.5,0.7,1.5,1.5c0,0.8-0.7,1.5-1.5,1.5
				c-0.8,0-1.5-0.7-1.5-1.5C32.7,17.3,33.3,16.7,34.1,16.7z"/>
			<path d="M40.3,20.7L40,21.6c0.7-0.5,1.4-0.9,2.2-0.9c0.8,0,1.4,0.5,1.4,1.2c0,0.7-0.5,1.5-1.4,1.5c-1.1,0-0.5-1.2-1.1-1.2
				c-0.6,0-0.9,0.2-1.3,0.6l-1.6,7.4h-2.7l2-9.4H40.3z"/>
			<path d="M46.3,27.1c-0.1,0.2-0.1,0.5-0.1,0.7c0,0.4,0.2,0.7,0.7,0.7c0.1,0,0.3,0,0.5-0.1c-0.5,1.6-1.4,1.7-2,1.7
				c-1.3,0-1.9-0.9-1.9-2c0-0.3,0-0.6,0.1-1l1.2-5.6h-0.6l0.2-0.8H45l0.6-2.6l2.8-0.4c0,0-0.3,1.3-0.6,3h1.1l-0.2,0.8h-1.1
				L46.3,27.1z"/>
			<path d="M62.5,30.1l1.9-8.9l-3.6,8.9h-2.6v-8l-2.5,8h-1.5l4.2-12.9c-1.9,0.6-3,2.1-3,4.3c0,1,0.2,1.1,0.3,1.3c-1.3,0-2-0.5-2-1.8
				c0-2.3,3.2-4.8,6.1-4.8c0.4,0,0.9,0.1,1.3,0.2v10.8l4.1-10.8h3l-3,13.8H62.5z"/>
			<path d="M76.5,20.7l-1.4,6.4c0,0.2-0.1,0.4-0.1,0.6c0,0.4,0.2,0.7,0.9,0.7c0.8,0,1.7-1.1,2.5-1.7h0.6c-0.9,0.9-3,3.4-4.5,3.4
				c-1.2,0-2.1-0.5-2.3-1.4c-0.6,0.8-1.4,1.5-2.6,1.5c-1.8,0-2.3-1.3-2.3-2.4c0-3.2,1.2-7.1,4.9-7.1c0.5,0,0.9,0.2,1.3,0.5l0.1-0.5
				H76.5z M70,27.3c0,1.1,0.6,1.3,1.1,1.3c0.4,0,0.8-0.4,1.2-0.9c0-0.2,0.1-0.4,0.1-0.6l1.1-5c-0.3-0.3-0.7-0.3-0.9-0.3
				C71.1,21.7,70,24.7,70,27.3z"/>
			<path d="M86.3,20.7l-3.8,2.6c0.2,0,0.3-0.1,0.5-0.1c1,0,2.2,1.1,2.2,2.3c0,0.2,0,0.3-0.1,0.5l-0.3,1.1c-0.1,0.2-0.1,0.4-0.1,0.6
				c0,0.4,0.2,0.7,0.9,0.7c0.8,0,1.4-1.1,2.2-1.7h0.6c-0.9,0.9-2.7,3.4-4.1,3.4c-1.4,0-2.4-0.6-2.4-2c0-0.3,0-0.6,0.1-1l0.2-0.9
				c0-0.2,0.1-0.3,0.1-0.5c0-0.7-0.4-1.1-0.9-1.1c-0.5,0-0.8,0.2-1.2,0.4l-1.1,5.1h-2.7l2.7-12.8l2.8-0.4l-1.4,6.6
				c1.4-1.1,3.6-2.8,3.6-2.8H86.3z"/>
			<path d="M90.2,28.7c0.9,0,2.5-1.1,3.2-2.5h0.8c-1.1,1.9-2.9,3.8-5.3,3.8c-1.8,0-2.8-1.4-2.8-3c0-2.4,1-6.6,4.4-6.6
				c1.5,0,2.4,0.6,2.4,2c0,2.3-2.5,3.6-4.3,3.8c0,0.3-0.1,0.6-0.1,0.8C88.7,28.3,89.5,28.7,90.2,28.7z M91.2,21.5
				c-1.1,0-1.9,2.1-2.3,3.9c1.7,0,3-1.5,3-2.8C91.8,22.1,91.7,21.5,91.2,21.5z"/>
			<path d="M99.9,30.1c-1.2,0-1.9-0.6-1.9-2.1c0-0.3,0-0.6,0.1-1l0.7-3.4c0-0.2,0.1-0.3,0.1-0.5c0-0.7-0.4-1.1-0.9-1.1
				c-0.5,0-0.8,0.1-1.2,0.4l-1.6,7.6h-2.7l2-9.4h2.7l-0.2,1c0.8-0.6,1.6-1,2.5-1c1,0,2.2,1.1,2.2,2.4c0,0.2,0,0.3,0,0.4
				c-0.1,0.6-0.9,3.9-0.9,4.3c0,0.3,0.2,0.6,0.7,0.6c0.1,0,0.3,0,0.5-0.1C101.3,30,100.5,30.1,99.9,30.1z"/>
		</g>
		<g>
			<path d="M10.2,10.5l1-4.9l-2,4.9H7.8V6.1l-1.4,4.4H5.6L8,3.4c-1,0.3-1.7,1.1-1.7,2.3c0,0.5,0.1,0.6,0.1,0.7c-0.7,0-1.1-0.3-1.1-1
				c0-1.3,1.7-2.6,3.4-2.6c0.2,0,0.5,0,0.7,0.1v6l2.3-6h1.6l-1.6,7.6H10.2z"/>
			<path d="M14.2,10.5h-1.5l1.1-5.2h1.5L14.2,10.5z M17.9,5.4l-1,4.5c0.6-0.3,1.2-0.8,1.6-1.5l0,0.8c-0.1,0.7-0.8,1-1.6,1.2l-0.2,1
				c-0.3,1.5-1.2,1.8-1.9,1.8c-0.6,0-1.2-0.4-1.2-1.1c0-1,0.8-1.3,1.8-1.6l1.1-5.1H17.9z M14.8,3.2c0.5,0,0.8,0.4,0.8,0.8
				s-0.4,0.8-0.8,0.8C14.3,4.8,14,4.5,14,4S14.3,3.2,14.8,3.2z M14.5,12.2c0.2,0,0.5-0.2,0.6-0.8l0.1-0.6c-0.7,0.2-1.1,0.5-1.1,1.1
				C14.1,12,14.3,12.2,14.5,12.2z M17.3,3.2c0.5,0,0.8,0.4,0.8,0.8s-0.4,0.8-0.8,0.8S16.5,4.4,16.5,4S16.9,3.2,17.3,3.2z"/>
			<path d="M21.9,10.5c-0.7,0-1.1-0.4-1.1-1.1c0-0.2,0-0.3,0.1-0.5L21.3,7c0-0.1,0-0.2,0-0.3c0-0.4-0.2-0.6-0.5-0.6
				c-0.2,0-0.4,0.1-0.7,0.2l-0.9,4.2h-1.5l1.1-5.2h1.5l-0.1,0.6c0.4-0.3,0.9-0.6,1.4-0.6c0.6,0,1.2,0.6,1.2,1.3c0,0.1,0,0.2,0,0.2
				c-0.1,0.3-0.5,2.2-0.5,2.4c0,0.2,0.1,0.3,0.4,0.3c0.1,0,0.2,0,0.3,0C22.7,10.5,22.3,10.5,21.9,10.5z"/>
		</g>
	</g>
</g>
<g id="Layer_2" class="st0">
	<g class="st1">
		<g>
			<path d="M12.4,16.6L9.8,28.6H7.1l2.7-12.4C7.7,16.2,6,16.8,6,20c0,1,0.2,1.1,0.3,1.3c-1.3,0-2-0.5-2-1.8c0-2.5,1.8-4.9,6.4-4.9
				c0.8,0,3,0.3,4.8,0.3c0.9,0,1.6-0.1,2.2-0.3c-0.3,0.8-0.3,2.4-1.8,2.4C14.9,17,13.6,16.8,12.4,16.6z"/>
			<path d="M18.6,18.9v0.3c0,3.1,1.3,4,1.3,6.2c0,0.1,0,0.3,0,0.4c0.5-0.5,1-1,1.2-1.2l0.5,0.6c-0.5,0.4-1.3,1.1-2,1.7
				c-0.5,1-1.6,1.7-3.3,1.7C14,28.6,13,28,13,26.2c0-1.5,0.7-2.4,1.4-2.4c0.7-1.2,1.1-2.9,1.4-4.3L18.6,18.9z M14.6,26.1
				c-0.2,0-0.4-0.1-0.7-0.2c0,1.1,0.6,1.6,1.6,1.6c0.6,0,1.6-0.8,1.6-2.2c0-1.2-0.8-2.2-0.9-4.5c-0.3,0.9-0.6,2.1-1,3.1
				c0.4,0.1,0.6,0.5,0.6,1C15.9,25.6,15.3,26.1,14.6,26.1z"/>
			<path d="M28.4,25.6c-0.1,0.2-0.1,0.4-0.1,0.6c0,0.4,0.2,0.7,0.9,0.7c0.7,0,1.7-1,2.5-1.6h0.6c-0.9,0.9-3,3.4-4.4,3.4
				c-1.5,0-2.3-0.6-2.3-2c0-0.3,0-0.6,0.1-1l0.7-3.4c0-0.2,0.1-0.3,0.1-0.5c0-0.7-0.4-1.1-0.9-1.1c-0.4,0-0.8,0.1-1.2,0.4l-1.6,7.6
				h-2.7l2.7-12.7l2.8-0.4l-1,4.7c0.8-0.5,1.6-1,2.4-1c1,0,2.2,1.1,2.2,2.3c0,0.1,0,0.3,0,0.4L28.4,25.6z"/>
			<path d="M34.5,19.3l-1.3,6.4c0,0.2-0.1,0.4-0.1,0.6c0,0.4,0.2,0.7,0.9,0.7c0.7,0,1.7-1,2.5-1.6h0.6c-0.9,0.9-3,3.4-4.4,3.4
				c-1.4,0-2.3-0.6-2.3-2c0-0.3,0-0.6,0.1-1l1.3-6.4H34.5z M33.6,15.3c0.8,0,1.5,0.7,1.5,1.5c0,0.8-0.7,1.5-1.5,1.5
				c-0.8,0-1.5-0.7-1.5-1.5C32.1,16,32.8,15.3,33.6,15.3z"/>
			<path d="M39.7,19.3l-0.2,0.9c0.7-0.5,1.4-0.9,2.2-0.9c0.8,0,1.3,0.5,1.3,1.2c0,0.7-0.5,1.5-1.4,1.5c-1,0-0.5-1.2-1.1-1.2
				c-0.6,0-0.9,0.2-1.3,0.6l-1.6,7.3H35l2-9.4H39.7z"/>
			<path d="M45.8,25.6c-0.1,0.2-0.1,0.4-0.1,0.7c0,0.4,0.1,0.7,0.7,0.7c0.1,0,0.3,0,0.5-0.1c-0.5,1.6-1.3,1.7-2,1.7
				c-1.3,0-1.9-0.9-1.9-2c0-0.3,0-0.6,0.1-1l1.2-5.6h-0.6l0.1-0.7h0.6l0.6-2.6l2.8-0.4c0,0-0.3,1.3-0.6,3h1.1L48.1,20H47L45.8,25.6z
				"/>
			<path d="M62.7,20.8l-1.5,7c-0.6,2.9-1.7,4.7-4.8,4.7c-1.8,0-2.6-1.3-2.6-2.6c0-1.3,0.8-2.6,2.3-2.6c0.7,0,1.8,0.1,1.8,1.3
				c0,0.2,0,0.5-0.1,0.7c-0.5-0.4-0.7-0.5-1.1-0.5c-0.9,0-1.3,0.7-1.3,1.4c0,0.7,0.4,1.3,1.2,1.3c0.8,0,1.4-0.4,1.9-2.3l0.7-3.4
				c-1.1,0.6-2.1,0.7-2.3,0.7c-3.1,0-4-2.2-4-4.8c0-3.6,2.5-7.2,6.6-7.2c1.7,0,3.5,0.7,3.5,2.5c0,1-0.4,1.7-1.3,1.7
				c-0.3,0-0.9-0.1-1.3-0.5c0.5-0.1,0.8-1.1,0.8-1.5c0-0.3-0.1-1.3-1.3-1.3c-2.1,0-4.2,3.5-4.2,6.5c0,1.7,0.6,3.1,2.2,3.1
				c0.7,0,1.2-0.2,1.6-0.7l0.8-3.5H62.7z"/>
			<path d="M67,27.3c0.7,0,1.3-0.5,1.9-1.4c0.1-1.3,0.7-2.1,1.4-2.2c0.7-1.2,1.1-2.9,1.4-4.3l2.7-0.6v0.3c0,3.1,1.3,4,1.3,6.2
				c0,0.1,0,0.3,0,0.4c0.5-0.5,1-1,1.2-1.2l0.5,0.6c-0.5,0.4-1.3,1.1-2,1.7c-0.5,1-1.6,1.7-3.3,1.7c-1.8,0-2.8-0.4-3.1-1.6
				c-0.8,1-1.7,1.6-3.3,1.6c-1.8,0-2.8-1.4-2.8-3c0-2.4,1-6.6,4.4-6.6c1.5,0,2.4,0.6,2.4,1.9c0,2.3-2.5,3.6-4.2,3.8
				c0,0.3-0.1,0.6-0.1,0.8C65.4,26.9,66.2,27.3,67,27.3z M68,20.1c-1,0-1.9,2.1-2.3,3.9c1.7,0,2.9-1.5,3-2.8
				C68.6,20.7,68.5,20.1,68,20.1z M70.5,26.1c-0.2,0-0.4-0.1-0.7-0.2c0,1.1,0.6,1.6,1.6,1.6c0.6,0,1.6-0.8,1.6-2.2
				c0-1.2-0.8-2.2-0.9-4.5c-0.3,0.9-0.6,2.1-1,3.1c0.4,0.1,0.6,0.5,0.6,1C71.7,25.6,71.2,26.1,70.5,26.1z"/>
			<path d="M81.4,16.3c0,0-0.3,1.3-0.6,3h1.1L81.7,20h-1.1c-1.3,5.9-1.3,6.1-1.3,6.2c0,0.4,0.2,0.7,0.9,0.7c0.7,0,1.7-1,2.5-1.6h0.6
				c-0.9,0.9-3,3.4-4.4,3.4c-1.4,0-2.3-0.6-2.3-2c0-1,1-5,1.3-6.6h-0.6l0.2-0.7H78l0.6-2.6L81.4,16.3z"/>
			<path d="M90.7,19.3l-1.3,6.4c0,0.2-0.1,0.4-0.1,0.6c0,0.4,0.2,0.7,0.9,0.7c0.7,0,1.7-1,2.5-1.6h0.6c-0.9,0.9-3,3.4-4.4,3.4
				c-1.2,0-2-0.4-2.3-1.4c-0.6,0.8-1.4,1.5-2.5,1.5c-1.8,0-2.3-1.3-2.3-2.4c0-3.2,1.2-7.1,4.9-7.1c0.4,0,0.9,0.2,1.3,0.5l0.1-0.5
				H90.7z M84.3,25.9c0,1.1,0.6,1.3,1.1,1.3c0.4,0,0.8-0.4,1.2-0.9c0-0.2,0.1-0.4,0.1-0.6l1-5c-0.3-0.3-0.7-0.3-0.9-0.3
				C85.4,20.3,84.3,23.3,84.3,25.9z"/>
			<path d="M96.4,15.5l-2.2,10.1c-0.1,0.3-0.1,0.4-0.1,0.6c0,0.4,0.2,0.7,0.9,0.7c0.7,0,1.7-1,2.5-1.6h0.6c-0.9,0.9-3,3.4-4.4,3.4
				c-1.4,0-2.3-0.6-2.3-2c0-0.3,0-0.6,0.1-1l2.1-9.7L96.4,15.5z"/>
			<path d="M101.6,16.3c0,0-0.3,1.3-0.6,3h1.1L102,20h-1.1c-1.3,5.9-1.3,6.1-1.3,6.2c0,0.4,0.2,0.7,0.9,0.7c0.7,0,1.7-1,2.5-1.6h0.6
				c-0.9,0.9-3,3.4-4.4,3.4c-1.4,0-2.3-0.6-2.3-2c0-1,1-5,1.3-6.6h-0.6l0.2-0.7h0.6l0.6-2.6L101.6,16.3z"/>
			<path d="M106,27.3c0.9,0,2.5-1.1,3.1-2.5h0.8c-1.1,1.9-2.9,3.8-5.3,3.8c-1.8,0-2.8-1.4-2.8-3c0-2.4,1-6.6,4.4-6.6
				c1.5,0,2.4,0.6,2.4,1.9c0,2.3-2.5,3.6-4.2,3.8c0,0.3-0.1,0.6-0.1,0.8C104.4,26.9,105.2,27.3,106,27.3z M107,20.1
				c-1,0-1.9,2.1-2.3,3.9c1.7,0,2.9-1.5,3-2.8C107.6,20.7,107.5,20.1,107,20.1z"/>
			<path d="M115.6,28.6c-1.2,0-1.9-0.6-1.9-2c0-0.3,0-0.6,0.1-1l0.7-3.4c0-0.2,0.1-0.3,0.1-0.5c0-0.7-0.4-1.1-0.9-1.1
				c-0.4,0-0.8,0.1-1.2,0.4l-1.6,7.6h-2.7l2-9.4h2.7l-0.2,1c0.8-0.6,1.6-1,2.5-1c1,0,2.2,1.1,2.2,2.4c0,0.1,0,0.3,0,0.4
				c-0.1,0.6-0.9,3.9-0.9,4.3c0,0.3,0.2,0.6,0.7,0.6c0.1,0,0.3,0,0.5-0.1C117,28.5,116.2,28.6,115.6,28.6z"/>
		</g>
		<g>
			<path d="M9.8,9.2l1-4.9l-2,4.9H7.4V4.8L6.1,9.2H5.2l2.3-7.1c-1,0.3-1.7,1.1-1.7,2.3C5.9,5,6,5,6,5.1c-0.7,0-1.1-0.3-1.1-1
				c0-1.3,1.7-2.6,3.3-2.6c0.2,0,0.5,0,0.7,0.1v5.9l2.3-5.9h1.6l-1.6,7.6H9.8z"/>
			<path d="M14.7,8.4c0.5,0,1.4-0.6,1.7-1.4h0.5c-0.6,1.1-1.6,2.1-2.9,2.1c-1,0-1.5-0.8-1.5-1.6c0-1.3,0.6-3.6,2.4-3.6
				c0.8,0,1.3,0.4,1.3,1.1c0,1.3-1.3,2-2.3,2.1c0,0.2,0,0.3,0,0.4C13.9,8.2,14.3,8.4,14.7,8.4z M15.2,4.5c-0.6,0-1.1,1.2-1.3,2.1
				c0.9,0,1.6-0.8,1.6-1.6C15.6,4.8,15.5,4.5,15.2,4.5z"/>
			<path d="M18.6,4l-0.7,3.5c0,0.1,0,0.2,0,0.3c0,0.2,0.1,0.4,0.5,0.4c0.4,0,0.9-0.6,1.4-0.9H20c-0.5,0.5-1.6,1.8-2.4,1.8
				c-0.8,0-1.3-0.4-1.3-1.1c0-0.2,0-0.3,0.1-0.5L17.1,4H18.6z M18.1,1.9c0.5,0,0.8,0.4,0.8,0.8s-0.4,0.8-0.8,0.8s-0.8-0.4-0.8-0.8
				S17.7,1.9,18.1,1.9z"/>
			<path d="M22.9,9.2c-0.7,0-1.1-0.4-1.1-1.1c0-0.2,0-0.3,0.1-0.5l0.4-1.9c0-0.1,0-0.2,0-0.3c0-0.4-0.2-0.6-0.5-0.6
				c-0.2,0-0.4,0.1-0.6,0.2l-0.9,4.2h-1.5L19.9,4h1.5l-0.1,0.6C21.7,4.3,22.2,4,22.6,4c0.6,0,1.2,0.6,1.2,1.3c0,0.1,0,0.2,0,0.2
				c-0.1,0.3-0.5,2.2-0.5,2.4c0,0.2,0.1,0.3,0.4,0.3c0.1,0,0.2,0,0.3,0C23.7,9.1,23.2,9.2,22.9,9.2z"/>
		</g>
	</g>
</g>
<g id="Layer_4" class="st0">
	<g class="st1">
		<g>
			<path d="M13.8,26c-1,2.8-3.6,3.4-5.4,3.4c-2,0-4.2-1-4.2-4.9c0-4.2,1.4-9.6,6.5-9.6c1.8,0,3.3,0.7,3.3,2.6c0,1-0.4,1.8-1.3,1.8
				c-0.3,0-0.7-0.1-1.1-0.5c0.5-0.1,0.8-1.1,0.8-1.6c0-0.3-0.1-1.4-1.3-1.4c-2.4,0-3.9,4.9-3.9,8.3c0,2.5,0.5,3.6,2.5,3.6
				c1.5,0,2.9-0.6,3.6-1.8L13.8,26z"/>
			<path d="M22.4,19.7L21,26.2c0,0.2-0.1,0.4-0.1,0.6c0,0.4,0.2,0.7,1,0.7c0.8,0,1.8-1.1,2.5-1.7h0.7c-0.9,0.9-3,3.4-4.5,3.4
				c-1.3,0-2.2-0.5-2.4-1.6c-0.9,0.8-1.9,1.6-2.8,1.6c-1.5,0-2.4-0.7-2.4-2.1c0-0.3,0-0.6,0.1-1l1.4-6.5h2.8l-1.4,6.5
				c0,0.2-0.1,0.4-0.1,0.6c0,0.4,0.2,0.7,1,0.7c0.4,0,0.9-0.3,1.4-0.7c0-0.2,0.1-0.4,0.1-0.6l1.4-6.5H22.4z"/>
			<path d="M28.6,19.3v0.3c0,3.2,1.3,4.1,1.3,6.4c0,0.1,0,0.3,0,0.4c0.5-0.5,1-1,1.2-1.2l0.5,0.7c-0.5,0.4-1.3,1.1-2.1,1.7
				c-0.5,1.1-1.6,1.8-3.4,1.8c-2.2,0-3.3-0.6-3.3-2.5c0-1.5,0.7-2.4,1.5-2.5c0.7-1.2,1.1-2.9,1.5-4.4L28.6,19.3z M24.6,26.6
				c-0.2,0-0.5-0.1-0.7-0.2c0,1.1,0.6,1.6,1.6,1.6c0.7,0,1.6-0.8,1.6-2.3c0-1.2-0.9-2.2-0.9-4.6c-0.3,0.9-0.6,2.2-1,3.1
				c0.5,0.2,0.6,0.5,0.6,1.1C25.9,26.1,25.3,26.6,24.6,26.6z"/>
			<path d="M35.8,16.6c0,0-0.3,1.3-0.7,3h1.1l-0.2,0.8H35c-1.3,6.1-1.3,6.2-1.3,6.3c0,0.4,0.2,0.7,1,0.7s1.8-1.1,2.5-1.7h0.7
				c-0.9,0.9-3,3.4-4.5,3.4c-1.5,0-2.4-0.7-2.4-2.1c0-1,1-5.1,1.3-6.7h-0.6l0.2-0.8h0.6l0.6-2.6L35.8,16.6z"/>
			<path d="M43.5,22.3c0.1,0.1,0.3,0.2,0.6,0.2c0.9,0,1.3-0.7,2-0.9l0.1,0.4c-0.6,0.7-1.6,1.4-2.7,1.7c-0.4,3.8-2.5,5.7-4.4,5.7
				c-2,0-2.9-0.9-2.9-3.1c0-4.7,2.4-6.7,5-6.7C43,19.5,43.4,20.9,43.5,22.3z M42,23.8c-0.6,0-0.8-0.4-0.8-0.9c0-0.6,0.3-1.1,0.8-1.3
				c-0.1-0.6-0.3-1-0.8-1c-1.8,0-2.6,3.9-2.6,5.4c0,1.1,0.5,1.5,1.3,1.5C41.1,27.5,41.7,25.7,42,23.8z"/>
			<path d="M55.6,29.2c-1.2,0-2-0.7-2-2.1c0-0.3,0-0.6,0.1-1l0.7-3.4c0-0.2,0.1-0.3,0.1-0.5c0-0.7-0.4-1.1-0.9-1.1
				c-0.4,0-0.7,0.1-1.1,0.3c0.1,0.2,0.1,0.5,0.1,0.7c0,0.1,0,0.3,0,0.4l-1.4,6.7h-2.8l1.4-6.5c0-0.2,0.1-0.3,0.1-0.5
				c0-0.7-0.4-1.1-0.9-1.1c-0.5,0-0.8,0.1-1.2,0.4l-1.6,7.7h-2.8l2-9.6h2.8l-0.2,1c0.8-0.6,1.6-1,2.5-1c0.7,0,1.5,0.5,1.9,1.2
				c0.9-0.7,1.8-1.2,2.8-1.2c1.1,0,2.2,1.1,2.2,2.4c0,0.2,0,0.3,0,0.4c-0.1,0.6-0.9,4-0.9,4.4c0,0.3,0.2,0.6,0.7,0.6
				c0.1,0,0.3,0,0.5-0.1C57,29.1,56.2,29.2,55.6,29.2z"/>
			<path d="M70.3,16.9l-2.6,12.3h-2.8l2.7-12.7c-2.1,0-3.8,0.6-3.8,3.8c0,1,0.2,1.1,0.3,1.3c-1.3,0-2-0.5-2-1.9c0-2.5,1.8-5,6.5-5
				c0.8,0,3,0.3,4.9,0.3c0.9,0,1.7-0.1,2.2-0.3c-0.3,0.8-0.3,2.5-1.8,2.5C72.8,17.4,71.6,17.1,70.3,16.9z"/>
			<path d="M76.6,19.3v0.3c0,3.2,1.3,4.1,1.3,6.4c0,0.1,0,0.3,0,0.4c0.5-0.5,1-1,1.2-1.2l0.5,0.7c-0.5,0.4-1.3,1.1-2.1,1.7
				c-0.5,1.1-1.6,1.8-3.4,1.8c-2.2,0-3.3-0.6-3.3-2.5c0-1.5,0.7-2.4,1.5-2.5c0.7-1.2,1.1-2.9,1.5-4.4L76.6,19.3z M72.6,26.6
				c-0.2,0-0.5-0.1-0.7-0.2c0,1.1,0.6,1.6,1.6,1.6c0.7,0,1.6-0.8,1.6-2.3c0-1.2-0.9-2.2-0.9-4.6c-0.3,0.9-0.6,2.2-1,3.1
				c0.5,0.2,0.6,0.5,0.6,1.1C73.8,26.1,73.3,26.6,72.6,26.6z"/>
			<path d="M86.6,26.2c-0.1,0.2-0.1,0.4-0.1,0.6c0,0.4,0.2,0.7,1,0.7c0.8,0,1.8-1.1,2.5-1.7h0.7c-0.9,0.9-3,3.4-4.5,3.4
				s-2.4-0.7-2.4-2.1c0-0.3,0-0.6,0.1-1l0.7-3.4c0-0.2,0.1-0.3,0.1-0.5c0-0.7-0.4-1.1-0.9-1.1c-0.5,0-0.8,0.1-1.2,0.4L81,29.2h-2.8
				l2.8-13l2.8-0.4l-1,4.8c0.8-0.6,1.7-1,2.5-1c1,0,2.2,1.1,2.2,2.4c0,0.2,0,0.3,0,0.5L86.6,26.2z"/>
			<path d="M92.9,19.7l-1.4,6.5c0,0.2-0.1,0.4-0.1,0.6c0,0.4,0.2,0.7,1,0.7c0.8,0,1.8-1.1,2.5-1.7h0.7c-0.9,0.9-3,3.4-4.5,3.4
				c-1.5,0-2.4-0.7-2.4-2.1c0-0.3,0-0.6,0.1-1l1.4-6.5H92.9z M92,15.6c0.8,0,1.5,0.7,1.5,1.5c0,0.8-0.7,1.5-1.5,1.5
				s-1.5-0.7-1.5-1.5C90.5,16.3,91.2,15.6,92,15.6z"/>
			<path d="M98.2,19.7l-0.2,1c0.7-0.5,1.5-1,2.3-1c0.9,0,1.4,0.5,1.4,1.2c0,0.7-0.5,1.5-1.4,1.5c-1.1,0-0.5-1.3-1.1-1.3
				c-0.6,0-0.9,0.2-1.3,0.6l-1.6,7.5h-2.8l2-9.6H98.2z"/>
			<path d="M104.4,26.2c-0.1,0.2-0.1,0.5-0.1,0.7c0,0.4,0.2,0.7,0.7,0.7c0.1,0,0.3,0,0.5-0.1c-0.5,1.6-1.4,1.8-2,1.8
				c-1.3,0-1.9-0.9-1.9-2.1c0-0.3,0-0.7,0.1-1l1.2-5.7h-0.6l0.2-0.8h0.6l0.6-2.6l2.8-0.4c0,0-0.3,1.3-0.7,3h1.1l-0.2,0.8h-1.1
				L104.4,26.2z"/>
		</g>
		<g>
			<path d="M9.6,9.4l1.1-5l-2,5H7.2V4.9L5.8,9.4H4.9l2.4-7.2C6.2,2.5,5.6,3.3,5.6,4.5c0,0.5,0.1,0.6,0.1,0.7C5,5.2,4.6,5,4.6,4.2
				c0-1.3,1.8-2.7,3.4-2.7c0.2,0,0.5,0,0.7,0.1v6.1l2.3-6.1h1.7l-1.7,7.8H9.6z"/>
			<path d="M14.7,4.1l-0.8,3.6c0,0.1-0.1,0.2-0.1,0.3c0,0.2,0.1,0.4,0.5,0.4c0.2,0,0.5-0.2,0.8-0.4L16,4.1h1.5l-1.3,6.1
				C16,11.7,15,12,14.4,12c-0.6,0-1.2-0.5-1.2-1.1c0-1,0.8-1.3,1.8-1.6l0.2-0.7c-0.5,0.4-1,0.8-1.4,0.8c-0.8,0-1.3-0.4-1.3-1.1
				c0-0.2,0-0.3,0.1-0.5l0.7-3.6H14.7z M14.1,11.1c0.2,0,0.5-0.2,0.6-0.8l0.1-0.6c-0.7,0.2-1.2,0.5-1.2,1.1
				C13.7,10.9,13.9,11.1,14.1,11.1z"/>
		</g>
	</g>
</g>
<g id="Layer_3" class="st0">
	<g class="st1">
		<g>
			<path d="M12.1,16L9.6,27.7H7l2.6-12c-2,0-3.6,0.6-3.6,3.6c0,0.9,0.2,1.1,0.3,1.2c-1.2,0-1.9-0.5-1.9-1.8c0-2.4,1.7-4.7,6.2-4.7
				c0.7,0,2.9,0.3,4.6,0.3c0.8,0,1.6-0.1,2.1-0.3c-0.3,0.8-0.3,2.3-1.7,2.3C14.5,16.5,13.3,16.3,12.1,16z"/>
			<path d="M18.1,18.3v0.3c0,3,1.2,3.9,1.2,6c0,0.1,0,0.3,0,0.4c0.5-0.5,1-0.9,1.2-1.2l0.5,0.6c-0.5,0.4-1.2,1-2,1.6
				c-0.5,1-1.5,1.7-3.2,1.7c-2.1,0-3.1-0.6-3.1-2.4c0-1.4,0.7-2.3,1.4-2.3c0.7-1.2,1.1-2.8,1.4-4.2L18.1,18.3z M14.3,25.2
				c-0.2,0-0.4-0.1-0.7-0.2c0,1.1,0.6,1.5,1.5,1.5c0.6,0,1.5-0.8,1.5-2.2c0-1.1-0.8-2.1-0.8-4.3c-0.3,0.9-0.5,2-0.9,2.9
				c0.4,0.1,0.6,0.5,0.6,1C15.5,24.8,14.9,25.2,14.3,25.2z"/>
			<path d="M27.5,24.8c-0.1,0.2-0.1,0.4-0.1,0.6c0,0.4,0.2,0.7,0.9,0.7c0.7,0,1.7-1,2.4-1.6h0.6c-0.8,0.8-2.9,3.2-4.3,3.2
				c-1.4,0-2.2-0.6-2.2-2c0-0.3,0-0.6,0.1-0.9l0.7-3.3c0-0.2,0.1-0.3,0.1-0.5c0-0.7-0.3-1.1-0.8-1.1c-0.4,0-0.8,0.1-1.1,0.4
				l-1.6,7.3h-2.6l2.6-12.3l2.7-0.4l-1,4.6c0.7-0.5,1.6-1,2.4-1c1,0,2.1,1,2.1,2.3c0,0.1,0,0.3,0,0.4L27.5,24.8z"/>
			<path d="M33.4,18.6l-1.3,6.1c0,0.2-0.1,0.4-0.1,0.6c0,0.4,0.2,0.7,0.9,0.7s1.7-1,2.4-1.6H36c-0.8,0.8-2.9,3.2-4.3,3.2
				c-1.4,0-2.3-0.6-2.3-2c0-0.3,0-0.6,0.1-0.9l1.3-6.1H33.4z M32.6,14.8c0.8,0,1.4,0.7,1.4,1.4c0,0.8-0.7,1.4-1.4,1.4
				c-0.8,0-1.4-0.6-1.4-1.4C31.2,15.5,31.8,14.8,32.6,14.8z"/>
			<path d="M38.5,18.6l-0.2,0.9c0.7-0.5,1.4-0.9,2.1-0.9c0.8,0,1.3,0.5,1.3,1.2c0,0.6-0.5,1.4-1.4,1.4c-1,0-0.5-1.2-1-1.2
				s-0.8,0.2-1.2,0.6l-1.5,7.1H34l1.9-9H38.5z"/>
			<path d="M44.3,24.8c-0.1,0.2-0.1,0.4-0.1,0.6c0,0.4,0.1,0.7,0.6,0.7c0.1,0,0.3,0,0.5-0.1c-0.5,1.6-1.3,1.7-1.9,1.7
				c-1.3,0-1.8-0.8-1.8-2c0-0.3,0-0.6,0.1-0.9l1.2-5.4h-0.6l0.1-0.7H43l0.5-2.5l2.7-0.4c0,0-0.3,1.2-0.6,2.9h1.1l-0.1,0.7h-1.1
				L44.3,24.8z"/>
			<path d="M57.6,15.8l-1.3,6c1.8-0.1,3.2-2.5,3.2-4.4c0-1.3-0.7-2.5-2.2-2.5c-2.9,0-4.7,1.6-4.7,4.4c0,0.9,0.2,1.1,0.3,1.2
				c-1.2,0-1.9-0.5-1.9-1.8c0-2.4,3.3-4.7,6.3-4.7c3,0,4.3,1.7,4.3,3.6c0,2.3-2,4.8-5.2,4.8h-0.1l-1.1,5.2h-2.6l2.5-11.5L57.6,15.8z
				"/>
			<path d="M64.7,26.4c0.9,0,2.4-1,3-2.4h0.8c-1,1.9-2.8,3.7-5.1,3.7c-1.7,0-2.7-1.3-2.7-2.9c0-2.3,1-6.3,4.3-6.3
				c1.5,0,2.3,0.6,2.3,1.9c0,2.2-2.4,3.5-4.1,3.7c0,0.3-0.1,0.6-0.1,0.8C63.2,26,64,26.4,64.7,26.4z M65.7,19.4c-1,0-1.8,2-2.2,3.7
				c1.7,0,2.8-1.4,2.9-2.7C66.3,20.1,66.2,19.4,65.7,19.4z"/>
			<path d="M71.5,18.6l-0.2,0.9c0.7-0.5,1.4-0.9,2.1-0.9c0.8,0,1.3,0.5,1.3,1.2c0,0.6-0.5,1.4-1.4,1.4c-1,0-0.5-1.2-1-1.2
				c-0.5,0-0.8,0.2-1.2,0.6l-1.5,7.1H67l1.9-9H71.5z"/>
			<path d="M78.7,18.3v0.3c0,3,1.2,3.9,1.2,6c0,0.1,0,0.3,0,0.4c0.5-0.5,1-0.9,1.2-1.2l0.5,0.6c-0.5,0.4-1.2,1-2,1.6
				c-0.5,1-1.5,1.7-3.2,1.7c-2.1,0-3.1-0.6-3.1-2.4c0-1.4,0.7-2.3,1.4-2.3c0.7-1.2,1.1-2.8,1.4-4.2L78.7,18.3z M74.9,25.2
				c-0.2,0-0.4-0.1-0.7-0.2c0,1.1,0.6,1.5,1.5,1.5c0.6,0,1.5-0.8,1.5-2.2c0-1.1-0.8-2.1-0.9-4.3c-0.3,0.9-0.5,2-0.9,2.9
				c0.4,0.1,0.6,0.5,0.6,1C76,24.8,75.5,25.2,74.9,25.2z"/>
			<path d="M87.7,21.1c0.1,0.1,0.3,0.2,0.5,0.2c0.8,0,1.2-0.6,1.9-0.9l0.1,0.4c-0.6,0.7-1.5,1.3-2.5,1.6c-0.3,3.6-2.3,5.4-4.1,5.4
				c-1.9,0-2.8-0.8-2.8-3c0-4.4,2.3-6.4,4.8-6.4C87.3,18.5,87.7,19.8,87.7,21.1z M86.4,22.6c-0.5,0-0.8-0.4-0.8-0.8
				c0-0.5,0.3-1.1,0.8-1.3c-0.1-0.6-0.3-0.9-0.8-0.9c-1.7,0-2.4,3.7-2.4,5.1c0,1.1,0.5,1.4,1.2,1.4C85.5,26,86.1,24.3,86.4,22.6z"/>
			<path d="M95.9,24.8c-0.1,0.2-0.1,0.4-0.1,0.6c0,0.4,0.2,0.7,0.9,0.7c0.7,0,1-0.6,1.7-1.1h0.6c-0.8,0.8-2.2,2.8-3.6,2.8
				c-1.4,0-2.2-0.6-2.2-2c0-0.3,0-0.6,0.1-0.9l0.7-3.3c0-0.2,0.1-0.3,0.1-0.5c0-0.7-0.3-1.1-0.8-1.1c-0.4,0-0.8,0.1-1.1,0.4
				l-1.5,7.3h-2.6l1.9-9h2.6l-0.2,1c0.7-0.5,1.6-1,2.4-1c1,0,2.1,1,2.1,2.3c0,0.1,0,0.3,0,0.4L95.9,24.8z"/>
			<path d="M106.2,18.6l-1.3,6.1c0,0.2-0.1,0.4-0.1,0.6c0,0.4,0.2,0.7,0.9,0.7c0.7,0,1.7-1,2.4-1.6h0.6c-0.8,0.8-2.9,3.2-4.3,3.2
				c-1.2,0-2-0.4-2.2-1.4c-0.5,0.7-1.4,1.5-2.5,1.5c-1.7,0-2.2-1.2-2.2-2.3c0-3.1,1.1-6.8,4.7-6.8c0.4,0,0.9,0.2,1.2,0.5l0.1-0.5
				H106.2z M100,25c0,1.1,0.6,1.3,1,1.3c0.4,0,0.8-0.4,1.2-0.9c0-0.2,0.1-0.4,0.1-0.6l1-4.8c-0.3-0.3-0.6-0.3-0.9-0.3
				C101.1,19.7,100,22.6,100,25z"/>
			<path d="M111.6,15l-2.1,9.8c-0.1,0.3-0.1,0.4-0.1,0.6c0,0.4,0.2,0.7,0.9,0.7c0.7,0,1.7-1,2.4-1.6h0.6c-0.8,0.8-2.9,3.2-4.3,3.2
				c-1.4,0-2.2-0.6-2.2-2c0-0.3,0-0.6,0.1-0.9l2-9.4L111.6,15z"/>
			<path d="M116,18.6l-1.3,6.1c-0.1,0.3-0.1,0.7-0.1,0.9c0,0.3,0.1,0.5,0.5,0.5c0.3,0,0.7-0.4,1-0.9c0-1.5,0.7-2.3,1.4-2.4
				c0.7-1.2,1.1-2.8,1.4-4.2l2.6-0.5v0.3c0,3,1.2,3.9,1.2,6l0,0.4c0.5-0.5,1-0.9,1.2-1.2l0.5,0.6c-0.5,0.4-1.2,1-2,1.6
				c-0.5,1-1.5,1.7-3.2,1.7c-1.7,0-2.7-0.4-3-1.4c-0.6,0.8-1.3,1.4-1.9,1.4c-1.4,0-2.2-0.6-2.2-2c0-0.3,0-0.6,0.1-0.9l1.3-6.1H116z
				 M115.1,14.8c0.8,0,1.4,0.7,1.4,1.4c0,0.8-0.7,1.4-1.4,1.4c-0.8,0-1.4-0.6-1.4-1.4C113.7,15.5,114.4,14.8,115.1,14.8z
				 M117.6,25.2c-0.2,0-0.4,0-0.7-0.1c0,1.1,0.6,1.5,1.5,1.5c0.6,0,1.5-0.8,1.5-2.2c0-1.1-0.8-2.1-0.8-4.3c-0.3,0.9-0.5,2-0.9,2.9
				c0.4,0.1,0.6,0.5,0.6,1C118.8,24.8,118.2,25.2,117.6,25.2z"/>
			<path d="M123,24.8c0-2.3,1-6.3,4.3-6.3c1.5,0,2.3,0.6,2.3,1.9c0,2.2-2.4,3.5-4.1,3.7c0,0.3-0.1,0.6-0.1,0.8
				c0,1.2,0.6,1.6,1.3,1.6c0.9,0,1.6-0.5,2.3-1.2c0,2-1.6,2.5-3.4,2.5C123.9,27.7,123,26.4,123,24.8z M127.8,19.4
				c-1,0-1.8,2-2.2,3.7c1.7,0,2.8-1.4,2.9-2.7C128.5,20.1,128.4,19.4,127.8,19.4z"/>
		</g>
		<g>
			<path d="M9.6,8.9l1-4.7L8.7,8.9H7.3V4.7L6,8.9H5.2l2.2-6.8c-1,0.3-1.6,1.1-1.6,2.2C5.8,4.8,6,4.9,6,5C5.3,5,4.9,4.8,4.9,4
				c0-1.2,1.7-2.5,3.2-2.5c0.2,0,0.5,0,0.7,0.1v5.7L11,1.6h1.6L11,8.9H9.6z"/>
			<path d="M16.1,5.3c0.1,0.1,0.1,0.1,0.3,0.1c0.5,0,0.7-0.3,1-0.5l0,0.2c-0.3,0.4-0.8,0.7-1.4,0.9c-0.2,2-1.3,3-2.3,3
				c-1.1,0-1.5-0.4-1.5-1.6c0-2.4,1.2-3.5,2.6-3.5C15.8,3.8,16.1,4.6,16.1,5.3z M15.3,6.1c-0.3,0-0.4-0.2-0.4-0.4
				c0-0.3,0.2-0.6,0.4-0.7c0-0.3-0.1-0.5-0.4-0.5c-0.9,0-1.3,2-1.3,2.8c0,0.6,0.3,0.8,0.7,0.8C14.9,8,15.2,7.1,15.3,6.1z"/>
			<path d="M20.1,8.9c-0.6,0-1-0.3-1-1.1c0-0.2,0-0.3,0.1-0.5l0.4-1.8c0-0.1,0-0.2,0-0.3c0-0.4-0.2-0.6-0.5-0.6
				c-0.2,0-0.4,0.1-0.6,0.2l-0.8,4h-1.4l1.1-5h1.4l-0.1,0.5c0.4-0.3,0.9-0.5,1.3-0.5c0.5,0,1.1,0.6,1.1,1.3c0,0.1,0,0.1,0,0.2
				c0,0.3-0.5,2.1-0.5,2.3c0,0.2,0.1,0.3,0.4,0.3c0.1,0,0.2,0,0.3,0C20.8,8.9,20.4,8.9,20.1,8.9z"/>
		</g>
	</g>
</g>
</svg>
