<?xml version="1.0" encoding="utf-8"?>
<!-- Generator: Adobe Illustrator 23.0.2, SVG Export Plug-In . SVG Version: 6.00 Build 0)  -->
<svg version="1.1" id="Layer_3" xmlns="http://www.w3.org/2000/svg" xmlns:xlink="http://www.w3.org/1999/xlink" x="0px" y="0px"
	 viewBox="0 0 134 33" style="enable-background:new 0 0 134 33;" xml:space="preserve">
<g>
	<g>
		<path d="M12.1,16L9.6,27.7H7l2.6-12c-2,0-3.6,0.6-3.6,3.6c0,0.9,0.2,1.1,0.3,1.2c-1.2,0-1.9-0.5-1.9-1.8c0-2.4,1.7-4.7,6.2-4.7
			c0.7,0,2.9,0.3,4.6,0.3c0.8,0,1.6-0.1,2.1-0.3c-0.3,0.8-0.3,2.3-1.7,2.3C14.5,16.5,13.3,16.3,12.1,16z"/>
		<path d="M18.1,18.3v0.3c0,3,1.2,3.9,1.2,6c0,0.1,0,0.3,0,0.4c0.5-0.5,1-0.9,1.2-1.2l0.5,0.6c-0.5,0.4-1.2,1-2,1.6
			c-0.5,1-1.5,1.7-3.2,1.7c-2.1,0-3.1-0.6-3.1-2.4c0-1.4,0.7-2.3,1.4-2.3c0.7-1.2,1.1-2.8,1.4-4.2L18.1,18.3z M14.3,25.2
			c-0.2,0-0.4-0.1-0.7-0.2c0,1.1,0.6,1.5,1.5,1.5c0.6,0,1.5-0.8,1.5-2.2c0-1.1-0.8-2.1-0.8-4.3c-0.3,0.9-0.5,2-0.9,2.9
			c0.4,0.1,0.6,0.5,0.6,1C15.5,24.8,14.9,25.2,14.3,25.2z"/>
		<path d="M27.5,24.8c-0.1,0.2-0.1,0.4-0.1,0.6c0,0.4,0.2,0.7,0.9,0.7c0.7,0,1.7-1,2.4-1.6h0.6c-0.8,0.8-2.9,3.2-4.3,3.2
			c-1.4,0-2.2-0.6-2.2-2c0-0.3,0-0.6,0.1-0.9l0.7-3.3c0-0.2,0.1-0.3,0.1-0.5c0-0.7-0.3-1.1-0.8-1.1c-0.4,0-0.8,0.1-1.1,0.4l-1.6,7.3
			h-2.6l2.6-12.3l2.7-0.4l-1,4.6c0.7-0.5,1.6-1,2.4-1c1,0,2.1,1,2.1,2.3c0,0.1,0,0.3,0,0.4L27.5,24.8z"/>
		<path d="M33.4,18.6l-1.3,6.1c0,0.2-0.1,0.4-0.1,0.6c0,0.4,0.2,0.7,0.9,0.7s1.7-1,2.4-1.6H36c-0.8,0.8-2.9,3.2-4.3,3.2
			c-1.4,0-2.3-0.6-2.3-2c0-0.3,0-0.6,0.1-0.9l1.3-6.1H33.4z M32.6,14.8c0.8,0,1.4,0.7,1.4,1.4c0,0.8-0.7,1.4-1.4,1.4
			c-0.8,0-1.4-0.6-1.4-1.4C31.2,15.5,31.8,14.8,32.6,14.8z"/>
		<path d="M38.5,18.6l-0.2,0.9c0.7-0.5,1.4-0.9,2.1-0.9c0.8,0,1.3,0.5,1.3,1.2c0,0.6-0.5,1.4-1.4,1.4c-1,0-0.5-1.2-1-1.2
			s-0.8,0.2-1.2,0.6l-1.5,7.1H34l1.9-9H38.5z"/>
		<path d="M44.3,24.8c-0.1,0.2-0.1,0.4-0.1,0.6c0,0.4,0.1,0.7,0.6,0.7c0.1,0,0.3,0,0.5-0.1c-0.5,1.6-1.3,1.7-1.9,1.7
			c-1.3,0-1.8-0.8-1.8-2c0-0.3,0-0.6,0.1-0.9l1.2-5.4h-0.6l0.1-0.7H43l0.5-2.5l2.7-0.4c0,0-0.3,1.2-0.6,2.9h1.1l-0.1,0.7h-1.1
			L44.3,24.8z"/>
		<path d="M57.6,15.8l-1.3,6c1.8-0.1,3.2-2.5,3.2-4.4c0-1.3-0.7-2.5-2.2-2.5c-2.9,0-4.7,1.6-4.7,4.4c0,0.9,0.2,1.1,0.3,1.2
			c-1.2,0-1.9-0.5-1.9-1.8c0-2.4,3.3-4.7,6.3-4.7c3,0,4.3,1.7,4.3,3.6c0,2.3-2,4.8-5.2,4.8h-0.1l-1.1,5.2h-2.6l2.5-11.5L57.6,15.8z"
			/>
		<path d="M64.7,26.4c0.9,0,2.4-1,3-2.4h0.8c-1,1.9-2.8,3.7-5.1,3.7c-1.7,0-2.7-1.3-2.7-2.9c0-2.3,1-6.3,4.3-6.3
			c1.5,0,2.3,0.6,2.3,1.9c0,2.2-2.4,3.5-4.1,3.7c0,0.3-0.1,0.6-0.1,0.8C63.2,26,64,26.4,64.7,26.4z M65.7,19.4c-1,0-1.8,2-2.2,3.7
			c1.7,0,2.8-1.4,2.9-2.7C66.3,20.1,66.2,19.4,65.7,19.4z"/>
		<path d="M71.5,18.6l-0.2,0.9c0.7-0.5,1.4-0.9,2.1-0.9c0.8,0,1.3,0.5,1.3,1.2c0,0.6-0.5,1.4-1.4,1.4c-1,0-0.5-1.2-1-1.2
			c-0.5,0-0.8,0.2-1.2,0.6l-1.5,7.1H67l1.9-9H71.5z"/>
		<path d="M78.7,18.3v0.3c0,3,1.2,3.9,1.2,6c0,0.1,0,0.3,0,0.4c0.5-0.5,1-0.9,1.2-1.2l0.5,0.6c-0.5,0.4-1.2,1-2,1.6
			c-0.5,1-1.5,1.7-3.2,1.7c-2.1,0-3.1-0.6-3.1-2.4c0-1.4,0.7-2.3,1.4-2.3c0.7-1.2,1.1-2.8,1.4-4.2L78.7,18.3z M74.9,25.2
			c-0.2,0-0.4-0.1-0.7-0.2c0,1.1,0.6,1.5,1.5,1.5c0.6,0,1.5-0.8,1.5-2.2c0-1.1-0.8-2.1-0.9-4.3c-0.3,0.9-0.5,2-0.9,2.9
			c0.4,0.1,0.6,0.5,0.6,1C76,24.8,75.5,25.2,74.9,25.2z"/>
		<path d="M87.7,21.1c0.1,0.1,0.3,0.2,0.5,0.2c0.8,0,1.2-0.6,1.9-0.9l0.1,0.4c-0.6,0.7-1.5,1.3-2.5,1.6c-0.3,3.6-2.3,5.4-4.1,5.4
			c-1.9,0-2.8-0.8-2.8-3c0-4.4,2.3-6.4,4.8-6.4C87.3,18.5,87.7,19.8,87.7,21.1z M86.4,22.6c-0.5,0-0.8-0.4-0.8-0.8
			c0-0.5,0.3-1.1,0.8-1.3c-0.1-0.6-0.3-0.9-0.8-0.9c-1.7,0-2.4,3.7-2.4,5.1c0,1.1,0.5,1.4,1.2,1.4C85.5,26,86.1,24.3,86.4,22.6z"/>
		<path d="M95.9,24.8c-0.1,0.2-0.1,0.4-0.1,0.6c0,0.4,0.2,0.7,0.9,0.7c0.7,0,1-0.6,1.7-1.1h0.6c-0.8,0.8-2.2,2.8-3.6,2.8
			c-1.4,0-2.2-0.6-2.2-2c0-0.3,0-0.6,0.1-0.9l0.7-3.3c0-0.2,0.1-0.3,0.1-0.5c0-0.7-0.3-1.1-0.8-1.1c-0.4,0-0.8,0.1-1.1,0.4l-1.5,7.3
			h-2.6l1.9-9h2.6l-0.2,1c0.7-0.5,1.6-1,2.4-1c1,0,2.1,1,2.1,2.3c0,0.1,0,0.3,0,0.4L95.9,24.8z"/>
		<path d="M106.2,18.6l-1.3,6.1c0,0.2-0.1,0.4-0.1,0.6c0,0.4,0.2,0.7,0.9,0.7c0.7,0,1.7-1,2.4-1.6h0.6c-0.8,0.8-2.9,3.2-4.3,3.2
			c-1.2,0-2-0.4-2.2-1.4c-0.5,0.7-1.4,1.5-2.5,1.5c-1.7,0-2.2-1.2-2.2-2.3c0-3.1,1.1-6.8,4.7-6.8c0.4,0,0.9,0.2,1.2,0.5l0.1-0.5
			H106.2z M100,25c0,1.1,0.6,1.3,1,1.3c0.4,0,0.8-0.4,1.2-0.9c0-0.2,0.1-0.4,0.1-0.6l1-4.8c-0.3-0.3-0.6-0.3-0.9-0.3
			C101.1,19.7,100,22.6,100,25z"/>
		<path d="M111.6,15l-2.1,9.8c-0.1,0.3-0.1,0.4-0.1,0.6c0,0.4,0.2,0.7,0.9,0.7c0.7,0,1.7-1,2.4-1.6h0.6c-0.8,0.8-2.9,3.2-4.3,3.2
			c-1.4,0-2.2-0.6-2.2-2c0-0.3,0-0.6,0.1-0.9l2-9.4L111.6,15z"/>
		<path d="M116,18.6l-1.3,6.1c-0.1,0.3-0.1,0.7-0.1,0.9c0,0.3,0.1,0.5,0.5,0.5c0.3,0,0.7-0.4,1-0.9c0-1.5,0.7-2.3,1.4-2.4
			c0.7-1.2,1.1-2.8,1.4-4.2l2.6-0.5v0.3c0,3,1.2,3.9,1.2,6l0,0.4c0.5-0.5,1-0.9,1.2-1.2l0.5,0.6c-0.5,0.4-1.2,1-2,1.6
			c-0.5,1-1.5,1.7-3.2,1.7c-1.7,0-2.7-0.4-3-1.4c-0.6,0.8-1.3,1.4-1.9,1.4c-1.4,0-2.2-0.6-2.2-2c0-0.3,0-0.6,0.1-0.9l1.3-6.1H116z
			 M115.1,14.8c0.8,0,1.4,0.7,1.4,1.4c0,0.8-0.7,1.4-1.4,1.4c-0.8,0-1.4-0.6-1.4-1.4C113.7,15.5,114.4,14.8,115.1,14.8z M117.6,25.2
			c-0.2,0-0.4,0-0.7-0.1c0,1.1,0.6,1.5,1.5,1.5c0.6,0,1.5-0.8,1.5-2.2c0-1.1-0.8-2.1-0.8-4.3c-0.3,0.9-0.5,2-0.9,2.9
			c0.4,0.1,0.6,0.5,0.6,1C118.8,24.8,118.2,25.2,117.6,25.2z"/>
		<path d="M123,24.8c0-2.3,1-6.3,4.3-6.3c1.5,0,2.3,0.6,2.3,1.9c0,2.2-2.4,3.5-4.1,3.7c0,0.3-0.1,0.6-0.1,0.8c0,1.2,0.6,1.6,1.3,1.6
			c0.9,0,1.6-0.5,2.3-1.2c0,2-1.6,2.5-3.4,2.5C123.9,27.7,123,26.4,123,24.8z M127.8,19.4c-1,0-1.8,2-2.2,3.7c1.7,0,2.8-1.4,2.9-2.7
			C128.5,20.1,128.4,19.4,127.8,19.4z"/>
	</g>
	<g>
		<path d="M9.6,8.9l1-4.7L8.7,8.9H7.3V4.7L6,8.9H5.2l2.2-6.8c-1,0.3-1.6,1.1-1.6,2.2C5.8,4.8,6,4.9,6,5C5.3,5,4.9,4.8,4.9,4
			c0-1.2,1.7-2.5,3.2-2.5c0.2,0,0.5,0,0.7,0.1v5.7L11,1.6h1.6L11,8.9H9.6z"/>
		<path d="M16.1,5.3c0.1,0.1,0.1,0.1,0.3,0.1c0.5,0,0.7-0.3,1-0.5l0,0.2c-0.3,0.4-0.8,0.7-1.4,0.9c-0.2,2-1.3,3-2.3,3
			c-1.1,0-1.5-0.4-1.5-1.6c0-2.4,1.2-3.5,2.6-3.5C15.8,3.8,16.1,4.6,16.1,5.3z M15.3,6.1c-0.3,0-0.4-0.2-0.4-0.4
			c0-0.3,0.2-0.6,0.4-0.7c0-0.3-0.1-0.5-0.4-0.5c-0.9,0-1.3,2-1.3,2.8c0,0.6,0.3,0.8,0.7,0.8C14.9,8,15.2,7.1,15.3,6.1z"/>
		<path d="M20.1,8.9c-0.6,0-1-0.3-1-1.1c0-0.2,0-0.3,0.1-0.5l0.4-1.8c0-0.1,0-0.2,0-0.3c0-0.4-0.2-0.6-0.5-0.6
			c-0.2,0-0.4,0.1-0.6,0.2l-0.8,4h-1.4l1.1-5h1.4l-0.1,0.5c0.4-0.3,0.9-0.5,1.3-0.5c0.5,0,1.1,0.6,1.1,1.3c0,0.1,0,0.1,0,0.2
			c0,0.3-0.5,2.1-0.5,2.3c0,0.2,0.1,0.3,0.4,0.3c0.1,0,0.2,0,0.3,0C20.8,8.9,20.4,8.9,20.1,8.9z"/>
	</g>
</g>
</svg>
