<svg id="Layer_1" data-name="Layer 1" xmlns="http://www.w3.org/2000/svg" viewBox="0 0 68.1 59.8"><defs><style>.cls-1{fill:#fff;}</style></defs><g id="Filters_icon" data-name="Filters icon"><g id="noun_filters_1245150" data-name="noun filters 1245150"><path id="Shape" class="cls-1" d="M20,.1a8.91,8.91,0,0,0-8.5,6.4H2.4A2.39,2.39,0,0,0,0,9a2.48,2.48,0,0,0,2.5,2.5h9.1a8.82,8.82,0,0,0,8.5,6.4,8.94,8.94,0,0,0,8.6-6.4H65.6a2.5,2.5,0,0,0,0-5H28.7A9.16,9.16,0,0,0,20,.1Zm.1,5A3.9,3.9,0,1,1,16.2,9,3.9,3.9,0,0,1,20.1,5.1Z" transform="translate(0 -0.1)"/><path id="Shape-2" data-name="Shape" class="cls-1" d="M50.1,20.1a8.91,8.91,0,0,0-8.5,6.4H2.5A2.42,2.42,0,0,0,0,29a2.48,2.48,0,0,0,2.5,2.5H41.6a8.82,8.82,0,0,0,8.5,6.4,8.94,8.94,0,0,0,8.6-6.4h6.9a2.5,2.5,0,0,0,0-5H58.7A8.94,8.94,0,0,0,50.1,20.1Zm.1,5A3.9,3.9,0,1,1,46.3,29,3.84,3.84,0,0,1,50.2,25.1Z" transform="translate(0 -0.1)"/><path id="Shape-3" data-name="Shape" class="cls-1" d="M32,42.1a8.91,8.91,0,0,0-8.5,6.4H2.5A2.42,2.42,0,0,0,0,51a2.48,2.48,0,0,0,2.5,2.5H23.6a8.82,8.82,0,0,0,8.5,6.4,8.94,8.94,0,0,0,8.6-6.4H65.6a2.5,2.5,0,0,0,0-5h-25A8.94,8.94,0,0,0,32,42.1Zm.1,5A3.9,3.9,0,1,1,28.2,51,4,4,0,0,1,32.1,47.1Z" transform="translate(0 -0.1)"/></g></g></svg>