<?xml version="1.0" encoding="utf-8"?>
<!-- Generator: Adobe Illustrator 16.0.0, SVG Export Plug-In . SVG Version: 6.00 Build 0)  -->
<!DOCTYPE svg PUBLIC "-//W3C//DTD SVG 1.1//EN" "http://www.w3.org/Graphics/SVG/1.1/DTD/svg11.dtd">
<svg version="1.1" id="Layer_1" xmlns="http://www.w3.org/2000/svg" xmlns:xlink="http://www.w3.org/1999/xlink" x="0px" y="0px"
	 width="100px" height="100px" viewBox="0 0 100 100" enable-background="new 0 0 100 100" xml:space="preserve">
<g>
	<path fill="#FFFFFF" d="M74.228,49.313c-0.087-11.978-3.182-22.719-9.649-29.705c-4.394-2.324-9.394-3.652-14.82-3.612
		c-5.434,0.037-10.417,1.438-14.78,3.827c-6.359,7.101-9.3,17.904-9.217,29.872c0.109,15.456,5.228,28.853,16.15,34.769
		c2.644,0.7,5.424,1.106,8.338,1.086c2.947-0.021,5.754-0.474,8.415-1.229C69.433,78.2,74.335,64.72,74.228,49.313z"/>
	<path fill="#A3B1C6" d="M51.769,0.468C67.164,3.026,79.52,13.56,85.759,27.977c3.632,6.474,5.737,14.113,5.799,22.501
		c0.074,10.907-3.267,20.643-9.047,28.154c-6.665,11.229-17.226,19.208-29.93,21.613c26.566-1.359,47.606-23.362,47.418-50.223
		C99.809,23.127,78.404,1.399,51.769,0.468z"/>
	<path fill="#A3B1C6" d="M25.761,49.694c-0.083-11.968,2.857-22.771,9.217-29.872c-10.631,5.822-17.469,17.677-17.373,31.175
		C17.721,67.061,27.61,80.67,41.911,84.463C30.988,78.547,25.87,65.149,25.761,49.694z"/>
	<path fill="#ED6D4F" d="M64.578,19.608c6.468,6.986,9.563,17.727,9.649,29.705C74.335,64.72,69.433,78.2,58.664,84.319
		c14.196-4.027,23.854-17.752,23.743-33.778C82.312,37.039,75.3,25.277,64.578,19.608z"/>
	<path fill="#ED6D4F" d="M82.511,78.632c-7.413,9.631-18.833,15.606-32.201,15.699C26.513,94.5,8.631,75.957,8.455,51.061
		C8.281,26.169,25.899,7.374,49.696,7.207c15.777-0.112,28.921,8.033,36.063,20.77C79.52,13.56,67.164,3.026,51.769,0.468
		c-0.708-0.024-1.404-0.098-2.121-0.093C22.036,0.569-0.192,23.113,0.001,50.727c0.197,27.613,22.74,49.841,50.352,49.647
		c0.752-0.006,1.485-0.09,2.229-0.129C65.285,97.84,75.846,89.86,82.511,78.632z"/>
	<path fill="#3C3A40" d="M49.696,7.207C25.899,7.374,8.281,26.169,8.455,51.061C8.631,75.957,26.513,94.5,50.31,94.331
		c13.368-0.093,24.788-6.068,32.201-15.699c5.78-7.512,9.121-17.247,9.047-28.154c-0.062-8.388-2.167-16.027-5.799-22.501
		C78.617,15.239,65.474,7.095,49.696,7.207z M58.664,84.319c-2.661,0.756-5.468,1.208-8.415,1.229
		c-2.914,0.021-5.694-0.386-8.338-1.086C27.61,80.67,17.721,67.061,17.604,50.997c-0.096-13.498,6.742-25.353,17.373-31.175
		c4.363-2.389,9.347-3.79,14.78-3.827c5.427-0.04,10.427,1.289,14.82,3.612C75.3,25.277,82.312,37.039,82.407,50.541
		C82.519,66.567,72.86,80.292,58.664,84.319z"/>
</g>
</svg>
