<?xml version="1.0" encoding="UTF-8"?>
<svg width="25px" height="25px" viewBox="0 0 25 25" version="1.1" xmlns="http://www.w3.org/2000/svg" xmlns:xlink="http://www.w3.org/1999/xlink">
    <!-- Generator: Sketch 51.1 (57501) - http://www.bohemiancoding.com/sketch -->
    <title>Star_Outline</title>
    <desc>Created with Sketch.</desc>
    <defs></defs>
    <g id="Star_Outline" stroke="none" stroke-width="1" fill="none" fill-rule="evenodd">
        <g id="Star_outline" transform="translate(2.000000, 2.000000)" stroke="#ED6D4F" stroke-width="1.2">
            <path d="M20.71875,8.6184082 C20.71875,8.8010263 20.6108409,9.00024306 20.3950195,9.21606445 L15.8752441,13.6237793 L16.9460449,19.8493652 C16.9543457,19.907471 16.9584961,19.990478 16.9584961,20.0983887 C16.9584961,20.2727059 16.9149174,20.4200433 16.8277588,20.5404053 C16.7406002,20.6607672 16.6140145,20.7209473 16.447998,20.7209473 C16.2902824,20.7209473 16.1242684,20.6711431 15.9499512,20.5715332 L10.359375,17.6330566 L4.76879883,20.5715332 C4.58618073,20.6711431 4.42016676,20.7209473 4.27075195,20.7209473 C4.09643468,20.7209473 3.96569868,20.6607672 3.87854004,20.5404053 C3.7913814,20.4200433 3.74780273,20.2727059 3.74780273,20.0983887 C3.74780273,20.0485837 3.75610343,19.9655768 3.77270508,19.8493652 L4.84350586,13.6237793 L0.311279297,9.21606445 C0.103758728,8.99194224 0,8.79272548 0,8.6184082 C0,8.31127776 0.232419551,8.1203617 0.697265625,8.0456543 L6.94775391,7.13671875 L9.74926758,1.47143555 C9.90698321,1.13110181 10.1103503,0.9609375 10.359375,0.9609375 C10.6083997,0.9609375 10.8117668,1.13110181 10.9694824,1.47143555 L13.7709961,7.13671875 L20.0214844,8.0456543 C20.4863304,8.1203617 20.71875,8.31127776 20.71875,8.6184082 Z" id="star---FontAwesome"></path>
        </g>
    </g>
</svg>