<?xml version="1.0" encoding="UTF-8"?>
<svg width="69px" height="60px" viewBox="0 0 69 60" version="1.1" xmlns="http://www.w3.org/2000/svg" xmlns:xlink="http://www.w3.org/1999/xlink">
    <!-- Generator: Sketch 53 (72520) - https://sketchapp.com -->
    <title>Filters_icon</title>
    <desc>Created with Sketch.</desc>
    <g id="Filters_icon" stroke="none" stroke-width="1" fill="none" fill-rule="evenodd">
        <g id="noun_filters_1245150" fill="#FCC323" fill-rule="nonzero">
            <path d="M20,0.1 C16,0.1 12.6,2.8 11.5,6.5 L2.4,6.5 C1,6.5 0,7.6 0,9 C0,10.4 1.1,11.5 2.5,11.5 L11.6,11.5 C12.6,15.2 16.1,17.9 20.1,17.9 C24.2,17.9 27.6,15.2 28.7,11.5 L65.6,11.5 C67,11.5 68.1,10.4 68.1,9 C68.1,7.6 67,6.5 65.6,6.5 L28.7,6.5 C27.5,2.8 24.1,0.1 20,0.1 Z M20.1,5.1 C22.2,5.1 24,6.8 24,9 C24,11.2 22.2,12.9 20.1,12.9 C18,12.9 16.2,11.2 16.2,9 C16.2,6.8 18,5.1 20.1,5.1 Z" id="Shape"></path>
            <path d="M50.1,20.1 C46.1,20.1 42.7,22.8 41.6,26.5 L2.5,26.5 C1,26.5 0,27.6 0,29 C0,30.4 1.1,31.5 2.5,31.5 L41.6,31.5 C42.6,35.2 46.1,37.9 50.1,37.9 C54.2,37.9 57.6,35.2 58.7,31.5 L65.6,31.5 C67,31.5 68.1,30.4 68.1,29 C68.1,27.6 67,26.5 65.6,26.5 L58.7,26.5 C57.6,22.8 54.2,20.1 50.1,20.1 Z M50.2,25.1 C52.3,25.1 54.1,26.8 54.1,29 C54.1,31.2 52.3,32.9 50.2,32.9 C48.1,32.9 46.3,31.2 46.3,29 C46.3,26.8 48,25.1 50.2,25.1 Z" id="Shape"></path>
            <path d="M32,42.1 C28,42.1 24.6,44.8 23.5,48.5 L2.5,48.5 C1,48.5 0,49.6 0,51 C0,52.4 1.1,53.5 2.5,53.5 L23.6,53.5 C24.6,57.2 28.1,59.9 32.1,59.9 C36.2,59.9 39.6,57.2 40.7,53.5 L65.6,53.5 C67,53.5 68.1,52.4 68.1,51 C68.1,49.6 67,48.5 65.6,48.5 L40.6,48.5 C39.5,44.8 36.1,42.1 32,42.1 Z M32.1,47.1 C34.2,47.1 36,48.8 36,51 C36,53.2 34.2,54.9 32.1,54.9 C30,54.9 28.2,53.2 28.2,51 C28.3,48.8 30,47.1 32.1,47.1 Z" id="Shape"></path>
        </g>
    </g>
</svg>