<?xml version="1.0" encoding="utf-8"?>
<!-- Generator: Adobe Illustrator 21.1.0, SVG Export Plug-In . SVG Version: 6.00 Build 0)  -->
<svg version="1.1" id="Layer_1" xmlns="http://www.w3.org/2000/svg" xmlns:xlink="http://www.w3.org/1999/xlink" x="0px" y="0px"
	 viewBox="0 0 425.2 425.2" style="enable-background:new 0 0 425.2 425.2;" xml:space="preserve">
<style type="text/css">
	.st0{fill:#FCC324;}
	.st1{fill:#FFFFFF;}
</style>
<g>
	<path class="st0" d="M212.6,0.3C95.3,0.3,0.3,95.3,0.3,212.6s95.1,212.3,212.3,212.3c117.3,0,212.3-95.1,212.3-212.3
		C424.9,95.3,329.9,0.3,212.6,0.3z M321.6,355.5c-31.2,23.6-68.3,36.1-107.5,36.1s-76.4-12.5-107.5-36.1
		c-30.1-22.9-52.6-55.3-63.3-91.4c-4.8-16.3-7.3-33.4-7.3-50.6c0-17.1,2.4-33.9,7.2-50.2c10.6-36.2,33.1-68.8,63.2-91.7
		c31.2-23.7,68.4-36.2,107.7-36.2s76.5,12.5,107.7,36.2c30.2,23,52.6,55.5,63.2,91.7l-7.8,2.3c-21.1-71.8-88.2-122-163.1-122
		C139.1,43.6,72,93.8,51,165.7c-4.5,15.5-6.8,31.6-6.8,47.9c0,16.4,2.3,32.7,6.9,48.3c10.2,34.4,31.6,65.4,60.4,87.2
		c29.7,22.5,65.2,34.5,102.6,34.5s72.9-11.9,102.6-34.5c28.8-21.8,50.2-52.8,60.4-87.2l7.8,2.3C374.2,300.2,351.7,332.7,321.6,355.5
		z M377.9,247.1c-17.5,0-31.8-14.2-31.8-31.8c0-17.5,14.2-31.8,31.8-31.8s31.8,14.2,31.8,31.8C409.6,232.9,395.4,247.1,377.9,247.1z
		"/>
	<path class="st1" d="M316.7,349c-29.7,22.5-65.2,34.5-102.6,34.5s-72.9-11.9-102.6-34.5c-28.8-21.8-50.2-52.8-60.4-87.2
		c-4.6-15.6-6.9-31.8-6.9-48.3c0-16.3,2.3-32.4,6.8-47.9c21-71.8,88.1-122,163.1-122s142.1,50.2,163.1,122.1l7.8-2.3
		c-10.6-36.2-33.1-68.8-63.2-91.7C290.6,48,253.4,35.5,214.1,35.5S137.6,48,106.4,71.7c-30.2,22.9-52.6,55.5-63.2,91.7
		c-4.8,16.2-7.2,33.1-7.2,50.2c0,17.2,2.4,34.2,7.3,50.6c10.7,36.1,33.1,68.6,63.3,91.4c31.2,23.6,68.3,36.1,107.5,36.1
		s76.4-12.5,107.5-36.1c30.1-22.9,52.6-55.3,63.3-91.4l-7.8-2.3C366.9,296.2,345.4,327.2,316.7,349z"/>
	<circle class="st1" cx="377.9" cy="215.4" r="31.8"/>
</g>
</svg>
