<?xml version="1.0" encoding="UTF-8"?>
<svg width="12px" height="12px" viewBox="0 0 12 12" version="1.1" xmlns="http://www.w3.org/2000/svg" xmlns:xlink="http://www.w3.org/1999/xlink">
    <!-- Generator: Sketch 53.2 (72643) - https://sketchapp.com -->
    <title>Shape Copy 2</title>
    <desc>Created with Sketch.</desc>
    <g id="Page-1" stroke="none" stroke-width="1" fill="none" fill-rule="evenodd">
        <g id="Artboard" transform="translate(-95.000000, -168.000000)" fill="#FBC23A" fill-rule="nonzero">
            <g id="Review" transform="translate(79.000000, 168.000000)">
                <path d="M27.385411,4.01933132 L24.1084075,3.5201743 L22.6437372,0.417433009 C22.3813077,-0.135623596 21.6209353,-0.142653976 21.3562628,0.417433009 L19.8915925,3.5201743 L16.614589,4.01933132 C16.0269265,4.10838281 15.7914129,4.86532045 16.2175804,5.29886058 L18.5884173,7.71262458 L18.0276706,11.1223591 C17.9267362,11.7386892 18.5480435,12.2003508 19.0684164,11.9121052 L22,10.3021481 L24.9315836,11.9121052 C25.4519565,12.1980074 26.0732638,11.7386892 25.9723294,11.1223591 L25.4115827,7.71262458 L27.7824196,5.29886058 C28.2085871,4.86532045 27.9730735,4.10838281 27.385411,4.01933132 L27.385411,4.01933132 Z M24.2564446,7.31892326 L24.7880324,10.5622722 L22,9.03199266 L19.2119676,10.5622722 L19.7435554,7.31892326 L17.4871108,5.02233228 L20.6048623,4.54895332 L22,1.59619348 L23.3951377,4.54895332 L26.5128892,5.02233228 L24.2564446,7.31892326 Z" id="Shape-Copy-2"></path>
            </g>
        </g>
    </g>
</svg>