<?xml version="1.0" encoding="UTF-8"?>
<svg width="16px" height="16px" viewBox="0 0 16 16" version="1.1" xmlns="http://www.w3.org/2000/svg" xmlns:xlink="http://www.w3.org/1999/xlink">
    <!-- Generator: Sketch 51.1 (57501) - http://www.bohemiancoding.com/sketch -->
    <title>star - FontAwesome</title>
    <desc>Created with Sketch.</desc>
    <defs></defs>
    <g id="Symbols" stroke="none" stroke-width="1" fill="none" fill-rule="evenodd">
        <g id="Testimonials" transform="translate(-124.000000, -139.000000)" fill="#ED6D4F">
            <g id="Stars" transform="translate(124.000000, 139.000000)">
                <path d="M15.7857143,6.56640625 C15.7857143,6.70554385 15.7034978,6.85732805 15.5390625,7.02176339 L12.0954241,10.3800223 L12.9112723,15.1233259 C12.9175968,15.1675969 12.9207589,15.2308404 12.9207589,15.313058 C12.9207589,15.4458712 12.8875561,15.5581283 12.8211496,15.6498326 C12.754743,15.7415369 12.6582968,15.7873884 12.531808,15.7873884 C12.4116437,15.7873884 12.2851569,15.7494423 12.1523437,15.6735491 L7.89285714,13.4347098 L3.63337054,15.6735491 C3.49423294,15.7494423 3.3677461,15.7873884 3.25390625,15.7873884 C3.12109309,15.7873884 3.02148471,15.7415369 2.95507812,15.6498326 C2.88867154,15.5581283 2.85546875,15.4458712 2.85546875,15.313058 C2.85546875,15.2751114 2.86179309,15.211868 2.87444196,15.1233259 L3.69029018,10.3800223 L0.237165179,7.02176339 C0.079054269,6.85100361 0,6.69921941 0,6.56640625 C0,6.3324021 0.177081562,6.18694225 0.53125,6.13002232 L5.29352679,5.4375 L7.42801339,1.12109375 C7.54817768,0.861791858 7.70312405,0.732142857 7.89285714,0.732142857 C8.08259023,0.732142857 8.2375366,0.861791858 8.35770089,1.12109375 L10.4921875,5.4375 L15.2544643,6.13002232 C15.6086327,6.18694225 15.7857143,6.3324021 15.7857143,6.56640625 Z" id="star---FontAwesome"></path>
            </g>
        </g>
    </g>
</svg>