<?xml version="1.0" encoding="utf-8"?>
<!-- Generator: Adobe Illustrator 23.0.1, SVG Export Plug-In . SVG Version: 6.00 Build 0)  -->
<svg version="1.1" id="Layer_3" xmlns="http://www.w3.org/2000/svg" xmlns:xlink="http://www.w3.org/1999/xlink" x="0px" y="0px"
	 viewBox="0 0 168.1 33" style="enable-background:new 0 0 168.1 33;" xml:space="preserve">
<g>
	<g>
		<path d="M46.2,16l-2.5,11.7h-2.6l2.6-12c-2,0-3.6,0.6-3.6,3.6c0,0.9,0.2,1.1,0.3,1.2c-1.2,0-1.9-0.5-1.9-1.8
			c0-2.4,1.7-4.7,6.2-4.7c0.7,0,2.9,0.3,4.6,0.3c0.8,0,1.6-0.1,2.1-0.3c-0.3,0.8-0.3,2.3-1.7,2.3C48.6,16.5,47.4,16.3,46.2,16z"/>
		<path d="M52.2,18.3v0.3c0,3,1.2,3.9,1.2,6c0,0.1,0,0.3,0,0.4c0.5-0.5,1-0.9,1.2-1.2l0.5,0.6c-0.5,0.4-1.2,1-2,1.6
			c-0.5,1-1.5,1.7-3.2,1.7c-2.1,0-3.1-0.6-3.1-2.4c0-1.4,0.7-2.3,1.4-2.3c0.7-1.2,1.1-2.8,1.4-4.2L52.2,18.3z M48.4,25.2
			c-0.2,0-0.4-0.1-0.7-0.2c0,1.1,0.6,1.5,1.5,1.5c0.6,0,1.5-0.8,1.5-2.2c0-1.1-0.8-2.1-0.8-4.3c-0.3,0.9-0.5,2-0.9,2.9
			c0.4,0.1,0.6,0.5,0.6,1C49.6,24.8,49,25.2,48.4,25.2z"/>
		<path d="M61.6,24.8c-0.1,0.2-0.1,0.4-0.1,0.6c0,0.4,0.2,0.7,0.9,0.7s1.7-1,2.4-1.6h0.6c-0.8,0.8-2.9,3.2-4.3,3.2
			c-1.4,0-2.2-0.6-2.2-2c0-0.3,0-0.6,0.1-0.9l0.7-3.3c0-0.2,0.1-0.3,0.1-0.5c0-0.7-0.3-1.1-0.8-1.1c-0.4,0-0.8,0.1-1.1,0.4l-1.6,7.3
			h-2.6l2.6-12.3l2.7-0.4l-1,4.6c0.7-0.5,1.6-1,2.4-1c1,0,2.1,1,2.1,2.3c0,0.1,0,0.3,0,0.4L61.6,24.8z"/>
		<path d="M67.5,18.6l-1.3,6.1c0,0.2-0.1,0.4-0.1,0.6c0,0.4,0.2,0.7,0.9,0.7c0.7,0,1.7-1,2.4-1.6h0.7c-0.8,0.8-2.9,3.2-4.3,3.2
			c-1.4,0-2.3-0.6-2.3-2c0-0.3,0-0.6,0.1-0.9l1.3-6.1C64.9,18.6,67.5,18.6,67.5,18.6z M66.7,14.8c0.8,0,1.4,0.7,1.4,1.4
			c0,0.8-0.7,1.4-1.4,1.4c-0.8,0-1.4-0.6-1.4-1.4C65.3,15.5,65.9,14.8,66.7,14.8z"/>
		<path d="M72.6,18.6l-0.2,0.9c0.7-0.5,1.4-0.9,2.1-0.9c0.8,0,1.3,0.5,1.3,1.2c0,0.6-0.5,1.4-1.4,1.4c-1,0-0.5-1.2-1-1.2
			s-0.8,0.2-1.2,0.6l-1.5,7.1h-2.6l1.9-9h2.6V18.6z"/>
		<path d="M78.4,24.8c-0.1,0.2-0.1,0.4-0.1,0.6c0,0.4,0.1,0.7,0.6,0.7c0.1,0,0.3,0,0.5-0.1c-0.5,1.6-1.3,1.7-1.9,1.7
			c-1.3,0-1.8-0.8-1.8-2c0-0.3,0-0.6,0.1-0.9l1.2-5.4h-0.6l0.1-0.7h0.6l0.5-2.5l2.7-0.4c0,0-0.3,1.2-0.6,2.9h1.1l-0.1,0.7h-1.1
			L78.4,24.8z"/>
		<path d="M91.7,15.8l-1.3,6c1.8-0.1,3.2-2.5,3.2-4.4c0-1.3-0.7-2.5-2.2-2.5c-2.9,0-4.7,1.6-4.7,4.4c0,0.9,0.2,1.1,0.3,1.2
			c-1.2,0-1.9-0.5-1.9-1.8c0-2.4,3.3-4.7,6.3-4.7s4.3,1.7,4.3,3.6c0,2.3-2,4.8-5.2,4.8h-0.1l-1.1,5.2h-2.6l2.5-11.5L91.7,15.8z"/>
		<path d="M98.8,26.4c0.9,0,2.4-1,3-2.4h0.8c-1,1.9-2.8,3.7-5.1,3.7c-1.7,0-2.7-1.3-2.7-2.9c0-2.3,1-6.3,4.3-6.3
			c1.5,0,2.3,0.6,2.3,1.9c0,2.2-2.4,3.5-4.1,3.7c0,0.3-0.1,0.6-0.1,0.8C97.3,26,98.1,26.4,98.8,26.4z M99.8,19.4c-1,0-1.8,2-2.2,3.7
			c1.7,0,2.8-1.4,2.9-2.7C100.4,20.1,100.3,19.4,99.8,19.4z"/>
		<path d="M105.6,18.6l-0.2,0.9c0.7-0.5,1.4-0.9,2.1-0.9c0.8,0,1.3,0.5,1.3,1.2c0,0.6-0.5,1.4-1.4,1.4c-1,0-0.5-1.2-1-1.2
			s-0.8,0.2-1.2,0.6l-1.5,7.1h-2.6l1.9-9h2.6V18.6z"/>
		<path d="M112.8,18.3v0.3c0,3,1.2,3.9,1.2,6c0,0.1,0,0.3,0,0.4c0.5-0.5,1-0.9,1.2-1.2l0.5,0.6c-0.5,0.4-1.2,1-2,1.6
			c-0.5,1-1.5,1.7-3.2,1.7c-2.1,0-3.1-0.6-3.1-2.4c0-1.4,0.7-2.3,1.4-2.3c0.7-1.2,1.1-2.8,1.4-4.2L112.8,18.3z M109,25.2
			c-0.2,0-0.4-0.1-0.7-0.2c0,1.1,0.6,1.5,1.5,1.5c0.6,0,1.5-0.8,1.5-2.2c0-1.1-0.8-2.1-0.9-4.3c-0.3,0.9-0.5,2-0.9,2.9
			c0.4,0.1,0.6,0.5,0.6,1C110.1,24.8,109.6,25.2,109,25.2z"/>
		<path d="M121.8,21.1c0.1,0.1,0.3,0.2,0.5,0.2c0.8,0,1.2-0.6,1.9-0.9l0.1,0.4c-0.6,0.7-1.5,1.3-2.5,1.6c-0.3,3.6-2.3,5.4-4.1,5.4
			c-1.9,0-2.8-0.8-2.8-3c0-4.4,2.3-6.4,4.8-6.4C121.4,18.5,121.8,19.8,121.8,21.1z M120.5,22.6c-0.5,0-0.8-0.4-0.8-0.8
			c0-0.5,0.3-1.1,0.8-1.3c-0.1-0.6-0.3-0.9-0.8-0.9c-1.7,0-2.4,3.7-2.4,5.1c0,1.1,0.5,1.4,1.2,1.4C119.6,26,120.2,24.3,120.5,22.6z"
			/>
		<path d="M130,24.8c-0.1,0.2-0.1,0.4-0.1,0.6c0,0.4,0.2,0.7,0.9,0.7s1-0.6,1.7-1.1h0.6c-0.8,0.8-2.2,2.8-3.6,2.8
			c-1.4,0-2.2-0.6-2.2-2c0-0.3,0-0.6,0.1-0.9l0.7-3.3c0-0.2,0.1-0.3,0.1-0.5c0-0.7-0.3-1.1-0.8-1.1c-0.4,0-0.8,0.1-1.1,0.4l-1.5,7.3
			h-2.6l1.9-9h2.6l-0.2,1c0.7-0.5,1.6-1,2.4-1c1,0,2.1,1,2.1,2.3c0,0.1,0,0.3,0,0.4L130,24.8z"/>
		<path d="M140.3,18.6l-1.3,6.1c0,0.2-0.1,0.4-0.1,0.6c0,0.4,0.2,0.7,0.9,0.7c0.7,0,1.7-1,2.4-1.6h0.6c-0.8,0.8-2.9,3.2-4.3,3.2
			c-1.2,0-2-0.4-2.2-1.4c-0.5,0.7-1.4,1.5-2.5,1.5c-1.7,0-2.2-1.2-2.2-2.3c0-3.1,1.1-6.8,4.7-6.8c0.4,0,0.9,0.2,1.2,0.5l0.1-0.5
			C137.6,18.6,140.3,18.6,140.3,18.6z M134.1,25c0,1.1,0.6,1.3,1,1.3c0.4,0,0.8-0.4,1.2-0.9c0-0.2,0.1-0.4,0.1-0.6l1-4.8
			c-0.3-0.3-0.6-0.3-0.9-0.3C135.2,19.7,134.1,22.6,134.1,25z"/>
		<path d="M145.7,15l-2.1,9.8c-0.1,0.3-0.1,0.4-0.1,0.6c0,0.4,0.2,0.7,0.9,0.7c0.7,0,1.7-1,2.4-1.6h0.6c-0.8,0.8-2.9,3.2-4.3,3.2
			c-1.4,0-2.2-0.6-2.2-2c0-0.3,0-0.6,0.1-0.9l2-9.4L145.7,15z"/>
		<path d="M150.1,18.6l-1.3,6.1c-0.1,0.3-0.1,0.7-0.1,0.9c0,0.3,0.1,0.5,0.5,0.5c0.3,0,0.7-0.4,1-0.9c0-1.5,0.7-2.3,1.4-2.4
			c0.7-1.2,1.1-2.8,1.4-4.2l2.6-0.5v0.3c0,3,1.2,3.9,1.2,6v0.4c0.5-0.5,1-0.9,1.2-1.2l0.5,0.6c-0.5,0.4-1.2,1-2,1.6
			c-0.5,1-1.5,1.7-3.2,1.7s-2.7-0.4-3-1.4c-0.6,0.8-1.3,1.4-1.9,1.4c-1.4,0-2.2-0.6-2.2-2c0-0.3,0-0.6,0.1-0.9l1.3-6.1L150.1,18.6
			L150.1,18.6z M149.2,14.8c0.8,0,1.4,0.7,1.4,1.4c0,0.8-0.7,1.4-1.4,1.4c-0.8,0-1.4-0.6-1.4-1.4C147.8,15.5,148.5,14.8,149.2,14.8z
			 M151.7,25.2c-0.2,0-0.4,0-0.7-0.1c0,1.1,0.6,1.5,1.5,1.5c0.6,0,1.5-0.8,1.5-2.2c0-1.1-0.8-2.1-0.8-4.3c-0.3,0.9-0.5,2-0.9,2.9
			c0.4,0.1,0.6,0.5,0.6,1C152.9,24.8,152.3,25.2,151.7,25.2z"/>
		<path d="M157.1,24.8c0-2.3,1-6.3,4.3-6.3c1.5,0,2.3,0.6,2.3,1.9c0,2.2-2.4,3.5-4.1,3.7c0,0.3-0.1,0.6-0.1,0.8
			c0,1.2,0.6,1.6,1.3,1.6c0.9,0,1.6-0.5,2.3-1.2c0,2-1.6,2.5-3.4,2.5C158,27.7,157.1,26.4,157.1,24.8z M161.9,19.4
			c-1,0-1.8,2-2.2,3.7c1.7,0,2.8-1.4,2.9-2.7C162.6,20.1,162.5,19.4,161.9,19.4z"/>
	</g>
	<g>
		<path d="M13.2,27.6l1.9-8.8l-3.6,8.8H8.9v-7.9l-2.4,7.9H4.9L9,14.9c-1.9,0.6-3,2.1-3,4.1c0,0.9,0.4,1.1,0.4,1.3
			c-1.3,0-2.1-0.4-2.1-1.9c0-2.2,3.2-4.7,6-4.7c0.4,0,0.9,0,1.3,0.2v10.7L15.8,14h3l-3,13.7H13.2z"/>
		<path d="M25.3,20.9c0.2,0.2,0.2,0.2,0.6,0.2c0.9,0,1.3-0.6,1.9-0.9v0.4c-0.6,0.7-1.5,1.3-2.6,1.7c-0.4,3.7-2.4,5.6-4.3,5.6
			c-2.1,0-2.8-0.7-2.8-3c0-4.5,2.2-6.6,4.9-6.6C24.8,18.1,25.3,19.6,25.3,20.9z M23.8,22.4c-0.6,0-0.7-0.4-0.7-0.7
			c0-0.6,0.4-1.1,0.7-1.3c0-0.6-0.2-0.9-0.7-0.9c-1.7,0-2.4,3.7-2.4,5.2c0,1.1,0.6,1.5,1.3,1.5C23.1,25.9,23.7,24.3,23.8,22.4z"/>
		<path d="M32.8,27.6c-1.1,0-1.9-0.6-1.9-2.1c0-0.4,0-0.6,0.2-0.9l0.7-3.4c0-0.2,0-0.4,0-0.6c0-0.7-0.4-1.1-0.9-1.1
			c-0.4,0-0.7,0.2-1.1,0.4l-1.5,7.5h-2.6l2.1-9.4h2.6L30.2,19c0.7-0.6,1.7-0.9,2.4-0.9c0.9,0,2.1,1.1,2.1,2.4c0,0.2,0,0.2,0,0.4
			c0,0.6-0.9,3.9-0.9,4.3c0,0.4,0.2,0.6,0.7,0.6c0.2,0,0.4,0,0.6,0C34.1,27.6,33.4,27.6,32.8,27.6z"/>
	</g>
</g>
</svg>
