<?xml version="1.0" encoding="utf-8"?>
<!-- Generator: Adobe Illustrator 23.0.2, SVG Export Plug-In . SVG Version: 6.00 Build 0)  -->
<svg version="1.1" id="Layer_4" xmlns="http://www.w3.org/2000/svg" xmlns:xlink="http://www.w3.org/1999/xlink" x="0px" y="0px"
	 viewBox="0 0 112 33" style="enable-background:new 0 0 112 33;" xml:space="preserve">
<g>
	<g>
		<path d="M13.8,26c-1,2.8-3.6,3.4-5.4,3.4c-2,0-4.2-1-4.2-4.9c0-4.2,1.4-9.6,6.5-9.6c1.8,0,3.3,0.7,3.3,2.6c0,1-0.4,1.8-1.3,1.8
			c-0.3,0-0.7-0.1-1.1-0.5c0.5-0.1,0.8-1.1,0.8-1.6c0-0.3-0.1-1.4-1.3-1.4c-2.4,0-3.9,4.9-3.9,8.3c0,2.5,0.5,3.6,2.5,3.6
			c1.5,0,2.9-0.6,3.6-1.8L13.8,26z"/>
		<path d="M22.4,19.7L21,26.2c0,0.2-0.1,0.4-0.1,0.6c0,0.4,0.2,0.7,1,0.7c0.8,0,1.8-1.1,2.5-1.7h0.7c-0.9,0.9-3,3.4-4.5,3.4
			c-1.3,0-2.2-0.5-2.4-1.6c-0.9,0.8-1.9,1.6-2.8,1.6c-1.5,0-2.4-0.7-2.4-2.1c0-0.3,0-0.6,0.1-1l1.4-6.5h2.8l-1.4,6.5
			c0,0.2-0.1,0.4-0.1,0.6c0,0.4,0.2,0.7,1,0.7c0.4,0,0.9-0.3,1.4-0.7c0-0.2,0.1-0.4,0.1-0.6l1.4-6.5H22.4z"/>
		<path d="M28.6,19.3v0.3c0,3.2,1.3,4.1,1.3,6.4c0,0.1,0,0.3,0,0.4c0.5-0.5,1-1,1.2-1.2l0.5,0.7c-0.5,0.4-1.3,1.1-2.1,1.7
			c-0.5,1.1-1.6,1.8-3.4,1.8c-2.2,0-3.3-0.6-3.3-2.5c0-1.5,0.7-2.4,1.5-2.5c0.7-1.2,1.1-2.9,1.5-4.4L28.6,19.3z M24.6,26.6
			c-0.2,0-0.5-0.1-0.7-0.2c0,1.1,0.6,1.6,1.6,1.6c0.7,0,1.6-0.8,1.6-2.3c0-1.2-0.9-2.2-0.9-4.6c-0.3,0.9-0.6,2.2-1,3.1
			c0.5,0.2,0.6,0.5,0.6,1.1C25.9,26.1,25.3,26.6,24.6,26.6z"/>
		<path d="M35.8,16.6c0,0-0.3,1.3-0.7,3h1.1l-0.2,0.8H35c-1.3,6.1-1.3,6.2-1.3,6.3c0,0.4,0.2,0.7,1,0.7s1.8-1.1,2.5-1.7h0.7
			c-0.9,0.9-3,3.4-4.5,3.4c-1.5,0-2.4-0.7-2.4-2.1c0-1,1-5.1,1.3-6.7h-0.6l0.2-0.8h0.6l0.6-2.6L35.8,16.6z"/>
		<path d="M43.5,22.3c0.1,0.1,0.3,0.2,0.6,0.2c0.9,0,1.3-0.7,2-0.9l0.1,0.4c-0.6,0.7-1.6,1.4-2.7,1.7c-0.4,3.8-2.5,5.7-4.4,5.7
			c-2,0-2.9-0.9-2.9-3.1c0-4.7,2.4-6.7,5-6.7C43,19.5,43.4,20.9,43.5,22.3z M42,23.8c-0.6,0-0.8-0.4-0.8-0.9c0-0.6,0.3-1.1,0.8-1.3
			c-0.1-0.6-0.3-1-0.8-1c-1.8,0-2.6,3.9-2.6,5.4c0,1.1,0.5,1.5,1.3,1.5C41.1,27.5,41.7,25.7,42,23.8z"/>
		<path d="M55.6,29.2c-1.2,0-2-0.7-2-2.1c0-0.3,0-0.6,0.1-1l0.7-3.4c0-0.2,0.1-0.3,0.1-0.5c0-0.7-0.4-1.1-0.9-1.1
			c-0.4,0-0.7,0.1-1.1,0.3c0.1,0.2,0.1,0.5,0.1,0.7c0,0.1,0,0.3,0,0.4l-1.4,6.7h-2.8l1.4-6.5c0-0.2,0.1-0.3,0.1-0.5
			c0-0.7-0.4-1.1-0.9-1.1c-0.5,0-0.8,0.1-1.2,0.4l-1.6,7.7h-2.8l2-9.6h2.8l-0.2,1c0.8-0.6,1.6-1,2.5-1c0.7,0,1.5,0.5,1.9,1.2
			c0.9-0.7,1.8-1.2,2.8-1.2c1.1,0,2.2,1.1,2.2,2.4c0,0.2,0,0.3,0,0.4c-0.1,0.6-0.9,4-0.9,4.4c0,0.3,0.2,0.6,0.7,0.6
			c0.1,0,0.3,0,0.5-0.1C57,29.1,56.2,29.2,55.6,29.2z"/>
		<path d="M70.3,16.9l-2.6,12.3h-2.8l2.7-12.7c-2.1,0-3.8,0.6-3.8,3.8c0,1,0.2,1.1,0.3,1.3c-1.3,0-2-0.5-2-1.9c0-2.5,1.8-5,6.5-5
			c0.8,0,3,0.3,4.9,0.3c0.9,0,1.7-0.1,2.2-0.3c-0.3,0.8-0.3,2.5-1.8,2.5C72.8,17.4,71.6,17.1,70.3,16.9z"/>
		<path d="M76.6,19.3v0.3c0,3.2,1.3,4.1,1.3,6.4c0,0.1,0,0.3,0,0.4c0.5-0.5,1-1,1.2-1.2l0.5,0.7c-0.5,0.4-1.3,1.1-2.1,1.7
			c-0.5,1.1-1.6,1.8-3.4,1.8c-2.2,0-3.3-0.6-3.3-2.5c0-1.5,0.7-2.4,1.5-2.5c0.7-1.2,1.1-2.9,1.5-4.4L76.6,19.3z M72.6,26.6
			c-0.2,0-0.5-0.1-0.7-0.2c0,1.1,0.6,1.6,1.6,1.6c0.7,0,1.6-0.8,1.6-2.3c0-1.2-0.9-2.2-0.9-4.6c-0.3,0.9-0.6,2.2-1,3.1
			c0.5,0.2,0.6,0.5,0.6,1.1C73.8,26.1,73.3,26.6,72.6,26.6z"/>
		<path d="M86.6,26.2c-0.1,0.2-0.1,0.4-0.1,0.6c0,0.4,0.2,0.7,1,0.7c0.8,0,1.8-1.1,2.5-1.7h0.7c-0.9,0.9-3,3.4-4.5,3.4
			s-2.4-0.7-2.4-2.1c0-0.3,0-0.6,0.1-1l0.7-3.4c0-0.2,0.1-0.3,0.1-0.5c0-0.7-0.4-1.1-0.9-1.1c-0.5,0-0.8,0.1-1.2,0.4L81,29.2h-2.8
			l2.8-13l2.8-0.4l-1,4.8c0.8-0.6,1.7-1,2.5-1c1,0,2.2,1.1,2.2,2.4c0,0.2,0,0.3,0,0.5L86.6,26.2z"/>
		<path d="M92.9,19.7l-1.4,6.5c0,0.2-0.1,0.4-0.1,0.6c0,0.4,0.2,0.7,1,0.7c0.8,0,1.8-1.1,2.5-1.7h0.7c-0.9,0.9-3,3.4-4.5,3.4
			c-1.5,0-2.4-0.7-2.4-2.1c0-0.3,0-0.6,0.1-1l1.4-6.5H92.9z M92,15.6c0.8,0,1.5,0.7,1.5,1.5c0,0.8-0.7,1.5-1.5,1.5s-1.5-0.7-1.5-1.5
			C90.5,16.3,91.2,15.6,92,15.6z"/>
		<path d="M98.2,19.7l-0.2,1c0.7-0.5,1.5-1,2.3-1c0.9,0,1.4,0.5,1.4,1.2c0,0.7-0.5,1.5-1.4,1.5c-1.1,0-0.5-1.3-1.1-1.3
			c-0.6,0-0.9,0.2-1.3,0.6l-1.6,7.5h-2.8l2-9.6H98.2z"/>
		<path d="M104.4,26.2c-0.1,0.2-0.1,0.5-0.1,0.7c0,0.4,0.2,0.7,0.7,0.7c0.1,0,0.3,0,0.5-0.1c-0.5,1.6-1.4,1.8-2,1.8
			c-1.3,0-1.9-0.9-1.9-2.1c0-0.3,0-0.7,0.1-1l1.2-5.7h-0.6l0.2-0.8h0.6l0.6-2.6l2.8-0.4c0,0-0.3,1.3-0.7,3h1.1l-0.2,0.8h-1.1
			L104.4,26.2z"/>
	</g>
	<g>
		<path d="M9.6,9.4l1.1-5l-2,5H7.2V4.9L5.8,9.4H4.9l2.4-7.2C6.2,2.5,5.6,3.3,5.6,4.5c0,0.5,0.1,0.6,0.1,0.7C5,5.2,4.6,5,4.6,4.2
			c0-1.3,1.8-2.7,3.4-2.7c0.2,0,0.5,0,0.7,0.1v6.1l2.3-6.1h1.7l-1.7,7.8H9.6z"/>
		<path d="M14.7,4.1l-0.8,3.6c0,0.1-0.1,0.2-0.1,0.3c0,0.2,0.1,0.4,0.5,0.4c0.2,0,0.5-0.2,0.8-0.4L16,4.1h1.5l-1.3,6.1
			C16,11.7,15,12,14.4,12c-0.6,0-1.2-0.5-1.2-1.1c0-1,0.8-1.3,1.8-1.6l0.2-0.7c-0.5,0.4-1,0.8-1.4,0.8c-0.8,0-1.3-0.4-1.3-1.1
			c0-0.2,0-0.3,0.1-0.5l0.7-3.6H14.7z M14.1,11.1c0.2,0,0.5-0.2,0.6-0.8l0.1-0.6c-0.7,0.2-1.2,0.5-1.2,1.1
			C13.7,10.9,13.9,11.1,14.1,11.1z"/>
	</g>
</g>
</svg>
