<?xml version="1.0" encoding="utf-8"?>
<!-- Generator: Adobe Illustrator 23.0.1, SVG Export Plug-In . SVG Version: 6.00 Build 0)  -->
<svg version="1.1" id="Layer_1" xmlns="http://www.w3.org/2000/svg" xmlns:xlink="http://www.w3.org/1999/xlink" x="0px" y="0px"
	 viewBox="0 0 165.9 33" style="enable-background:new 0 0 165.9 33;" xml:space="preserve">
<g>
	<g>
		<path d="M53.1,16.6l-2.6,12h-2.7l2.7-12.4c-2.1,0-3.8,0.6-3.8,3.8c0,1,0.2,1.1,0.3,1.3c-1.3,0-2-0.5-2-1.8c0-2.5,1.8-4.9,6.4-4.9
			c0.8,0,3,0.3,4.8,0.3c0.9,0,1.6-0.1,2.2-0.3c-0.3,0.8-0.3,2.4-1.8,2.4C55.6,17,54.3,16.8,53.1,16.6z"/>
		<path d="M59.3,18.9v0.3c0,3.1,1.3,4,1.3,6.2c0,0.1,0,0.3,0,0.4c0.5-0.5,1-1,1.2-1.2l0.5,0.6c-0.5,0.4-1.3,1.1-2,1.7
			c-0.5,1-1.6,1.7-3.3,1.7c-2.3,0-3.3-0.6-3.3-2.4c0-1.5,0.7-2.4,1.4-2.4c0.7-1.2,1.1-2.9,1.4-4.3L59.3,18.9z M55.3,26.1
			c-0.2,0-0.4-0.1-0.7-0.2c0,1.1,0.6,1.6,1.6,1.6c0.6,0,1.6-0.8,1.6-2.2c0-1.2-0.8-2.2-0.9-4.5c-0.3,0.9-0.6,2.1-1,3.1
			c0.4,0.1,0.6,0.5,0.6,1C56.6,25.6,56,26.1,55.3,26.1z"/>
		<path d="M69.1,25.6C69,25.8,69,26,69,26.2c0,0.4,0.2,0.7,0.9,0.7c0.7,0,1.7-1,2.5-1.6H73c-0.9,0.9-3,3.4-4.4,3.4
			c-1.5,0-2.3-0.6-2.3-2c0-0.3,0-0.6,0.1-1l0.7-3.4c0-0.2,0.1-0.3,0.1-0.5c0-0.7-0.4-1.1-0.9-1.1c-0.4,0-0.8,0.1-1.2,0.4l-1.6,7.6
			h-2.7L63.5,16l2.8-0.4l-1,4.7c0.8-0.5,1.6-1,2.4-1c1,0,2.2,1.1,2.2,2.3c0,0.1,0,0.3,0,0.4L69.1,25.6z"/>
		<path d="M75.2,19.3l-1.3,6.4c0,0.2-0.1,0.4-0.1,0.6c0,0.4,0.2,0.7,0.9,0.7c0.7,0,1.7-1,2.5-1.6h0.6c-0.9,0.9-3,3.4-4.4,3.4
			s-2.3-0.6-2.3-2c0-0.3,0-0.6,0.1-1l1.3-6.4h2.7V19.3z M74.3,15.3c0.8,0,1.5,0.7,1.5,1.5s-0.7,1.5-1.5,1.5c-0.8,0-1.5-0.7-1.5-1.5
			S73.5,15.3,74.3,15.3z"/>
		<path d="M80.4,19.3l-0.2,0.9c0.7-0.5,1.4-0.9,2.2-0.9c0.8,0,1.3,0.5,1.3,1.2S83.2,22,82.3,22c-1,0-0.5-1.2-1.1-1.2
			s-0.9,0.2-1.3,0.6l-1.6,7.3h-2.6l2-9.4C77.7,19.3,80.4,19.3,80.4,19.3z"/>
		<path d="M86.5,25.6c-0.1,0.2-0.1,0.4-0.1,0.7c0,0.4,0.1,0.7,0.7,0.7c0.1,0,0.3,0,0.5-0.1c-0.5,1.6-1.3,1.7-2,1.7
			c-1.3,0-1.9-0.9-1.9-2c0-0.3,0-0.6,0.1-1L85,20h-0.6l0.1-0.7h0.6l0.6-2.6l2.8-0.4c0,0-0.3,1.3-0.6,3H89L88.8,20h-1.1L86.5,25.6z"
			/>
		<path d="M103.4,20.8l-1.5,7c-0.6,2.9-1.7,4.7-4.8,4.7c-1.8,0-2.6-1.3-2.6-2.6c0-1.3,0.8-2.6,2.3-2.6c0.7,0,1.8,0.1,1.8,1.3
			c0,0.2,0,0.5-0.1,0.7c-0.5-0.4-0.7-0.5-1.1-0.5c-0.9,0-1.3,0.7-1.3,1.4c0,0.7,0.4,1.3,1.2,1.3c0.8,0,1.4-0.4,1.9-2.3l0.7-3.4
			c-1.1,0.6-2.1,0.7-2.3,0.7c-3.1,0-4-2.2-4-4.8c0-3.6,2.5-7.2,6.6-7.2c1.7,0,3.5,0.7,3.5,2.5c0,1-0.4,1.7-1.3,1.7
			c-0.3,0-0.9-0.1-1.3-0.5c0.5-0.1,0.8-1.1,0.8-1.5c0-0.3-0.1-1.3-1.3-1.3c-2.1,0-4.2,3.5-4.2,6.5c0,1.7,0.6,3.1,2.2,3.1
			c0.7,0,1.2-0.2,1.6-0.7l0.8-3.5C101,20.8,103.4,20.8,103.4,20.8z"/>
		<path d="M107.7,27.3c0.7,0,1.3-0.5,1.9-1.4c0.1-1.3,0.7-2.1,1.4-2.2c0.7-1.2,1.1-2.9,1.4-4.3l2.7-0.6v0.3c0,3.1,1.3,4,1.3,6.2
			c0,0.1,0,0.3,0,0.4c0.5-0.5,1-1,1.2-1.2l0.5,0.6c-0.5,0.4-1.3,1.1-2,1.7c-0.5,1-1.6,1.7-3.3,1.7c-1.8,0-2.8-0.4-3.1-1.6
			c-0.8,1-1.7,1.6-3.3,1.6c-1.8,0-2.8-1.4-2.8-3c0-2.4,1-6.6,4.4-6.6c1.5,0,2.4,0.6,2.4,1.9c0,2.3-2.5,3.6-4.2,3.8
			c0,0.3-0.1,0.6-0.1,0.8C106.1,26.9,106.9,27.3,107.7,27.3z M108.7,20.1c-1,0-1.9,2.1-2.3,3.9c1.7,0,2.9-1.5,3-2.8
			C109.3,20.7,109.2,20.1,108.7,20.1z M111.2,26.1c-0.2,0-0.4-0.1-0.7-0.2c0,1.1,0.6,1.6,1.6,1.6c0.6,0,1.6-0.8,1.6-2.2
			c0-1.2-0.8-2.2-0.9-4.5c-0.3,0.9-0.6,2.1-1,3.1c0.4,0.1,0.6,0.5,0.6,1C112.4,25.6,111.9,26.1,111.2,26.1z"/>
		<path d="M122.1,16.3c0,0-0.3,1.3-0.6,3h1.1l-0.2,0.7h-1.1c-1.3,5.9-1.3,6.1-1.3,6.2c0,0.4,0.2,0.7,0.9,0.7c0.7,0,1.7-1,2.5-1.6
			h0.6c-0.9,0.9-3,3.4-4.4,3.4s-2.3-0.6-2.3-2c0-1,1-5,1.3-6.6H118l0.2-0.7h0.5l0.6-2.6L122.1,16.3z"/>
		<path d="M131.4,19.3l-1.3,6.4c0,0.2-0.1,0.4-0.1,0.6c0,0.4,0.2,0.7,0.9,0.7s1.7-1,2.5-1.6h0.6c-0.9,0.9-3,3.4-4.4,3.4
			c-1.2,0-2-0.4-2.3-1.4c-0.6,0.8-1.4,1.5-2.5,1.5c-1.8,0-2.3-1.3-2.3-2.4c0-3.2,1.2-7.1,4.9-7.1c0.4,0,0.9,0.2,1.3,0.5l0.1-0.5h2.6
			V19.3z M125,25.9c0,1.1,0.6,1.3,1.1,1.3c0.4,0,0.8-0.4,1.2-0.9c0-0.2,0.1-0.4,0.1-0.6l1-5c-0.3-0.3-0.7-0.3-0.9-0.3
			C126.1,20.3,125,23.3,125,25.9z"/>
		<path d="M137.1,15.5l-2.2,10.1c-0.1,0.3-0.1,0.4-0.1,0.6c0,0.4,0.2,0.7,0.9,0.7c0.7,0,1.7-1,2.5-1.6h0.6c-0.9,0.9-3,3.4-4.4,3.4
			c-1.4,0-2.3-0.6-2.3-2c0-0.3,0-0.6,0.1-1l2.1-9.7L137.1,15.5z"/>
		<path d="M142.3,16.3c0,0-0.3,1.3-0.6,3h1.1l-0.1,0.7h-1.1c-1.3,5.9-1.3,6.1-1.3,6.2c0,0.4,0.2,0.7,0.9,0.7s1.7-1,2.5-1.6h0.6
			c-0.9,0.9-3,3.4-4.4,3.4c-1.4,0-2.3-0.6-2.3-2c0-1,1-5,1.3-6.6h-0.6l0.2-0.7h0.6l0.6-2.6L142.3,16.3z"/>
		<path d="M146.7,27.3c0.9,0,2.5-1.1,3.1-2.5h0.8c-1.1,1.9-2.9,3.8-5.3,3.8c-1.8,0-2.8-1.4-2.8-3c0-2.4,1-6.6,4.4-6.6
			c1.5,0,2.4,0.6,2.4,1.9c0,2.3-2.5,3.6-4.2,3.8c0,0.3-0.1,0.6-0.1,0.8C145.1,26.9,145.9,27.3,146.7,27.3z M147.7,20.1
			c-1,0-1.9,2.1-2.3,3.9c1.7,0,2.9-1.5,3-2.8C148.3,20.7,148.2,20.1,147.7,20.1z"/>
		<path d="M156.3,28.6c-1.2,0-1.9-0.6-1.9-2c0-0.3,0-0.6,0.1-1l0.7-3.4c0-0.2,0.1-0.3,0.1-0.5c0-0.7-0.4-1.1-0.9-1.1
			c-0.4,0-0.8,0.1-1.2,0.4l-1.6,7.6h-2.7l2-9.4h2.7l-0.2,1c0.8-0.6,1.6-1,2.5-1c1,0,2.2,1.1,2.2,2.4c0,0.1,0,0.3,0,0.4
			c-0.1,0.6-0.9,3.9-0.9,4.3c0,0.3,0.2,0.6,0.7,0.6c0.1,0,0.3,0,0.5-0.1C157.7,28.5,156.9,28.6,156.3,28.6z"/>
	</g>
	<g>
		<path d="M16.4,28.8l1.8-8.9l-3.6,8.9H12v-8l-2.4,8H8.1l4.2-12.9c-1.8,0.5-3.1,2-3.1,4.2c0.2,1.1,0.4,1.1,0.4,1.3
			c-1.3,0-2-0.5-2-1.8c0-2.4,3.1-4.7,6-4.7c0.4,0,0.9,0,1.3,0.2v10.7L18.9,15h2.9l-2.9,13.8H16.4z"/>
		<path d="M25.3,27.3c0.9,0,2.5-1.1,3.1-2.5h0.9c-1.1,2-2.9,3.8-5.3,3.8c-1.8,0-2.7-1.4-2.7-2.9c0-2.4,1.1-6.5,4.3-6.5
			c1.4,0,2.4,0.7,2.4,2c0,2.4-2.4,3.6-4.2,3.8c0,0.4,0,0.5,0,0.7C23.8,27,24.5,27.3,25.3,27.3z M26.2,20.3c-1.1,0-2,2.2-2.4,3.8
			c1.6,0,2.9-1.4,2.9-2.9C26.9,20.8,26.7,20.3,26.2,20.3z"/>
		<path d="M32.3,19.4l-1.3,6.3c0,0.2,0,0.4,0,0.5c0,0.4,0.2,0.7,0.9,0.7s1.6-1.1,2.5-1.6h0.4c-0.9,0.9-2.9,3.3-4.3,3.3
			c-1.4,0-2.4-0.7-2.4-2c0-0.4,0-0.5,0.2-0.9l1.3-6.3H32.3z M31.4,15.6c0.9,0,1.4,0.7,1.4,1.4c0,0.7-0.7,1.4-1.4,1.4
			c-0.7,0-1.4-0.7-1.4-1.4C30,16.3,30.7,15.6,31.4,15.6z"/>
		<path d="M40.1,28.8c-1.3,0-2-0.7-2-2c0-0.4,0-0.5,0.2-0.9l0.7-3.4c0-0.2,0-0.4,0-0.5c0-0.7-0.4-1.1-0.9-1.1
			c-0.4,0-0.7,0.2-1.1,0.4l-1.6,7.6h-2.7l2-9.4h2.7l-0.2,1.1c0.7-0.5,1.6-1.1,2.4-1.1c1.1,0,2.2,1.1,2.2,2.4c0,0.2,0,0.4,0,0.4
			c-0.2,0.5-0.9,4-0.9,4.3c0,0.4,0.2,0.5,0.7,0.5c0.2,0,0.4,0,0.5,0C41.6,28.6,40.7,28.8,40.1,28.8z"/>
	</g>
</g>
</svg>
