<?xml version="1.0" encoding="utf-8"?>
<!-- Generator: Adobe Illustrator 23.0.1, SVG Export Plug-In . SVG Version: 6.00 Build 0)  -->
<svg version="1.1" id="Layer_4" xmlns="http://www.w3.org/2000/svg" xmlns:xlink="http://www.w3.org/1999/xlink" x="0px" y="0px"
	 viewBox="0 0 145.2 33" style="enable-background:new 0 0 145.2 33;" xml:space="preserve">
<g>
	<g>
		<path d="M44.7,21.9c-1,2.8-3.6,3.4-5.4,3.4c-2,0-4.2-1-4.2-4.9c0-4.2,1.4-9.6,6.5-9.6c1.8,0,3.3,0.7,3.3,2.6c0,1-0.4,1.8-1.3,1.8
			c-0.3,0-0.7-0.1-1.1-0.5c0.5-0.1,0.8-1.1,0.8-1.6c0-0.3-0.1-1.4-1.3-1.4c-2.4,0-3.9,4.9-3.9,8.3c0,2.5,0.5,3.6,2.5,3.6
			c1.5,0,2.9-0.6,3.6-1.8L44.7,21.9z"/>
		<path d="M53.3,15.6l-1.4,6.5c0,0.2-0.1,0.4-0.1,0.6c0,0.4,0.2,0.7,1,0.7s1.8-1.1,2.5-1.7H56c-0.9,0.9-3,3.4-4.5,3.4
			c-1.3,0-2.2-0.5-2.4-1.6c-0.9,0.8-1.9,1.6-2.8,1.6c-1.5,0-2.4-0.7-2.4-2.1c0-0.3,0-0.6,0.1-1l1.4-6.5h2.8L46.8,22
			c0,0.2-0.1,0.4-0.1,0.6c0,0.4,0.2,0.7,1,0.7c0.4,0,0.9-0.3,1.4-0.7c0-0.2,0.1-0.4,0.1-0.6l1.4-6.5h2.7V15.6z"/>
		<path d="M59.5,15.2v0.3c0,3.2,1.3,4.1,1.3,6.4c0,0.1,0,0.3,0,0.4c0.5-0.5,1-1,1.2-1.2l0.5,0.7c-0.5,0.4-1.3,1.1-2.1,1.7
			c-0.5,1.1-1.6,1.8-3.4,1.8c-2.2,0-3.3-0.6-3.3-2.5c0-1.5,0.7-2.4,1.5-2.5c0.7-1.2,1.1-2.9,1.5-4.4L59.5,15.2z M55.5,22.5
			c-0.2,0-0.5-0.1-0.7-0.2c0,1.1,0.6,1.6,1.6,1.6c0.7,0,1.6-0.8,1.6-2.3c0-1.2-0.9-2.2-0.9-4.6c-0.3,0.9-0.6,2.2-1,3.1
			c0.5,0.2,0.6,0.5,0.6,1.1C56.8,22,56.2,22.5,55.5,22.5z"/>
		<path d="M66.7,12.5c0,0-0.3,1.3-0.7,3h1.1l-0.2,0.8h-1c-1.3,6.1-1.3,6.2-1.3,6.3c0,0.4,0.2,0.7,1,0.7c0.8,0,1.8-1.1,2.5-1.7h0.7
			c-0.9,0.9-3,3.4-4.5,3.4s-2.4-0.7-2.4-2.1c0-1,1-5.1,1.3-6.7h-0.6l0.2-0.8h0.6l0.6-2.6L66.7,12.5z"/>
		<path d="M74.4,18.2c0.1,0.1,0.3,0.2,0.6,0.2c0.9,0,1.3-0.7,2-0.9l0.1,0.4c-0.6,0.7-1.6,1.4-2.7,1.7c-0.4,3.8-2.5,5.7-4.4,5.7
			c-2,0-2.9-0.9-2.9-3.1c0-4.7,2.4-6.7,5-6.7C73.9,15.4,74.3,16.8,74.4,18.2z M72.9,19.7c-0.6,0-0.8-0.4-0.8-0.9
			c0-0.6,0.3-1.1,0.8-1.3c-0.1-0.6-0.3-1-0.8-1c-1.8,0-2.6,3.9-2.6,5.4c0,1.1,0.5,1.5,1.3,1.5C72,23.4,72.6,21.6,72.9,19.7z"/>
		<path d="M86.5,25.1c-1.2,0-2-0.7-2-2.1c0-0.3,0-0.6,0.1-1l0.7-3.4c0-0.2,0.1-0.3,0.1-0.5c0-0.7-0.4-1.1-0.9-1.1
			c-0.4,0-0.7,0.1-1.1,0.3c0.1,0.2,0.1,0.5,0.1,0.7c0,0.1,0,0.3,0,0.4l-1.4,6.7h-2.8l1.4-6.5c0-0.2,0.1-0.3,0.1-0.5
			c0-0.7-0.4-1.1-0.9-1.1s-0.8,0.1-1.2,0.4l-1.6,7.7h-2.8l2-9.6h2.8l-0.2,1c0.8-0.6,1.6-1,2.5-1c0.7,0,1.5,0.5,1.9,1.2
			c0.9-0.7,1.8-1.2,2.8-1.2c1.1,0,2.2,1.1,2.2,2.4c0,0.2,0,0.3,0,0.4c-0.1,0.6-0.9,4-0.9,4.4c0,0.3,0.2,0.6,0.7,0.6
			c0.1,0,0.3,0,0.5-0.1C87.9,25,87.1,25.1,86.5,25.1z"/>
		<path d="M101.2,12.8l-2.6,12.3h-2.8l2.7-12.7c-2.1,0-3.8,0.6-3.8,3.8c0,1,0.2,1.1,0.3,1.3c-1.3,0-2-0.5-2-1.9c0-2.5,1.8-5,6.5-5
			c0.8,0,3,0.3,4.9,0.3c0.9,0,1.7-0.1,2.2-0.3c-0.3,0.8-0.3,2.5-1.8,2.5C103.7,13.3,102.5,13,101.2,12.8z"/>
		<path d="M107.5,15.2v0.3c0,3.2,1.3,4.1,1.3,6.4c0,0.1,0,0.3,0,0.4c0.5-0.5,1-1,1.2-1.2l0.5,0.7c-0.5,0.4-1.3,1.1-2.1,1.7
			c-0.5,1.1-1.6,1.8-3.4,1.8c-2.2,0-3.3-0.6-3.3-2.5c0-1.5,0.7-2.4,1.5-2.5c0.7-1.2,1.1-2.9,1.5-4.4L107.5,15.2z M103.5,22.5
			c-0.2,0-0.5-0.1-0.7-0.2c0,1.1,0.6,1.6,1.6,1.6c0.7,0,1.6-0.8,1.6-2.3c0-1.2-0.9-2.2-0.9-4.6c-0.3,0.9-0.6,2.2-1,3.1
			c0.5,0.2,0.6,0.5,0.6,1.1C104.7,22,104.2,22.5,103.5,22.5z"/>
		<path d="M117.5,22.1c-0.1,0.2-0.1,0.4-0.1,0.6c0,0.4,0.2,0.7,1,0.7s1.8-1.1,2.5-1.7h0.7c-0.9,0.9-3,3.4-4.5,3.4s-2.4-0.7-2.4-2.1
			c0-0.3,0-0.6,0.1-1l0.7-3.4c0-0.2,0.1-0.3,0.1-0.5c0-0.7-0.4-1.1-0.9-1.1s-0.8,0.1-1.2,0.4l-1.6,7.7h-2.8l2.8-13l2.8-0.4l-1,4.8
			c0.8-0.6,1.7-1,2.5-1c1,0,2.2,1.1,2.2,2.4c0,0.2,0,0.3,0,0.5L117.5,22.1z"/>
		<path d="M123.8,15.6l-1.4,6.5c0,0.2-0.1,0.4-0.1,0.6c0,0.4,0.2,0.7,1,0.7s1.8-1.1,2.5-1.7h0.7c-0.9,0.9-3,3.4-4.5,3.4
			s-2.4-0.7-2.4-2.1c0-0.3,0-0.6,0.1-1l1.4-6.5h2.7V15.6z M122.9,11.5c0.8,0,1.5,0.7,1.5,1.5s-0.7,1.5-1.5,1.5s-1.5-0.7-1.5-1.5
			C121.4,12.2,122.1,11.5,122.9,11.5z"/>
		<path d="M129.1,15.6l-0.2,1c0.7-0.5,1.5-1,2.3-1c0.9,0,1.4,0.5,1.4,1.2s-0.5,1.5-1.4,1.5c-1.1,0-0.5-1.3-1.1-1.3
			c-0.6,0-0.9,0.2-1.3,0.6l-1.6,7.5h-2.8l2-9.6L129.1,15.6L129.1,15.6z"/>
		<path d="M135.3,22.1c-0.1,0.2-0.1,0.5-0.1,0.7c0,0.4,0.2,0.7,0.7,0.7c0.1,0,0.3,0,0.5-0.1c-0.5,1.6-1.4,1.8-2,1.8
			c-1.3,0-1.9-0.9-1.9-2.1c0-0.3,0-0.7,0.1-1l1.2-5.7h-0.6l0.2-0.8h0.6l0.6-2.6l2.8-0.4c0,0-0.3,1.3-0.7,3h1.1l-0.2,0.8h-1.1
			L135.3,22.1z"/>
	</g>
	<g>
		<path d="M16.4,25l2-9l-3.6,9h-2.7v-8.1L9.6,25H8l4.3-12.9c-2,0.5-3,2-3,4.1c0,0.9,0.2,1.1,0.2,1.3c-1.3,0-2-0.4-2-1.8
			c0-2.3,3.2-4.8,6.1-4.8c0.4,0,0.9,0,1.3,0.2v10.9L18.9,11h3l-3,14H16.4z"/>
		<path d="M25.5,15.5l-1.4,6.4c0,0.2-0.2,0.4-0.2,0.5c0,0.4,0.2,0.7,0.9,0.7c0.4,0,0.9-0.4,1.4-0.7l1.6-7h2.7l-2.3,10.9
			c-0.4,2.7-2.1,3.2-3.2,3.2c-1.1,0-2.1-0.9-2.1-2c0-1.8,1.4-2.3,3.2-2.9l0.4-1.3c-0.9,0.7-1.8,1.4-2.5,1.4c-1.4,0-2.3-0.7-2.3-2
			c0-0.4,0-0.5,0.2-0.9l1.3-6.4h2.5V15.5z M24.4,28c0.4,0,0.9-0.4,1.1-1.4l0.2-1.1c-1.3,0.4-2.1,0.9-2.1,2
			C23.7,27.7,24.1,28,24.4,28z"/>
	</g>
</g>
</svg>
