<?xml version="1.0" encoding="utf-8"?>
<!-- Generator: Adobe Illustrator 16.0.0, SVG Export Plug-In . SVG Version: 6.00 Build 0)  -->
<!DOCTYPE svg PUBLIC "-//W3C//DTD SVG 1.1//EN" "http://www.w3.org/Graphics/SVG/1.1/DTD/svg11.dtd">
<svg version="1.1" id="Layer_1" xmlns="http://www.w3.org/2000/svg" xmlns:xlink="http://www.w3.org/1999/xlink" x="0px" y="0px"
	 width="300px" height="300px" viewBox="0 0 300 300" enable-background="new 0 0 300 300" xml:space="preserve">
<g>
	<g>
		<path fill="#3C3A40" d="M248,89H51c-4.694,0-8.5-3.806-8.5-8.5S46.306,72,51,72h197c4.694,0,8.5,3.806,8.5,8.5S252.694,89,248,89z
			"/>
	</g>
	<g>
		<path fill="#3C3A40" d="M248,159H51c-4.694,0-8.5-3.806-8.5-8.5s3.806-8.5,8.5-8.5h197c4.694,0,8.5,3.806,8.5,8.5
			S252.694,159,248,159z"/>
	</g>
	<g>
		<path fill="#3C3A40" d="M248,229H51c-4.694,0-8.5-3.806-8.5-8.5s3.806-8.5,8.5-8.5h197c4.694,0,8.5,3.806,8.5,8.5
			S252.694,229,248,229z"/>
	</g>
</g>
</svg>
