<?xml version="1.0" encoding="UTF-8"?>
<!-- Generator: Adobe Illustrator 16.0.0, SVG Export Plug-In . SVG Version: 6.00 Build 0)  -->
<!DOCTYPE svg PUBLIC "-//W3C//DTD SVG 1.1//EN" "http://www.w3.org/Graphics/SVG/1.1/DTD/svg11.dtd">
<svg version="1.1" id="Layer_1" xmlns="http://www.w3.org/2000/svg" xmlns:xlink="http://www.w3.org/1999/xlink" x="0px" y="0px" width="25.083px" height="18.958px" viewBox="0 0 25.083 18.958" enable-background="new 0 0 25.083 18.958" xml:space="preserve">
<g>
	<g>
		<path fill="#E2E2E2" d="M4.501,18.15c-0.862,0-1.6-0.616-1.756-1.465L0.822,6.23C0.646,5.259,1.29,4.326,2.257,4.148l17.999-3.311    c0.109-0.02,0.218-0.029,0.325-0.029c0.862,0,1.601,0.616,1.757,1.466L24.26,12.73c0.087,0.469-0.015,0.944-0.286,1.338    c-0.271,0.394-0.679,0.657-1.149,0.743l-17.998,3.31C4.718,18.141,4.609,18.15,4.501,18.15L4.501,18.15z"/>
		<path fill="#343433" d="M20.581,1.558c0.491,0,0.927,0.35,1.019,0.851l1.923,10.457c0.104,0.563-0.269,1.104-0.832,1.207    l-17.999,3.31C4.627,17.395,4.564,17.4,4.501,17.4c-0.49,0-0.926-0.35-1.018-0.851L1.56,6.095C1.457,5.53,1.829,4.989,2.393,4.886    l17.999-3.311C20.455,1.563,20.518,1.558,20.581,1.558 M20.581,0.058c-0.154,0-0.308,0.014-0.459,0.042l-18,3.311    C0.748,3.663-0.166,4.987,0.083,6.363l1.925,10.458c0.221,1.204,1.27,2.079,2.493,2.079c0.155,0,0.311-0.015,0.463-0.043    l17.997-3.309c0.665-0.121,1.245-0.496,1.63-1.054s0.529-1.234,0.406-1.901L23.075,2.138C22.854,0.933,21.805,0.058,20.581,0.058    L20.581,0.058z"/>
	</g>
	
		<rect x="1.641" y="4.505" transform="matrix(-0.9835 0.1808 -0.1808 -0.9835 24.473 8.9689)" fill="#343433" width="20.374" height="2.19"/>
	
		<rect x="3.272" y="7.544" transform="matrix(-0.9835 0.1809 -0.1809 -0.9835 25.8493 14.7016)" fill="#FFFFFF" width="17.964" height="1.971"/>
	<circle fill="#A3B1C6" cx="20.666" cy="11.65" r="1.136"/>
	<circle fill="#FFFFFF" cx="19.208" cy="11.919" r="1.136"/>
</g>
</svg>