<?xml version="1.0" encoding="UTF-8"?>
<!-- Generator: Adobe Illustrator 16.0.0, SVG Export Plug-In . SVG Version: 6.00 Build 0)  -->
<!DOCTYPE svg PUBLIC "-//W3C//DTD SVG 1.1//EN" "http://www.w3.org/Graphics/SVG/1.1/DTD/svg11.dtd">
<svg version="1.1" id="Layer_1" xmlns="http://www.w3.org/2000/svg" xmlns:xlink="http://www.w3.org/1999/xlink" x="0px" y="0px" width="30px" height="30px" viewBox="0 0 30 30" enable-background="new 0 0 30 30" xml:space="preserve">
<g>
	<g>
		<g>
			<g>
				<g>
					<g>
						<path fill="#EFEFEF" d="M19.001,27.711c-0.092,0.035-0.185,0.052-0.283,0.063c-0.045,0.005-0.091-0.001-0.136-0.001H3.974        c-0.141,0-0.276-0.015-0.401-0.061c-0.076-0.029-0.147-0.061-0.215-0.104c-0.036-0.023-0.071-0.046-0.104-0.072        c-0.133-0.105-0.245-0.238-0.319-0.391c-0.046-0.095-0.083-0.196-0.104-0.305c-0.012-0.062-0.019-0.123-0.019-0.188v-5.568        v-1.563V3.399c0-0.631,0.531-1.17,1.161-1.17h14.608c0.46,0,0.85,0.288,1.029,0.684c0.065,0.145,0.095,0.319,0.095,0.487        v23.254C19.706,27.132,19.42,27.54,19.001,27.711z"/>
					</g>
				</g>
			</g>
			<path fill="#A3B1C6" d="M2.15,26.773l0.188-12.016c-1.292,0,1.474-0.346,1.875-0.346c4.694,0,8.004,3.784,8.004,8.479     c0,1.802-0.716,4.518-2.002,5.883l-7.311-0.507L2.15,26.773z"/>
		</g>
		<g>
			<g>
				<path fill="#3C3A40" d="M20.936,3.377C20.936,2.065,19.869,1,18.557,1H3.961C2.648,1,1.584,2.065,1.584,3.377v23.247      C1.584,27.937,2.648,29,3.961,29h14.596c1.313,0,2.379-1.063,2.379-2.376V3.377L20.936,3.377z M19.001,27.711      c-0.092,0.035-0.185,0.052-0.284,0.063c-0.044,0.005-0.09-0.001-0.137-0.001H3.974c-0.142,0-0.276-0.015-0.401-0.061      c-0.077-0.029-0.148-0.061-0.216-0.104c-0.036-0.023-0.071-0.046-0.104-0.072c-0.133-0.105-0.245-0.238-0.319-0.391      c-0.046-0.095-0.083-0.196-0.104-0.305c-0.012-0.062-0.018-0.123-0.018-0.188v-5.568v-1.563V3.399c0-0.631,0.53-1.17,1.161-1.17      H18.58c0.461,0,0.851,0.288,1.031,0.684c0.065,0.145,0.094,0.319,0.094,0.487v23.254C19.705,27.132,19.42,27.54,19.001,27.711z"/>
				<path fill="#3C3A40" d="M5.099,2.856c-0.827,0-1.502,0.673-1.502,1.502c0,0.827,0.675,1.501,1.502,1.501      c0.829,0,1.502-0.674,1.502-1.501C6.601,3.529,5.928,2.856,5.099,2.856z M5.099,4.721c-0.2,0-0.362-0.163-0.362-0.364      c0-0.201,0.162-0.362,0.362-0.362s0.363,0.161,0.363,0.362C5.462,4.558,5.299,4.721,5.099,4.721z"/>
			</g>
		</g>
	</g>
	<g>
		<g>
			<g>
				<g>
					<path fill="#EFEFEF" d="M27.362,26.719c0,0.677-0.553,1.228-1.229,1.228h-8.426c-0.677,0-1.229-0.551-1.229-1.228V7.41       c0-0.678,0.551-1.228,1.229-1.228h8.426c0.676,0,1.229,0.549,1.229,1.228V26.719L27.362,26.719z"/>
				</g>
			</g>
			<g>
				<g>
					<path fill="#ED6D4F" d="M27.362,14.457l-5.441,4.928l-5.442-5.251c0,0,0-4.121,0-6.724c0-0.678,0.551-1.228,1.229-1.228h8.426       c0.676,0,1.229,0.549,1.229,1.228V14.457z"/>
				</g>
			</g>
		</g>
		<g>
			<g>
				<path fill="#3C3A40" d="M26.134,5.129h-8.426c-1.259,0-2.282,1.022-2.282,2.281v19.309c0,1.258,1.023,2.281,2.282,2.281h8.426      c1.257,0,2.282-1.023,2.282-2.281V7.41C28.414,6.151,27.391,5.129,26.134,5.129z M27.362,26.719      c0,0.677-0.553,1.228-1.229,1.228h-8.426c-0.677,0-1.229-0.551-1.229-1.228V7.41c0-0.678,0.551-1.228,1.229-1.228h8.426      c0.676,0,1.229,0.549,1.229,1.228V26.719L27.362,26.719z"/>
				<path fill="#3C3A40" d="M18.641,9.75c0.759,0,1.378-0.617,1.378-1.377c0-0.76-0.619-1.377-1.378-1.377s-1.376,0.617-1.376,1.377      C17.265,9.134,17.882,9.75,18.641,9.75z M18.641,8.048c0.179,0,0.325,0.146,0.325,0.325s-0.146,0.324-0.325,0.324      c-0.178,0-0.324-0.146-0.324-0.324S18.463,8.048,18.641,8.048z"/>
				<circle fill="#3C3A40" cx="20.947" cy="8.46" r="0.469"/>
			</g>
		</g>
	</g>
</g>
</svg>