<?xml version="1.0" encoding="UTF-8"?>
<!-- Generator: Adobe Illustrator 16.0.0, SVG Export Plug-In . SVG Version: 6.00 Build 0)  -->
<!DOCTYPE svg PUBLIC "-//W3C//DTD SVG 1.1//EN" "http://www.w3.org/Graphics/SVG/1.1/DTD/svg11.dtd">
<svg version="1.1" id="Layer_1" xmlns="http://www.w3.org/2000/svg" xmlns:xlink="http://www.w3.org/1999/xlink" x="0px" y="0px" width="24.32px" height="20.566px" viewBox="0 0 24.32 20.566" enable-background="new 0 0 24.32 20.566" xml:space="preserve">
<g>
	<g>
		<g>
			<g>
				<g>
					<path fill="#EFEFEE" d="M17.384,6.764c0.494,0,1.187,0.285,1.537,0.633l4.126,4.085c0.352,0.348,0.64,1.037,0.64,1.531v3.92       c0,0.494-0.405,0.898-0.899,0.898H4.021c-0.495,0-0.899-0.404-0.899-0.898v-9.27c0-0.495,0.405-0.899,0.899-0.899H17.384z"/>
				</g>
			</g>
			<g>
				<g>
					<path fill="#343433" d="M22.787,18.467H4.021c-0.845,0-1.533-0.688-1.533-1.533v-9.27c0-0.845,0.688-1.533,1.533-1.533h13.362       c0.662,0,1.515,0.351,1.984,0.816l4.125,4.084c0.472,0.467,0.827,1.32,0.827,1.982v3.92       C24.32,17.779,23.632,18.467,22.787,18.467z M4.021,7.399c-0.144,0-0.265,0.121-0.265,0.265v9.27       c0,0.143,0.121,0.266,0.265,0.266h18.766c0.144,0,0.265-0.123,0.265-0.266v-3.92c0-0.326-0.219-0.852-0.451-1.08l-4.125-4.085       c-0.233-0.23-0.764-0.449-1.092-0.449H4.021z"/>
				</g>
			</g>
		</g>
		<g>
			<g>
				<circle fill="#EFEFEE" cx="7.476" cy="17.885" r="2.046"/>
			</g>
			<g>
				<path fill="#343433" d="M7.477,20.566c-1.478,0-2.681-1.203-2.681-2.682c0-1.476,1.203-2.679,2.681-2.679      c1.477,0,2.68,1.203,2.68,2.679C10.156,19.363,8.954,20.566,7.477,20.566z M7.477,16.476c-0.779,0-1.412,0.633-1.412,1.409      c0,0.779,0.633,1.412,1.412,1.412c0.777,0,1.411-0.633,1.411-1.412C8.887,17.108,8.254,16.476,7.477,16.476z"/>
			</g>
		</g>
		<g>
			<g>
				<circle fill="#EFEFEE" cx="19.279" cy="17.885" r="2.046"/>
			</g>
			<g>
				<path fill="#343433" d="M19.279,20.566c-1.478,0-2.681-1.203-2.681-2.682c0-1.476,1.203-2.679,2.681-2.679      s2.681,1.203,2.681,2.679C21.96,19.363,20.757,20.566,19.279,20.566z M19.279,16.476c-0.778,0-1.411,0.633-1.411,1.409      c0,0.779,0.633,1.412,1.411,1.412s1.411-0.633,1.411-1.412C20.69,17.108,20.058,16.476,19.279,16.476z"/>
			</g>
		</g>
		<g>
			<g>
				<g>
					<path fill="#EFEFEE" d="M14.37,13.526c0,0.493-0.404,0.898-0.898,0.898H1.534c-0.495,0-0.899-0.405-0.899-0.898V5.093       c0-0.495,0.404-0.899,0.899-0.899h11.938c0.494,0,0.898,0.404,0.898,0.899V13.526z"/>
				</g>
			</g>
			<g>
				<g>
					<path fill="#343433" d="M13.472,15.06H1.534C0.688,15.06,0,14.371,0,13.526V5.093C0,4.247,0.688,3.56,1.534,3.56h11.938       c0.846,0,1.533,0.687,1.533,1.533v8.434C15.005,14.371,14.317,15.06,13.472,15.06z M1.534,4.828       c-0.144,0-0.265,0.12-0.265,0.265v8.434c0,0.142,0.122,0.264,0.265,0.264h11.938c0.144,0,0.264-0.122,0.264-0.264V5.093       c0-0.145-0.12-0.265-0.264-0.265H1.534z"/>
				</g>
			</g>
		</g>
		<g>
			<g>
				<path fill="#343433" d="M23.476,12.855H18.92c-0.845,0-1.534-0.689-1.534-1.535V6.817c0-0.35,0.284-0.635,0.635-0.635      s0.635,0.285,0.635,0.635v4.503c0,0.145,0.121,0.266,0.265,0.266h4.556c0.352,0,0.635,0.283,0.635,0.635      C24.11,12.57,23.827,12.855,23.476,12.855z"/>
			</g>
		</g>
		<g>
			<g>
				<g>
					<path fill="#EFEFEF" d="M7.458,1.268c-1.868,0-3.387,1.52-3.387,3.388c0,1.869,1.519,3.387,3.387,3.387       c1.868,0,3.388-1.519,3.388-3.387C10.847,2.788,9.327,1.268,7.458,1.268z"/>
				</g>
				<g>
					<path fill="#343433" d="M7.458,0C4.891,0,2.803,2.088,2.803,4.656c0,2.568,2.088,4.657,4.656,4.657s4.656-2.089,4.656-4.657       C12.115,2.088,10.026,0,7.458,0z M7.458,8.043c-1.868,0-3.387-1.519-3.387-3.387c0-1.868,1.519-3.388,3.387-3.388       c1.868,0,3.388,1.52,3.388,3.388C10.847,6.524,9.327,8.043,7.458,8.043z"/>
				</g>
			</g>
		</g>
	</g>
	<g>
		<path fill="#A3B1C6" d="M7.531,5.834L5.182,3.347c-0.19-0.201-0.181-0.517,0.02-0.707c0.201-0.19,0.518-0.18,0.707,0.02    l1.861,1.97l1.28-0.576C9.299,3.94,9.596,4.053,9.71,4.306c0.113,0.252,0.001,0.548-0.251,0.661L7.531,5.834z"/>
	</g>
</g>
</svg>