<?xml version="1.0" encoding="utf-8"?>
<!-- Generator: Adobe Illustrator 16.0.0, SVG Export Plug-In . SVG Version: 6.00 Build 0)  -->
<!DOCTYPE svg PUBLIC "-//W3C//DTD SVG 1.1//EN" "http://www.w3.org/Graphics/SVG/1.1/DTD/svg11.dtd">
<svg version="1.1" id="Layer_1" xmlns="http://www.w3.org/2000/svg" xmlns:xlink="http://www.w3.org/1999/xlink" x="0px" y="0px"
	 width="279.679px" height="231.703px" viewBox="0 0 279.679 231.703" enable-background="new 0 0 279.679 231.703"
	 xml:space="preserve">
<g>
	<path fill="#3C3A40" d="M277.681,34.216c-2.062-3.028-5.486-4.765-9.396-4.765H91.874c-6.386,0-11.388,4.855-11.388,11.053
		c0,6.195,5.002,11.047,11.388,11.047h159.815l-25.406,66.25H93.432L45.298,7.063C43.457,2.838,39.261,0,34.858,0H11.394
		C5.111,0,0,5.169,0,11.524C0,17.879,5.111,23.05,11.394,23.05h16.003l37.679,86.462c0.059,0.24,0.142,0.488,0.258,0.767
		l24.613,55.171c1.855,4.25,5.953,6.998,10.438,6.998h124.775c6.273,0,11.378-5.168,11.378-11.52c0-6.357-5.104-11.53-11.378-11.53
		H107.816l-4.538-9.5h130.798c4.869,0,8.943-2.712,10.632-7.075l34.204-88.256C280.265,41.088,279.813,37.311,277.681,34.216z"/>
	<path fill="#3C3A40" d="M114.502,178.623c-14.633,0-26.537,11.908-26.537,26.545c0,14.631,11.904,26.535,26.537,26.535
		c14.635,0,26.542-11.904,26.542-26.535c0.001-7.08-2.763-13.744-7.781-18.762C128.245,181.387,121.582,178.623,114.502,178.623z
		 M114.674,196.352c4.971,0,9,4.029,9,9s-4.029,9-9,9s-9-4.029-9-9S109.704,196.352,114.674,196.352z"/>
	<path fill="#3C3A40" d="M210.937,178.623c-14.62,0-26.514,11.908-26.514,26.545c0,14.631,11.894,26.535,26.514,26.535
		c14.643,0,26.555-11.904,26.555-26.535C237.491,190.531,225.579,178.623,210.937,178.623z M210.957,214.352c-4.971,0-9-4.029-9-9
		s4.029-9,9-9s9,4.029,9,9S215.928,214.352,210.957,214.352z"/>
</g>
</svg>
