<svg enable-background="new 0 0 29.1 22.6" height="22.639" viewBox="0 0 29.1 22.6" width="29.075" xmlns="http://www.w3.org/2000/svg"><g><path d="m28.9 3.4c-.1-.2-.4-.3-.6-.3h-19c-.3 0-.7.3-.7.8 0 .4.3.8.8.8h17.9l-3.1 8h-15l-5.3-12.3c-.1-.2-.4-.4-.7-.4h-2.5c-.4 0-.7.3-.7.8 0 .4.3.8.8.8h2l4.2 9.6 2.3 5.4c.1.2.4.4.7.4h13.4c.4 0 .8-.3.8-.8 0-.4-.3-.8-.8-.8h-12.9l-.6-1.4h14.8c.3 0 .6-.2.7-.5l3.6-9.4c.1-.2.1-.5-.1-.7z"/><path d="m11.5 17.9c-1.3 0-2.4 1.1-2.4 2.4s1.1 2.4 2.4 2.4 2.4-1.1 2.4-2.4c0-1.4-1.1-2.4-2.4-2.4zm0 3.2c-.5 0-.9-.4-.9-.9s.4-.9.9-.9.9.4.9.9-.4.9-.9.9z"/><path d="m21.8 17.9c-1.3 0-2.4 1.1-2.4 2.4s1.1 2.4 2.4 2.4 2.4-1.1 2.4-2.4c0-1.4-1-2.4-2.4-2.4zm0 3.2c-.5 0-.9-.4-.9-.9s.4-.9.9-.9.9.4.9.9-.4.9-.9.9z"/></g></svg>