<?xml version="1.0" encoding="UTF-8"?>
<!-- Generator: Adobe Illustrator 16.0.0, SVG Export Plug-In . SVG Version: 6.00 Build 0)  -->
<!DOCTYPE svg PUBLIC "-//W3C//DTD SVG 1.1//EN" "http://www.w3.org/Graphics/SVG/1.1/DTD/svg11.dtd">
<svg version="1.1" id="Layer_1" xmlns="http://www.w3.org/2000/svg" xmlns:xlink="http://www.w3.org/1999/xlink" x="0px" y="0px" width="29.075px" height="22.639px" viewBox="0 0 29.075 22.639" enable-background="new 0 0 29.075 22.639" xml:space="preserve">
<g>
	<g>
		<g>
			<path fill="#ED6D4F" d="M28.942,3.43c-0.139-0.205-0.371-0.327-0.619-0.327H9.37c-0.415,0-0.751,0.336-0.751,0.751     c0,0.414,0.336,0.75,0.751,0.75h17.858l-3.094,8.002H9.227L3.932,0.45C3.813,0.177,3.542,0,3.243,0H0.722     C0.307,0-0.029,0.336-0.029,0.75c0,0.415,0.336,0.751,0.751,0.751h2.029l4.194,9.628c0.004,0.014,0.002,0.025,0.007,0.038     l2.321,5.374c0.119,0.275,0.39,0.455,0.688,0.455h13.405c0.415,0,0.75-0.335,0.75-0.75c0-0.416-0.335-0.751-0.75-0.751H10.456     L9.858,14.11h14.789c0.312,0,0.59-0.191,0.701-0.481l3.676-9.503C29.114,3.895,29.083,3.634,28.942,3.43z"/>
		</g>
		<g>
			<path fill="#ED6D4F" d="M11.479,17.882c-1.313,0-2.379,1.067-2.379,2.379s1.066,2.378,2.379,2.378s2.379-1.066,2.379-2.378     S12.791,17.882,11.479,17.882z M11.479,21.138c-0.484,0-0.878-0.394-0.878-0.877c0-0.484,0.394-0.878,0.878-0.878     s0.878,0.394,0.878,0.878C12.356,20.745,11.963,21.138,11.479,21.138z"/>
		</g>
		<g>
			<path fill="#ED6D4F" d="M21.84,17.882c-1.311,0-2.377,1.067-2.377,2.379s1.066,2.378,2.377,2.378c1.313,0,2.38-1.066,2.38-2.378     S23.152,17.882,21.84,17.882z M21.84,21.138c-0.483,0-0.876-0.394-0.876-0.877c0-0.484,0.393-0.878,0.876-0.878     c0.485,0,0.879,0.394,0.879,0.878C22.719,20.745,22.325,21.138,21.84,21.138z"/>
		</g>
	</g>
</g>
</svg>