<?xml version="1.0" encoding="utf-8"?>
<!-- Generator: Adobe Illustrator 22.0.1, SVG Export Plug-In . SVG Version: 6.00 Build 0)  -->
<svg version="1.1" id="Layer_1" xmlns="http://www.w3.org/2000/svg" xmlns:xlink="http://www.w3.org/1999/xlink" x="0px" y="0px"
	 viewBox="0 0 800 300" style="enable-background:new 0 0 800 300;" xml:space="preserve">
<style type="text/css">
	.st0{fill:#FF5100;}
	.st1{fill:#124B8A;}
	.st2{fill:#FFFFFF;}
</style>
<g>
	<g>
		<polygon class="st0" points="7.5,84.3 33.9,154 33.9,84.3 		"/>
		<rect x="33.9" y="9.3" class="st1" width="281.4" height="281.4"/>
		<path class="st2" d="M68.4,180"/>
		<path class="st2" d="M140.3,168.9v-1.2C140.3,168.1,140.3,168.5,140.3,168.9"/>
		<path class="st2" d="M285.5,143.8c9.6-4.6,14.4-14.7,14.4-25.1c0-12.3-7.6-24-18.5-29.5c-11-5.5-23.1-4.9-35-4.9l-30.5,0.1
			l0,131.3h39.6c12.6-0.3,26-1,36.5-8.7c10.1-7.6,16-18.5,16-31.3C308,160.8,300,148.5,285.5,143.8 M240.3,107.9l11.1,0
			c5.2,0,12.4-0.3,16,1.2c4.8,1.9,8.2,6.2,8.2,11.5c0,5-2.9,9.9-7.5,12.1c-4.6,2.1-11.4,1.9-16.5,1.9l-11.3,0V107.9z M277.2,187.4
			c-6.4,4.3-13,4.6-20.1,4.6h-16.8v-33.6h17.3c5.9,0,11.7-0.2,17.2,2.7c5.7,3.2,8.7,7.1,8.7,13.5
			C283.6,180.1,281.6,184.4,277.2,187.4"/>
		<polygon class="st1" points="363.1,49.2 368.8,49.2 387,94.8 405.4,49.2 411.1,49.2 389.5,101.3 384.6,101.3 		"/>
		<path class="st1" d="M419.2,49.2h12.4c4.9,0,10.4,0.1,14.8,2.6c5.3,3,8.1,8.4,8.1,14.4c0,8.6-6.9,15.4-15.4,15.7l14.6,19.5h-6.5
			l-17.7-23.6h1.6c3.7,0,7.9,0.1,11.3-1.4c4.3-2,6.8-5.9,6.8-10.6c0-3.6-1.9-7.3-4.9-9.3c-3.5-2.5-7.7-2.5-11.8-2.5h-8.2v47.4h-5.2
			V49.2z"/>
		<rect x="463.9" y="49.2" class="st1" width="5.2" height="52.1"/>
		<path class="st1" d="M505,86.6c-0.3,4.1-0.1,7.1-2.8,10.4c-2.8,3.5-6.8,5.1-11.1,5.1c-7.6,0-13.7-5.7-13.9-13.3h5.1
			c0.4,4.9,4.3,8.2,9.2,8.2c3.4,0,6.4-2,7.6-5.2c0.7-2,0.6-4.7,0.6-6.9V49.2h5.2V86.6z"/>
		<polygon class="st1" points="517.7,49.2 546.2,49.2 546.2,53.9 522.9,53.9 522.9,72.7 545.4,72.7 545.4,77.4 522.9,77.4 
			522.9,96.6 546.2,96.6 546.2,101.3 517.7,101.3 		"/>
		<path class="st1" d="M372.9,123.9v31.6c0,3.7,0.4,7.7,2.4,11c2.2,3.4,6.1,5.4,10.1,5.4c3.7,0,7.4-1.7,9.6-4.7
			c2.5-3.4,2.9-7.6,2.9-11.6v-31.6h5.2v31.6c0,5.3-0.5,10.4-3.9,14.7c-3.2,4.3-8.5,6.6-13.8,6.6c-5.2,0-10.3-2.1-13.6-6.2
			c-3.6-4.4-4.2-9.7-4.2-15.2v-31.6H372.9z"/>
		<polygon class="st1" points="415.8,123.9 422.9,123.9 452.1,167.1 452.1,123.9 457.3,123.9 457.3,176 452.1,176 421.1,130.1 
			421.1,176 415.8,176 		"/>
		<rect x="470" y="123.9" class="st1" width="5.2" height="52.1"/>
		<polygon class="st1" points="483.2,123.9 488.9,123.9 507.1,169.5 525.5,123.9 531.3,123.9 509.6,176 504.7,176 		"/>
		<polygon class="st1" points="539.3,123.9 567.7,123.9 567.7,128.6 544.5,128.6 544.5,147.3 567,147.3 567,152.1 544.5,152.1 
			544.5,171.2 567.7,171.2 567.7,176 539.3,176 		"/>
		<path class="st1" d="M579,123.9h12.4c4.9,0,10.4,0.1,14.8,2.5c5.3,3,8.1,8.4,8.1,14.4c0,8.5-6.9,15.4-15.4,15.7l14.6,19.5h-6.5
			l-17.7-23.6h1.6c3.7,0,7.9,0.1,11.3-1.4c4.3-2,6.8-5.9,6.8-10.6c0-3.6-1.9-7.3-4.9-9.3c-3.4-2.5-7.7-2.5-11.7-2.5h-8.3V176H579
			V123.9z"/>
		<path class="st1" d="M625.5,161.4c0.1,5.7,4.6,10.5,10.4,10.5c5.9,0,10.8-4.3,10.8-10.3c0-2.8-1.4-5.6-3.6-7.4
			c-2.4-2-5.1-2.7-8-3.5c-3.3-0.8-6.6-1.7-9.2-3.9c-2.9-2.5-4.4-6-4.4-9.7c0-8.4,6.6-14,14.8-14c7.9,0,14.4,6.1,14.3,14.1h-5.4
			c-0.4-5.3-4.2-9.1-9.5-9.1c-5.1,0-9,4.2-9,9.1c0,6.3,5.2,7.7,10.3,9.1c3.8,1.1,7,1.7,10,4.4c3.1,2.7,4.9,6.8,4.9,10.9
			c0,8.6-7.4,15.2-15.8,15.2c-8.9,0-16.2-6.4-16.1-15.5H625.5z"/>
		<rect x="660.8" y="123.9" class="st1" width="5.2" height="52.1"/>
		<polygon class="st1" points="685.8,128.6 673.8,128.6 673.8,123.9 702.9,123.9 702.9,128.6 691,128.6 691,176 685.8,176 		"/>
		<polygon class="st1" points="710.7,123.9 739.2,123.9 739.2,128.6 715.9,128.6 715.9,147.3 738.4,147.3 738.4,152.1 715.9,152.1 
			715.9,171.2 739.2,171.2 739.2,176 710.7,176 		"/>
		<rect x="750.4" y="123.9" class="st1" width="5.2" height="52.1"/>
		<polygon class="st1" points="775.4,128.6 763.5,128.6 763.5,123.9 792.5,123.9 792.5,128.6 780.7,128.6 780.7,176 775.4,176 		"/>
		<path class="st1" d="M367.7,198.5h12.2c4.2,0,8.2,0.3,11.8,2.6c3.7,2.5,6.1,6.7,6.1,11.2c0,4.5-2.2,7.9-5.8,10.4
			c5.5,2.3,8.6,7.1,8.6,13.1c0,4.7-2.4,9.4-6.4,11.9c-4.6,2.9-9.1,2.7-14.3,2.8h-12.3V198.5z M378.6,220.8c3.3,0,6.9,0.1,9.9-1.5
			c2.5-1.3,4.2-4.4,4.2-7.3c0-2.8-1.8-5.7-4.1-7.2c-2.7-1.6-6.4-1.7-9.5-1.6h-6.1v17.5H378.6z M379.3,245.9c3.5,0.1,7.8,0.1,11-1.5
			c3-1.5,5.1-5.1,5.1-8.4c0.1-4.5-2.4-8-6.5-9.4c-3.3-1.1-7-1.1-10.5-1.1h-5.5v20.4H379.3z"/>
		<path class="st1" d="M410.1,198.5h12.4c4.9,0,10.4,0.1,14.8,2.5c5.3,3.1,8.1,8.4,8.1,14.4c0,8.5-6.9,15.4-15.4,15.7l14.7,19.4
			h-6.5L420.6,227h1.6c3.7,0,7.9,0.1,11.3-1.4c4.3-2,6.8-5.9,6.8-10.6c0-3.6-1.9-7.2-4.9-9.3c-3.4-2.5-7.7-2.5-11.8-2.5h-8.3v47.4
			h-5.2V198.5z"/>
		<path class="st1" d="M460.1,198.5v31.6c0,3.7,0.4,7.7,2.4,10.9c2.2,3.4,6.1,5.4,10.2,5.4c3.7,0,7.4-1.7,9.6-4.7
			c2.5-3.4,2.9-7.6,2.9-11.6v-31.6h5.2v31.6c0,5.3-0.5,10.4-3.9,14.7c-3.2,4.3-8.5,6.6-13.8,6.6c-5.2,0-10.3-2.2-13.6-6.2
			c-3.6-4.4-4.2-9.7-4.2-15.2v-31.6H460.1z"/>
		<path class="st1" d="M504.8,236c0.1,5.7,4.6,10.5,10.4,10.5c5.9,0,10.8-4.3,10.8-10.3c0-2.8-1.4-5.6-3.6-7.4
			c-2.4-1.9-5.1-2.7-8-3.4c-3.2-0.8-6.5-1.7-9.2-3.9c-2.9-2.5-4.4-6-4.4-9.7c0-8.4,6.6-14,14.8-14c7.9,0,14.4,6.2,14.3,14.1h-5.4
			c-0.3-5.3-4.2-9.1-9.5-9.1c-5.1,0-8.9,4.2-8.9,9.1c0,6.3,5.2,7.7,10.3,9.2c3.7,1,7,1.7,10,4.4c3.1,2.7,4.9,6.8,4.9,10.9
			c0,8.6-7.4,15.2-15.9,15.2c-8.9,0-16.2-6.4-16.1-15.5H504.8z"/>
		<path class="st1" d="M541.8,236c0.1,5.7,4.6,10.5,10.4,10.5c5.9,0,10.8-4.3,10.8-10.3c0-2.8-1.4-5.6-3.6-7.4
			c-2.4-1.9-5.1-2.7-8-3.4c-3.2-0.8-6.6-1.7-9.1-3.9c-2.9-2.5-4.4-6-4.4-9.7c0-8.4,6.6-14,14.8-14c7.9,0,14.4,6.2,14.3,14.1h-5.4
			c-0.4-5.3-4.2-9.1-9.5-9.1c-5.1,0-9,4.2-9,9.1c0,6.3,5.2,7.7,10.3,9.2c3.8,1,7,1.7,10,4.4c3.1,2.7,4.9,6.8,4.9,10.9
			c0,8.6-7.4,15.2-15.8,15.2c-8.9,0-16.2-6.4-16.1-15.5H541.8z"/>
		<polygon class="st1" points="577.1,198.5 605.6,198.5 605.6,203.3 582.3,203.3 582.3,222 604.8,222 604.8,226.7 582.3,226.7 
			582.3,245.9 605.6,245.9 605.6,250.6 577.1,250.6 		"/>
		<polygon class="st1" points="616.9,198.5 622.1,198.5 622.1,245.9 643.6,245.9 643.6,250.6 616.9,250.6 		"/>
		<path class="st2" d="M208.6,84.3h-23.5v88.8c-0.1,4.3-0.6,8.5-2.5,12.5c-3.2,5.6-9.1,9.6-16,10.5c-0.2,0-0.5,0-0.7,0
			c-0.6,0.1-1.3,0.1-1.9,0.1c-0.7,0-1.3,0-1.9-0.1c-0.2,0-0.5,0-0.7,0c-6.9-0.9-12.8-4.8-16-10.5c-1.9-3.9-2.4-8.1-2.5-12.5V84.3
			h-22.5h-7.4c-7.1,0-13.2,4.8-15.1,11.3c-0.1,0.2-0.1,0.3-0.1,0.3l-29.3,85.5h-0.1L33.9,84.3V154l22.8,61.7h23.7l38.3-106l0.3-0.8
			h0.2v59.3c0,9.4,0.6,18.5,4.4,26.6c6.9,13.8,21.4,23.4,38.4,24.1c0.6,0,1.3,0,1.9,0c0.6,0,1.3,0,1.9,0
			c16.9-0.7,31.4-10.4,38.3-24.1c3.8-8.1,4.4-17.2,4.4-26.6V84.3z"/>
	</g>
</g>
</svg>
