<?xml version="1.0" encoding="utf-8"?>
<!-- Generator: Adobe Illustrator 16.0.0, SVG Export Plug-In . SVG Version: 6.00 Build 0)  -->
<!DOCTYPE svg PUBLIC "-//W3C//DTD SVG 1.1//EN" "http://www.w3.org/Graphics/SVG/1.1/DTD/svg11.dtd">
<svg version="1.1" id="Layer_1" xmlns="http://www.w3.org/2000/svg" xmlns:xlink="http://www.w3.org/1999/xlink" x="0px" y="0px"
	 width="250px" height="57px" viewBox="0 0 250 57" enable-background="new 0 0 250 57" xml:space="preserve">
<g>
	<path fill="#3C3A40" d="M106.673,45.145c-0.308,0-0.482,0.201-0.482,0.549c0,0.345,0.174,0.548,0.482,0.548s0.48-0.202,0.481-0.548
		C107.154,45.347,106.99,45.145,106.673,45.145z"/>
	<path fill="#3C3A40" d="M152.822,45.145c-0.308,0-0.48,0.201-0.48,0.549c0,0.345,0.173,0.548,0.48,0.548
		c0.307,0,0.481-0.202,0.481-0.548C153.304,45.347,153.141,45.145,152.822,45.145z"/>
	<g>
		<g>
			<path fill="#A3B1C6" d="M38.935,15.209c6.09,0,10.635,4.779,10.635,11.151c0,6.372-4.544,11.15-10.635,11.15
				S28.3,33.044,28.3,26.36C28.3,19.988,32.844,15.209,38.935,15.209z M38.935,35.261c4.778,0,8.292-4.028,8.292-8.901
				c0-4.477-3.514-8.902-8.292-8.902c-4.779,0-8.293,4.029-8.293,8.902S34.156,35.261,38.935,35.261z"/>
			<path fill="#ED6D4F" d="M34.61,15.209c6.091,0,10.636,4.779,10.636,11.151c0,6.627-4.544,11.15-10.636,11.15
				c-6.09,0-10.635-4.778-10.635-11.15C23.975,19.988,28.52,15.209,34.61,15.209z M34.61,35.261c4.779,0,8.293-4.028,8.293-8.901
				s-3.514-8.902-8.293-8.902c-4.778,0-8.292,4.335-8.292,8.902C26.318,31.232,29.832,35.261,34.61,35.261z"/>
			<g>
				<path fill="#3C3A40" d="M36.772,16.291c-6.09,0-10.635,4.778-10.635,11.15c0,6.371,4.544,11.15,10.635,11.15
					c6.091,0,10.635-4.779,10.635-11.15C47.408,21.069,42.863,16.291,36.772,16.291z M36.772,36.343
					c-4.779,0-8.292-4.03-8.292-8.902s3.514-8.902,8.292-8.902s8.293,4.03,8.293,8.902S41.551,36.343,36.772,36.343z"/>
				<path fill="#3C3A40" d="M19.74,21.377c-1.593-3.139-4.498-5.106-8.292-5.106C5.591,16.271,1,20.534,1,27.421
					C1,34.308,5.591,38.57,11.447,38.57c3.795,0,6.7-1.966,8.292-5.105v4.263c0,6.091-3.654,8.9-8.574,8.9s-7.168-3.231-7.168-7.026
					H1.656c0,5.575,3.654,9.37,9.51,9.37s10.917-3.795,10.917-11.244V16.291H19.74V21.377z M11.682,36.228
					c-4.685,0-8.292-2.904-8.292-8.807s3.607-8.808,8.292-8.808c3.748,0,8.058,2.905,8.058,8.808
					C19.74,33.323,15.429,36.228,11.682,36.228z"/>
				<path fill="#3C3A40" d="M63.409,16.271c-6.09,0-10.916,4.639-10.916,11.15c0,6.513,4.826,11.149,10.916,11.149
					c2.951,0,5.528-0.983,7.027-2.764v-3.139c-0.983,1.968-3.561,3.56-7.027,3.56c-5.154,0-8.527-3.841-8.527-8.807
					c0-4.966,3.373-8.808,8.527-8.808c3.467,0,6.044,1.592,7.027,3.561v-3.139C68.937,17.301,66.36,16.271,63.409,16.271z"/>
				<path fill="#3C3A40" d="M88.665,29.764c0,3.56-2.905,6.464-6.652,6.464c-3.982,0-4.826-2.437-4.826-5.997V16.272h-2.342V30.7
					c0,5.575,2.249,7.87,6.7,7.87c3.514,0,5.903-1.545,7.121-4.076v4.076h2.343V16.272h-2.343V29.764z"/>
				<path fill="#3C3A40" d="M104.089,25.876c-2.389-0.984-5.387-2.015-5.387-4.498c0-1.686,1.265-2.857,3.982-2.857
					c2.952,0,3.842,1.78,4.779,3.56l2.015-1.124c-0.843-2.39-3.045-4.685-6.839-4.685c-3.373,0-6.278,1.779-6.278,5.34
					c0,3.373,3.045,5.013,5.998,6.184c2.482,0.984,5.059,2.062,5.059,5.106c0,2.061-1.639,3.372-4.451,3.372
					c-3.42,0-5.435-2.998-5.998-5.621l-2.061,0.797c0.655,3.513,3.186,7.121,8.104,7.121c3.701,0,6.887-1.827,6.886-5.998
					C109.899,29.014,107.135,27.141,104.089,25.876z"/>
				<polygon fill="#3C3A40" points="117.269,9.148 114.927,9.148 114.927,16.272 111.413,16.272 111.413,18.614 114.927,18.614 
					114.927,38.591 117.269,38.591 117.269,18.614 120.783,18.614 120.783,16.272 117.269,16.272 				"/>
				<path fill="#3C3A40" d="M132.11,16.271c-6.091,0-10.636,4.779-10.636,11.15c0,6.371,4.544,11.149,10.636,11.149
					c6.089,0,10.636-4.779,10.636-11.15C142.746,21.049,138.201,16.271,132.11,16.271z M132.11,36.322
					c-4.78,0-8.294-4.029-8.294-8.901c0-4.873,3.514-8.901,8.294-8.901c4.778,0,8.291,4.028,8.291,8.901
					C140.401,32.293,136.889,36.322,132.11,36.322z"/>
				<path fill="#3C3A40" d="M168.483,16.271c-3.466,0-5.716,1.686-6.84,4.357c-0.843-3.045-2.952-4.357-6.044-4.357
					c-3.232,0-5.294,1.452-6.419,3.795v-3.793h-2.343v22.319h2.343V25.078c0-3.56,2.438-6.464,5.951-6.464
					c3.606,0,4.589,2.436,4.589,5.997v13.981h2.343V25.078c0-3.56,2.439-6.464,5.952-6.464c3.607,0,4.591,2.436,4.589,5.997v13.981
					h2.344v-14.45C174.948,18.565,172.559,16.271,168.483,16.271z"/>
				<path fill="#3C3A40" d="M181.643,5.54c-0.985,0-1.78,0.796-1.78,1.78s0.797,1.78,1.78,1.78c0.982,0,1.781-0.796,1.781-1.78
					S182.627,5.54,181.643,5.54z"/>
				<rect x="180.472" y="16.271" fill="#3C3A40" width="2.342" height="22.3"/>
				<polygon fill="#3C3A40" points="186.541,16.271 186.541,18.614 200.361,18.614 185.604,38.557 204.111,38.557 204.111,36.214 
					190.289,36.214 205.047,16.271 				"/>
				<path fill="#3C3A40" d="M215.414,16.271c-6.324,0-10.355,4.639-10.355,11.15c0,6.513,4.732,11.149,10.59,11.149
					c4.403,0,7.309-2.107,9.463-5.387l-1.873-1.499c-1.548,2.857-4.451,4.591-7.354,4.591c-5.06,0-8.294-3.702-8.433-8.527h17.755
					c0.046-0.234,0.046-0.421,0.046-0.515C225.252,20.44,221.129,16.271,215.414,16.271z M207.543,25.64
					c0.188-3.889,3.327-7.168,7.871-7.168c4.45,0,7.028,3.467,7.356,7.168H207.543z"/>
				<path fill="#3C3A40" d="M246.658,1.653v19.724c-1.594-3.139-4.497-5.106-8.294-5.106c-5.855,0-10.447,4.263-10.447,11.15
					c0,6.887,4.592,11.149,10.447,11.149c3.797,0,6.7-1.966,8.294-5.105v5.092H249V1.653H246.658z M238.6,36.228
					c-4.686,0-8.294-2.904-8.294-8.807s3.608-8.808,8.294-8.808c3.746,0,8.059,2.905,8.059,8.808
					C246.658,33.323,242.348,36.228,238.6,36.228z"/>
			</g>
		</g>
		<path fill="#3C3A40" d="M63.941,47.126c-0.817,0-1.568,0.297-2.019,1.038h-0.019v-0.933h-0.645v8.067h0.645v-2.98h0.019
			c0.5,0.741,1.212,1.058,2.019,1.058c1.827,0,2.683-1.345,2.683-3.183C66.624,48.385,65.749,47.126,63.941,47.126z M63.903,52.751
			c-1.529,0-2.077-1.202-2.077-2.557c0-1.347,0.567-2.442,2.077-2.442c1.519,0,2.078,1.087,2.078,2.442
			C65.981,51.549,65.422,52.751,63.903,52.751z M70.496,47.125c-1.741,0-2.76,1.299-2.76,3.173c0,1.78,0.885,3.077,2.808,3.077
			c0.846,0,1.568-0.279,2.115-0.797l-0.452-0.464c-0.442,0.405-1.01,0.637-1.664,0.637c-1.279,0-1.991-0.711-2.154-2.144
			l-0.067-0.058h4.885c0.009-0.078,0.009-0.145,0.009-0.251C73.217,48.441,72.332,47.125,70.496,47.125z M72.621,49.952h-4.289
			l0.067-0.066c0.154-1.309,0.837-2.135,2.106-2.135c1.231,0,1.953,0.826,2.048,2.135L72.621,49.952z M77.301,47.155h0.067l0,0.729
			h-0.163c-0.943,0-1.981,0.663-1.981,2.404v2.992h-0.644v-6.06h0.644v1.317h0.02C75.58,47.616,76.397,47.155,77.301,47.155z
			 M82.906,51.673c0,0.838-0.605,1.711-2.308,1.711c-0.894,0-1.827-0.297-2.471-0.97l0.5-0.5c0.654,0.605,1.221,0.846,1.943,0.846
			c1.086,0,1.682-0.441,1.682-1.048c0-0.499-0.308-0.799-1.153-1.039c-0.125-0.027-0.943-0.277-1.077-0.317
			c-1.068-0.316-1.751-0.72-1.751-1.596c0-0.826,0.673-1.634,2.26-1.634c0.885,0,1.645,0.317,2.203,0.912l-0.491,0.48
			c-0.422-0.48-0.98-0.768-1.712-0.768c-1.057,0-1.605,0.452-1.605,0.979c0,0.491,0.462,0.761,1.422,1.029
			c0.126,0.038,0.837,0.269,0.972,0.308C82.494,50.404,82.906,50.942,82.906,51.673z M86.689,47.126c-1.817,0-2.73,1.298-2.73,3.125
			c0,1.838,0.913,3.125,2.741,3.125c1.807,0,2.74-1.298,2.74-3.125C89.44,48.405,88.526,47.126,86.689,47.126z M86.7,52.751
			c-1.481,0-2.097-1.134-2.097-2.5c0-1.374,0.596-2.499,2.097-2.499c1.479,0,2.096,1.125,2.096,2.499
			C88.796,51.627,88.19,52.751,86.7,52.751z M95.935,49.387v3.895h-0.644v-3.702c0-1.048-0.337-1.826-1.809-1.826
			c-1.067,0-1.98,0.635-1.98,1.914v3.616h-0.645v-6.06h0.645v0.933h0.019c0.423-0.652,1.211-1.027,2.058-1.027
			C95.117,47.126,95.935,47.934,95.935,49.387z M99.874,47.136c-0.895,0-1.645,0.191-2.337,0.748l0.442,0.454
			c0.52-0.454,1.269-0.586,1.895-0.586c0.933,0,1.788,0.374,1.788,1.556v0.328l0.067,0.065c-0.173-0.028-0.547-0.056-0.76-0.056
			c-1.54,0-3.76,0.095-3.76,1.923c0,1.335,1.145,1.815,2.355,1.815c0.943,0,1.654-0.297,2.078-0.769h0.019v0.665h0.644v-3.981
			C102.306,47.636,101.143,47.136,99.874,47.136z M101.661,50.31v1.25c0,0.972-1.432,1.201-2.096,1.201
			c-0.644,0-1.711-0.221-1.711-1.192c0-0.722,0.577-1.059,1.221-1.212c0.317-0.077,0.673-0.113,1.019-0.134
			c0.336-0.019,0.654-0.019,0.923-0.019c0.202,0,0.539,0.019,0.712,0.037L101.661,50.31z M104,45.202h0.634v8.078H104V45.202z
			 M106.346,47.231h0.644v6.049h-0.644V47.231z M109.006,52.684h4.192l-0.001,0.597h-4.922v-0.53l3.645-4.422l0.5-0.481v-0.021
			h-4.077v-0.595h4.827v0.501l-3.635,4.412l-0.529,0.52V52.684z M116.74,47.125c-1.739,0-2.759,1.299-2.759,3.173
			c0,1.78,0.885,3.077,2.809,3.077c0.845,0,1.566-0.279,2.115-0.797l-0.453-0.464c-0.441,0.405-1.009,0.637-1.662,0.637
			c-1.28,0-1.992-0.711-2.154-2.144l-0.068-0.058h4.886c0.01-0.078,0.01-0.145,0.009-0.251
			C119.462,48.441,118.578,47.125,116.74,47.125z M118.866,49.952h-4.289l0.068-0.066c0.153-1.309,0.836-2.135,2.105-2.135
			c1.231,0,1.953,0.826,2.049,2.135L118.866,49.952z M128.317,47.221l0.729,0.001l-2.672,6.75c-0.347,0.865-0.972,1.375-1.664,1.375
			c-0.414,0-0.741-0.068-1.019-0.202v-0.588c0.27,0.114,0.596,0.173,0.904,0.173c0.605,0,1.04-0.558,1.385-1.449l-2.673-6.061h0.731
			L126,51.816l0.278,0.836h0.02l0.288-0.836L128.317,47.221z M132.299,47.126c-1.816,0-2.73,1.298-2.73,3.125
			c0,1.838,0.914,3.125,2.74,3.125c1.808,0,2.74-1.298,2.74-3.125C135.049,48.405,134.136,47.126,132.299,47.126z M132.309,52.751
			c-1.48,0-2.096-1.134-2.096-2.5c0-1.374,0.597-2.499,2.096-2.499c1.482,0,2.096,1.125,2.096,2.499
			C134.404,51.627,133.801,52.751,132.309,52.751z M140.763,47.221h0.645v6.06h-0.645v-0.934h-0.018
			c-0.425,0.636-1.155,1.027-2.01,1.027c-1.646,0-2.327-0.893-2.327-2.355V47.22h0.643v3.749c0,0.972,0.3,1.78,1.77,1.78
			c1.076,0,1.942-0.636,1.942-1.914V47.221L140.763,47.221z M145.854,47.155h0.068l-0.002,0.729h-0.162
			c-0.941,0-1.983,0.663-1.983,2.404v2.992h-0.643v-6.06h0.643v1.317h0.021C144.133,47.616,144.948,47.155,145.854,47.155z
			 M150.151,45.202h0.634v8.078h-0.634V45.202z M152.495,47.231h0.646v6.049h-0.646V47.231z M157.534,47.809h-1.913l0.036,0.067
			v5.405h-0.645v-5.405l0.051-0.067h-0.781v-0.577h0.781l-0.051-0.067v-0.185c0-1.114,0.652-1.825,1.82-1.825
			c0.222,0,0.499,0.048,0.701,0.125v0.587c-0.222-0.067-0.511-0.105-0.685-0.105c-0.798,0-1.192,0.49-1.192,1.24v0.163l-0.038,0.067
			h1.915V47.809z M160.824,47.125c-1.741,0-2.761,1.299-2.761,3.173c0,1.78,0.887,3.077,2.81,3.077c0.844,0,1.564-0.279,2.114-0.797
			l-0.45-0.464c-0.444,0.405-1.013,0.637-1.664,0.637c-1.28,0-1.993-0.711-2.154-2.144l-0.068-0.058h4.885
			c0.01-0.078,0.01-0.145,0.01-0.251C163.545,48.441,162.662,47.125,160.824,47.125z M162.948,49.952h-4.288l0.068-0.066
			c0.153-1.309,0.835-2.135,2.105-2.135c1.229,0,1.953,0.826,2.049,2.135L162.948,49.952z M169.29,51.673
			c-0.002,0.838-0.607,1.711-2.309,1.711c-0.896,0-1.829-0.297-2.473-0.97l0.503-0.5c0.652,0.605,1.22,0.846,1.942,0.846
			c1.085,0,1.682-0.441,1.682-1.048c0-0.499-0.308-0.799-1.153-1.039c-0.125-0.027-0.943-0.277-1.077-0.317
			c-1.066-0.316-1.75-0.72-1.75-1.596c0-0.826,0.674-1.634,2.262-1.634c0.883,0,1.643,0.317,2.202,0.912l-0.491,0.48
			c-0.423-0.48-0.981-0.768-1.711-0.768c-1.06,0-1.606,0.452-1.606,0.979c0,0.491,0.463,0.761,1.424,1.029
			c0.126,0.038,0.835,0.269,0.971,0.308C168.876,50.404,169.29,50.942,169.29,51.673z M173.534,52.338l0.452,0.462
			c-0.499,0.383-1.008,0.576-1.569,0.576c-0.94,0-1.546-0.625-1.546-1.798v-3.701l0.036-0.067h-0.769v-0.588h0.769l-0.036-0.066
			v-1.05l0.643-0.345v1.395l-0.037,0.066h1.913v0.588h-1.913l0.037,0.067v3.663c0,0.778,0.348,1.222,0.952,1.222
			C172.881,52.761,173.207,52.627,173.534,52.338z M179.393,47.221l0.73,0.001l-2.673,6.75c-0.347,0.865-0.971,1.375-1.664,1.375
			c-0.411,0-0.74-0.068-1.017-0.202v-0.588c0.267,0.114,0.594,0.173,0.904,0.173c0.605,0,1.037-0.558,1.383-1.449l-2.673-6.061
			h0.732l1.96,4.597l0.278,0.836h0.02l0.289-0.836L179.393,47.221z M181.213,45.202h0.633v8.078h-0.633V45.202z M186.021,47.125
			c-1.742,0-2.76,1.299-2.76,3.173c0,1.78,0.885,3.077,2.807,3.077c0.845,0,1.567-0.279,2.115-0.797l-0.452-0.464
			c-0.443,0.405-1.009,0.637-1.663,0.637c-1.278,0-1.99-0.711-2.155-2.144l-0.066-0.058h4.885c0.01-0.078,0.01-0.145,0.01-0.251
			C188.743,48.441,187.856,47.125,186.021,47.125z M188.145,49.952h-4.288l0.068-0.066c0.153-1.309,0.837-2.135,2.104-2.135
			c1.231,0,1.954,0.826,2.052,2.135L188.145,49.952z"/>
	</g>
</g>
</svg>
