<?xml version="1.0" encoding="utf-8"?>
<!-- Generator: Adobe Illustrator 22.1.0, SVG Export Plug-In . SVG Version: 6.00 Build 0)  -->
<svg version="1.1" id="Layer_1" xmlns="http://www.w3.org/2000/svg" xmlns:xlink="http://www.w3.org/1999/xlink" x="0px" y="0px"
	 viewBox="0 0 256 512" style="enable-background:new 0 0 256 512;" xml:space="preserve">
<style type="text/css">
	.st0{filter:url(#Adobe_OpacityMaskFilter);}
	.st1{fill:#FFFFFF;}
	.st2{mask:url(#mask-2_2_);fill:#EC6C4F;}
</style>
<g id="Page-1">
	<g id="AMP-Product-page" transform="translate(-16.000000, -269.000000)">
		<g id="Arrow" transform="translate(16.000000, 269.000000)">
			<g>
				<g id="Clip-2">
				</g>
				<defs>
					<filter id="Adobe_OpacityMaskFilter" filterUnits="userSpaceOnUse" x="20.2" y="70.4" width="216.6" height="371.2">
						<feColorMatrix  type="matrix" values="1 0 0 0 0  0 1 0 0 0  0 0 1 0 0  0 0 0 1 0"/>
					</filter>
				</defs>
				<mask maskUnits="userSpaceOnUse" x="20.2" y="70.4" width="216.6" height="371.2" id="mask-2_2_">
					<g class="st0">
						<polygon id="path-1_2_" class="st1" points="20.2,70.4 236.8,70.4 236.8,441.6 20.2,441.6 						"/>
					</g>
				</mask>
				<path id="Fill-1" class="st2" d="M212.5,441.6c-6.2,0-12.4-2.3-17.1-6.9L27.3,272.6c-9.5-9.1-9.5-24,0-33.1L195.4,77.2
					c9.5-9.1,24.8-9.1,34.3,0c9.5,9.1,9.5,24,0,33.1L78.8,256l150.9,145.7c9.5,9.1,9.5,24,0,33.1
					C224.9,439.3,218.7,441.6,212.5,441.6"/>
			</g>
		</g>
	</g>
</g>
</svg>
