<?xml version="1.0" encoding="utf-8"?>
<!-- Generator: Adobe Illustrator 22.1.0, SVG Export Plug-In . SVG Version: 6.00 Build 0)  -->
<svg version="1.1" id="Layer_1" xmlns="http://www.w3.org/2000/svg" xmlns:xlink="http://www.w3.org/1999/xlink" x="0px" y="0px"
	 viewBox="0 0 24 24" style="enable-background:new 0 0 24 24;" xml:space="preserve">
<style type="text/css">
	.st0{fill:#EC6C4F;}
</style>
<title>filter_icon</title>
<desc>Created with Sketch.</desc>
<g id="Page-1">
	<g id="AMP-Category-page" transform="translate(-23.000000, -293.000000)">
		<g id="filter_icon" transform="translate(23.000000, 293.000000)">
			<path id="Rectangle-2" class="st0" d="M3,6h18c0.6,0,1,0.4,1,1l0,0c0,0.6-0.4,1-1,1H3C2.4,8,2,7.6,2,7l0,0C2,6.4,2.4,6,3,6z"/>
			<path id="Rectangle-2-Copy" class="st0" d="M6,11h12c0.6,0,1,0.4,1,1l0,0c0,0.6-0.4,1-1,1H6c-0.6,0-1-0.4-1-1l0,0
				C5,11.4,5.4,11,6,11z"/>
			<path id="Rectangle-2-Copy-2" class="st0" d="M11,16h2c0.6,0,1,0.4,1,1l0,0c0,0.6-0.4,1-1,1h-2c-0.6,0-1-0.4-1-1l0,0
				C10,16.4,10.4,16,11,16z"/>
		</g>
	</g>
</g>
</svg>
