<svg enable-background="new 0 0 23 12.7" viewBox="0 0 23 12.7" xmlns="http://www.w3.org/2000/svg"><circle cx=".9" cy="3.3" r=".5"/><g stroke-miterlimit="10"><path d="m22.4 8.9v-4l-3-3h-3v-1h-11v9h17z" stroke="#000" stroke-linecap="round" stroke-linejoin="round" stroke-width=".25"/><circle cx="18.4" cy="9.9" r="2" stroke="#fff" stroke-width=".75"/><circle cx="9.4" cy="9.9" r="2" stroke="#fff" stroke-width=".75"/></g><path d="m19.1 3h-1.6v1.6h3.3z" fill="#fff"/><path d="m4.6 2.8h2.3c.3 0 .5-.2.5-.5s-.2-.5-.5-.5h-2.3z" fill="#fff"/><path d="m6 1.8h-1.3c-.3 0-.5-.2-.5-.5s.2-.5.5-.5h1.3z"/><path d="m1.7 1.8c-.3 0-.5-.2-.5-.5s.2-.5.5-.5h1.3c.3 0 .5.2.5.5s-.3.5-.5.5z"/><path d="m2.1 5.8c-.3 0-.5-.2-.5-.5s.2-.5.5-.5h.5c.2 0 .4.2.4.5s-.2.5-.5.5z"/><path d="m4.6 3.8h3.5c.3 0 .5.2.5.5s-.2.5-.5.5h-3.5z" fill="#fff"/><path d="m6 4.8h-1.7c-.3 0-.5.2-.5.5s.2.5.5.5h1.7z"/><circle cx="3.4" cy="7.3" r=".5"/><path d="m4.6 5.8h1.7c.3 0 .5.2.5.5s-.2.5-.5.5h-1.7z" fill="#fff"/><path d="m6 6.8h-.9c-.3 0-.5.2-.5.5s.2.5.5.5h.9z"/><path d="m6 3.8h-3.5c-.3 0-.5-.2-.5-.5s.2-.5.5-.5h3.5z"/></svg>